<svg width="92" height="92" viewBox="0 0 92 92" fill="none" xmlns="http://www.w3.org/2000/svg">
<rect width="91.1642" height="91.1642" rx="45.5821" fill="#EDEDFB"/>
<g clip-path="url(#clip0_699_2698)">
<path d="M42.1699 47.2006L45.0509 57.1314C46.0579 56.8801 47.0703 56.6506 48.0873 56.443L45.1597 46.3475C46.6111 44.6872 48.5084 43.4781 50.6264 42.8638C53.3803 42.0646 56.3325 42.3137 58.9136 43.563C56.6013 35.8278 48.7881 31.2253 41.0013 32.7822L40.5321 31.1678C40.4082 30.7829 40.1392 30.4614 39.7822 30.2716C39.4251 30.0819 39.0082 30.0387 38.6199 30.1514C38.2315 30.264 37.9024 30.5236 37.7024 30.875C37.5023 31.2264 37.4471 31.6419 37.5485 32.0333L38.0287 33.6897C30.8743 36.6778 26.932 44.5917 29.0749 52.218C30.4099 50.0663 32.4129 48.4108 34.7776 47.5048C37.1424 46.5987 39.7387 46.4919 42.1699 47.2006Z" fill="#9442F9"/>
<path d="M33.1533 64.2313H62.6781V56.4619C45.5848 56.4619 33.1533 62.6774 33.1533 64.2313Z" fill="#9442F9"/>
</g>
<defs>
<clipPath id="clip0_699_2698">
<rect width="37.2944" height="37.2944" fill="white" transform="translate(26.9351 26.9355)"/>
</clipPath>
</defs>
</svg>
