<svg width="92" height="92" viewBox="0 0 92 92" fill="none" xmlns="http://www.w3.org/2000/svg">
<rect x="0.492188" width="91.1642" height="91.1642" rx="45.5821" fill="#B4E1FF"/>
<g clip-path="url(#clip0_699_2715)">
<path fill-rule="evenodd" clip-rule="evenodd" d="M36.9806 33.3964H40.7697C40.737 32.6752 40.5321 31.9705 40.1715 31.3461C39.9257 30.8397 39.434 30.4971 38.8752 30.4397C38.3147 30.4971 37.8246 30.8396 37.5788 31.3461C37.2166 31.9705 37.0117 32.6736 36.9806 33.3947V33.3964ZM39.5439 47.7568C39.475 47.6879 39.4357 47.5961 39.4357 47.4994C39.4357 47.4027 39.4734 47.311 39.5406 47.2421C39.6094 47.1733 39.7028 47.1356 39.7995 47.1356C39.8946 47.1372 39.988 47.1749 40.0552 47.2438L41.2401 48.4287L43.4904 46.1785C43.5576 46.1096 43.651 46.0703 43.7477 46.0703C43.8427 46.0703 43.9362 46.108 44.005 46.1768C44.0722 46.244 44.1115 46.3374 44.1099 46.4341C44.1099 46.5292 44.0705 46.6226 44.0017 46.6898L41.4974 49.1957C41.4286 49.2646 41.3368 49.3023 41.2418 49.3023C41.1451 49.3023 41.0533 49.2646 40.9861 49.1957L39.5455 47.7551L39.5439 47.7568ZM55.0069 42.573C55.0069 42.7337 54.9003 42.8763 54.7446 42.9205C54.3661 43.0434 54.0284 43.2712 53.7728 43.5761C53.5482 43.8465 53.4237 44.1841 53.4204 44.5349C53.4138 44.8004 53.4712 45.0626 53.5892 45.2986C53.7088 45.5166 53.8826 45.7001 54.0956 45.8279C54.2874 45.946 54.4939 46.0361 54.7102 46.0984C54.9396 46.1672 55.1888 46.2196 55.4412 46.2721L55.51 46.2852H55.5084C55.8443 46.3344 56.1688 46.436 56.4704 46.59C56.6359 46.6917 56.7589 46.8506 56.8162 47.0375C56.8588 47.1735 56.8769 47.3144 56.8752 47.457C56.8703 47.7881 56.7195 48.1011 56.4622 48.3092C56.2049 48.5223 55.8804 48.6387 55.5477 48.637C55.2855 48.637 55.0281 48.5666 54.8036 48.4322C54.5791 48.3011 54.4037 48.1011 54.3021 47.8634C54.2317 47.7192 54.0776 47.6356 53.9186 47.6537C53.8531 47.6569 53.7875 47.6717 53.7252 47.6963C53.6728 47.7143 53.6236 47.7422 53.581 47.7799C53.5122 47.8389 53.4925 47.9356 53.5318 48.0159C53.6351 48.2601 53.7941 48.4764 53.994 48.6501C54.2136 48.8386 54.4677 48.9828 54.743 49.073C54.8987 49.1189 55.0053 49.2598 55.0053 49.422V49.7924C55.0102 49.8957 55.0593 49.9924 55.1413 50.0563C55.3789 50.2399 55.7116 50.2399 55.9493 50.0563C56.0312 49.9924 56.0804 49.8957 56.0853 49.7924V49.422C56.087 49.2598 56.1935 49.1188 56.3492 49.0746C56.7294 48.9517 57.0654 48.7255 57.3211 48.419C57.5456 48.1502 57.6702 47.811 57.6734 47.4602C57.6816 47.1947 57.6226 46.9342 57.5046 46.6965C57.385 46.4785 57.2113 46.2966 56.9982 46.1671C56.8065 46.0508 56.6 45.959 56.3853 45.8967C56.1558 45.8279 55.9067 45.7754 55.6543 45.723L55.5855 45.7099C55.2495 45.6624 54.925 45.5591 54.6234 45.4051C54.4579 45.3018 54.335 45.1428 54.2776 44.9576C54.235 44.82 54.217 44.679 54.2202 44.5348C54.2235 44.2037 54.3759 43.8924 54.6316 43.6842C54.8889 43.4712 55.2134 43.3548 55.5478 43.3564C55.8084 43.3564 56.0657 43.4269 56.2902 43.5613C56.5147 43.6924 56.6901 43.8907 56.7917 44.13C56.8622 44.2742 57.0162 44.3578 57.1752 44.3398C57.2424 44.3365 57.3063 44.3218 57.3686 44.2972C57.4227 44.2792 57.4718 44.2497 57.5145 44.2136C57.5817 44.1546 57.6013 44.0579 57.562 43.976C57.4587 43.7334 57.2998 43.5154 57.0998 43.3433C56.8802 43.1549 56.6245 43.0106 56.3491 42.9205C56.1935 42.8762 56.0869 42.7353 56.0886 42.573V42.2027C56.0836 42.0994 56.0328 42.0027 55.9509 41.9388C55.7132 41.7552 55.3822 41.7552 55.1445 41.9388C55.061 42.0027 55.0118 42.0994 55.0069 42.2027L55.0069 42.573ZM54.2841 42.3239V42.2027H54.2824C54.2874 41.8863 54.4316 41.5881 54.6774 41.3881C55.1822 40.9735 55.9099 40.9735 56.4163 41.3881C56.6621 41.5881 56.8064 41.8863 56.8097 42.2027V42.3239C57.0883 42.4436 57.3456 42.6042 57.5734 42.8025C57.8569 43.0483 58.0814 43.3564 58.2289 43.7022C58.3978 44.0628 58.3027 44.4938 57.9962 44.7512C57.8881 44.8478 57.7619 44.9232 57.6258 44.974C57.4898 45.0248 57.3456 45.0527 57.2014 45.0576C56.7375 45.097 56.3032 44.8315 56.1246 44.4037C56.0803 44.307 56.0082 44.2283 55.9148 44.1759C55.8034 44.1103 55.6755 44.0759 55.5444 44.0776C55.3822 44.0743 55.2232 44.1284 55.097 44.2316C55.0019 44.3037 54.9462 44.4135 54.9413 44.5332C54.938 44.5987 54.9446 44.6659 54.961 44.7315C54.9675 44.7561 54.9823 44.7774 55.0036 44.7921C55.2314 44.8954 55.4739 44.9658 55.7214 45.0019L55.7935 45.0167C56.0607 45.0707 56.3245 45.1265 56.59 45.2068C56.867 45.2871 57.1325 45.4051 57.3783 45.5559C57.6996 45.7525 57.9618 46.0295 58.1388 46.3606C58.3125 46.6998 58.401 47.0768 58.3945 47.4587C58.3912 47.9749 58.2093 48.4732 57.8798 48.8698C57.593 49.2205 57.2259 49.4942 56.8112 49.6712V49.7925C56.8063 50.1088 56.6621 50.4088 56.4163 50.607C55.9115 51.0217 55.1838 51.0217 54.6774 50.607C54.4315 50.4087 54.2873 50.1105 54.284 49.7925V49.6712C54.0054 49.5516 53.7481 49.391 53.5203 49.1927C53.2368 48.9485 53.0139 48.642 52.8664 48.2962C52.6976 47.934 52.7926 47.5046 53.0991 47.2473C53.2073 47.1506 53.3335 47.0752 53.4695 47.0228C53.6055 46.9719 53.7498 46.9441 53.894 46.9392C54.3562 46.9015 54.7905 47.1653 54.9707 47.5947C55.0133 47.6898 55.0855 47.7701 55.1772 47.8209C55.2903 47.8881 55.4182 47.9209 55.5476 47.9209C55.7115 47.9242 55.8705 47.8684 55.9967 47.7668C56.0901 47.6931 56.1475 47.5833 56.1524 47.4653C56.1557 47.3981 56.1475 47.3309 56.1311 47.2669C56.1245 47.2424 56.1098 47.2194 56.0901 47.2047C55.8607 47.1014 55.6181 47.0309 55.3706 46.9949L55.3002 46.9801C55.033 46.926 54.7692 46.8703 54.5037 46.79H54.502C54.2251 46.7097 53.9595 46.5933 53.7137 46.4409C53.3925 46.2459 53.1286 45.9673 52.95 45.6346C52.7763 45.2953 52.6894 44.9167 52.696 44.5349C52.6992 44.0202 52.8811 43.522 53.209 43.1254C53.4974 42.7746 53.8645 42.5009 54.2824 42.3239L54.2841 42.3239ZM57.398 56.4876C57.598 56.4876 57.7602 56.6498 57.7602 56.8498C57.7602 57.0497 57.598 57.212 57.398 57.212H55.3429V59.2672C55.3429 59.4671 55.1806 59.6294 54.9807 59.6294C54.7807 59.6294 54.6185 59.4671 54.6185 59.2672V57.212H52.5665C52.3666 57.212 52.2043 57.0497 52.2043 56.8498C52.2043 56.6498 52.3666 56.4876 52.5665 56.4876H54.6201V54.4324C54.6201 54.2324 54.7823 54.0702 54.9823 54.0702C55.1822 54.0702 55.3445 54.2324 55.3445 54.4324V56.4876H57.398ZM44.1885 56.4876C44.3885 56.4876 44.5507 56.6498 44.5507 56.8498C44.5507 57.0497 44.3885 57.212 44.1885 57.212H42.1333V59.2672C42.1333 59.4671 41.9711 59.6294 41.7711 59.6294C41.5712 59.6294 41.4089 59.4671 41.4089 59.2672V57.212H39.357C39.157 57.212 38.9948 57.0497 38.9948 56.8498C38.9948 56.6498 39.157 56.4876 39.357 56.4876H41.4122V54.4324C41.4122 54.2324 41.5744 54.0702 41.7744 54.0702C41.9743 54.0702 42.1366 54.2324 42.1366 54.4324V56.4876H44.1885ZM61.9297 52.6836H48.7395V61.3275L61.9297 61.3258V52.682V52.6836ZM48.0153 52.6836H34.8251V61.3275L48.0153 61.3258V52.682V52.6836ZM34.1026 52.3247V61.6877C34.1026 61.7844 34.1403 61.8762 34.2075 61.9434C34.2763 62.0122 34.3681 62.0499 34.4632 62.0499H62.292C62.387 62.0499 62.4788 62.0122 62.5477 61.9434C62.6149 61.8762 62.6526 61.7844 62.6526 61.6877V52.3213C62.6526 52.2263 62.6149 52.1329 62.5477 52.0657C62.4788 51.9985 62.3871 51.9591 62.292 51.9591H48.7397V42.9549C48.7397 42.8582 48.702 42.7664 48.6331 42.6976C48.5659 42.6304 48.4742 42.5927 48.3775 42.5927H34.4631C34.2631 42.5927 34.1025 42.7549 34.1025 42.9549L34.1026 52.3247ZM34.8254 51.9625L48.0156 51.9609V43.3158H34.8254V51.9625ZM56.5101 36.0451C56.6265 35.9074 56.7592 35.7862 56.9067 35.6813C57.1903 35.4764 57.5312 35.3649 57.8803 35.3633C58.4916 35.383 59.0554 35.7009 59.3864 36.2155C60.1469 37.371 60.1469 38.8673 59.3864 40.0227C59.0553 40.5357 58.4916 40.8553 57.8803 40.8749C57.3279 40.8602 56.8133 40.5963 56.479 40.1555C56.1365 39.7211 55.9185 39.2033 55.8464 38.6559C55.4793 38.3789 55.1548 38.0478 54.886 37.6742C54.155 36.6285 53.7452 35.3944 53.7027 34.1193H46.4866C46.5177 34.7913 46.6947 35.4485 47.0061 36.0451C47.1241 35.9074 47.2569 35.7861 47.4044 35.6812C47.6879 35.4764 48.0272 35.3633 48.3779 35.36C48.9892 35.3797 49.5514 35.6992 49.8841 36.2122C50.6445 37.3676 50.6445 38.864 49.8841 40.0194C49.5514 40.534 48.9892 40.852 48.3779 40.8733C47.8256 40.8586 47.311 40.5931 46.9766 40.1538C46.6341 39.7212 46.4145 39.2033 46.3424 38.6559C45.9753 38.3789 45.6508 38.0478 45.382 37.6742C44.6526 36.6285 44.2413 35.3944 44.1987 34.1193H36.9826C37.0137 34.7913 37.1924 35.4485 37.5038 36.0451C37.6201 35.9074 37.7545 35.7861 37.902 35.6812C38.1856 35.4763 38.5248 35.3649 38.8756 35.3633C39.4869 35.3813 40.049 35.6992 40.3817 36.2122C41.1422 37.3676 41.1422 38.864 40.3817 40.0194C40.049 40.534 39.4869 40.852 38.8756 40.8716C38.3232 40.8585 37.807 40.593 37.4743 40.1538C37.1318 39.7211 36.9122 39.2032 36.84 38.6558C36.4729 38.3789 36.1484 38.0478 35.8796 37.6741C35.1487 36.6285 34.7389 35.3944 34.6963 34.1193H33.9703C32.3101 34.1259 30.9661 35.4698 30.9612 37.13V62.1809C30.9661 63.8411 32.31 65.185 33.9703 65.1916H62.7859C64.4461 65.185 65.79 63.8411 65.795 62.1809V37.13C65.79 35.4698 64.4461 34.1258 62.7859 34.1193H55.9877C56.0188 34.7913 56.1971 35.4486 56.5101 36.0451ZM56.7134 39.141V39.1394C57.4001 39.4082 58.1605 39.4311 58.862 39.2033C58.9243 39.1836 58.9882 39.1607 59.0472 39.1377H59.0488C58.9849 39.3016 58.9013 39.4573 58.7997 39.5999C58.5998 39.9212 58.2572 40.126 57.8803 40.1506C57.5443 40.1326 57.2345 39.9654 57.0362 39.695C56.9002 39.5262 56.7904 39.3377 56.7134 39.1361L56.7134 39.141ZM59.2307 38.2511V38.2494C59.0455 38.3609 58.8489 38.451 58.6424 38.5166C58.3949 38.5953 58.1376 38.6362 57.8786 38.6362C56.897 38.5903 55.9988 38.0741 55.4645 37.2513C54.7581 36.2254 54.391 35.006 54.4156 33.7604C54.391 32.5165 54.7581 31.2971 55.4645 30.2712C55.966 29.414 56.8838 28.8863 57.8786 28.8863C58.8718 28.8863 59.7913 29.414 60.2928 30.2712C60.9319 31.1923 61.2925 32.2789 61.3335 33.3999H60.4993C60.4649 32.5427 60.2207 31.7085 59.7896 30.9677C59.4586 30.2089 58.708 29.7188 57.8803 29.7188C57.051 29.7188 56.302 30.2089 55.9693 30.9677C55.4809 31.815 55.2334 32.7803 55.2515 33.7588C55.2334 34.7355 55.4826 35.7009 55.9726 36.5482C56.3446 37.2726 57.0691 37.7463 57.882 37.7971C58.1966 37.7954 58.5048 37.7135 58.7801 37.5594C58.903 37.4922 59.0177 37.4136 59.1259 37.3251C59.1996 37.5824 59.2357 37.8495 59.2357 38.1166C59.2357 38.1609 59.2357 38.2051 59.2324 38.2478L59.2307 38.2511ZM58.8063 36.6466C58.6965 36.758 58.5703 36.8531 58.4342 36.9301C58.2638 37.0252 58.0737 37.076 57.8803 37.0776C57.5263 37.0629 57.1919 36.9072 56.9527 36.645C57.0526 36.5007 57.1772 36.3745 57.3198 36.2729C57.482 36.1533 57.6787 36.0877 57.8803 36.0861C58.2572 36.109 58.5997 36.3139 58.7997 36.6368L58.8063 36.6466ZM59.7749 33.3999V33.3982C59.7437 32.6755 59.5389 31.9724 59.1766 31.3463C58.9308 30.8399 58.4408 30.4974 57.8803 30.44C57.3214 30.4973 56.8297 30.8399 56.5839 31.3463C56.2233 31.9708 56.0185 32.6739 55.9857 33.395L59.7749 33.3999ZM53.7008 33.3999V33.3982C53.7435 32.1248 54.1532 30.889 54.8841 29.8434C55.5217 28.7994 56.6558 28.1619 57.8801 28.1619C59.1044 28.1619 60.2385 28.7994 60.876 29.8434C61.607 30.889 62.0167 32.1248 62.0593 33.3982H62.7854H62.7837C64.8439 33.4048 66.5123 35.0732 66.5188 37.1333V62.1808C66.5122 64.241 64.8438 65.9094 62.7837 65.9143H33.9698C31.9096 65.9094 30.2412 64.2409 30.2363 62.1808V37.13C30.2429 35.0698 31.9113 33.4014 33.9698 33.3965H34.6958C34.7384 32.1214 35.1482 30.8873 35.8791 29.8417C36.5461 28.8288 37.6623 28.2028 38.8751 28.1602C40.0862 28.2028 41.204 28.8289 41.871 29.8417C42.6003 30.8873 43.0117 32.1214 43.0543 33.3965H44.1983C44.2409 32.1214 44.6522 30.8873 45.3816 29.8417C46.0486 28.8288 47.1647 28.2028 48.3775 28.1602C49.5903 28.2028 50.7064 28.8289 51.3734 29.8417C52.1028 30.8873 52.5141 32.1214 52.5567 33.3965L53.7008 33.3999ZM47.2106 39.1378C47.8973 39.4066 48.6578 39.4279 49.3592 39.2017C49.4215 39.1821 49.4854 39.1591 49.5444 39.1362C49.4805 39.2984 49.3969 39.4541 49.2953 39.5967C49.097 39.9196 48.7545 40.1261 48.3775 40.1491C48.0415 40.1327 47.7318 39.9655 47.5319 39.6951C47.3958 39.5263 47.2877 39.3378 47.2106 39.1362L47.2106 39.1378ZM49.728 38.2479C49.5428 38.3593 49.3461 38.4495 49.1396 38.515C48.8938 38.5937 48.6365 38.633 48.3775 38.633C47.3959 38.5888 46.4977 38.0725 45.9634 37.2498C45.257 36.2238 44.8916 35.0028 44.9145 33.7589C44.8899 32.515 45.257 31.294 45.9634 30.2696C46.4977 29.4453 47.3959 28.929 48.3775 28.8831C49.3592 28.929 50.2574 29.4436 50.7917 30.268C51.4308 31.1891 51.793 32.2757 51.8324 33.395H50.9965C50.9621 32.5411 50.7179 31.707 50.2869 30.9678C49.9149 30.2434 49.1904 29.7697 48.3775 29.7189C47.5646 29.7697 46.8402 30.2434 46.4682 30.9678C45.9798 31.8151 45.7307 32.7804 45.7487 33.7588C45.7307 34.7356 45.9798 35.701 46.4682 36.5483C46.8386 37.2727 47.5646 37.748 48.3775 37.7988C48.6922 37.7971 49.0003 37.7152 49.2757 37.5611C49.3986 37.4939 49.5133 37.4153 49.6231 37.3268C49.6952 37.5841 49.7313 37.8496 49.7313 38.1167C49.7313 38.161 49.7313 38.2053 49.728 38.2479ZM49.3035 36.645C49.1921 36.7565 49.0675 36.8515 48.9299 36.9286C48.761 37.0236 48.5709 37.0728 48.3775 37.0744C48.0235 37.0597 47.6892 36.9056 47.4499 36.6434C47.5499 36.4992 47.6728 36.373 47.8154 36.2697C47.9793 36.1517 48.176 36.0862 48.3775 36.0845C48.7545 36.1075 49.097 36.3107 49.2953 36.6319L49.3035 36.6418L49.3035 36.645ZM50.2721 33.3967C50.2393 32.6755 50.0345 31.9708 49.6739 31.3464C49.4281 30.84 48.9364 30.4991 48.3775 30.4417C47.8187 30.4991 47.327 30.84 47.0812 31.3464C46.719 31.9708 46.5141 32.6739 46.483 33.3951L50.2721 33.3967ZM37.7066 39.138C38.395 39.4068 39.1538 39.4281 39.8569 39.2019C39.9192 39.1822 39.9831 39.1593 40.0421 39.1364C39.9782 39.2986 39.8946 39.4543 39.793 39.5969C39.5947 39.9181 39.2521 40.1246 38.8752 40.1476C38.5392 40.1312 38.2294 39.9657 38.0295 39.6953C37.8935 39.5265 37.7853 39.338 37.7066 39.1364L37.7066 39.138ZM40.224 38.2481C40.0388 38.3595 39.8421 38.4496 39.6373 38.5152C39.3898 38.5939 39.1325 38.6332 38.8719 38.6332C37.8919 38.589 36.9921 38.0727 36.4578 37.2499C35.7514 36.224 35.3859 35.003 35.4089 33.7591C35.3859 32.5151 35.7514 31.2941 36.4578 30.2698C36.9921 29.4454 37.8919 28.9308 38.8719 28.8849C39.8536 28.9308 40.7518 29.4454 41.286 30.2698C41.9268 31.1909 42.2874 32.2775 42.3268 33.3968H41.4942C41.4581 32.5413 41.2139 31.7088 40.7829 30.9679C40.4109 30.2452 39.6865 29.7699 38.8735 29.7191C38.0623 29.7699 37.3379 30.2452 36.9658 30.9679C36.4774 31.8153 36.2283 32.7806 36.2464 33.759C36.2283 34.7358 36.4775 35.7011 36.9658 36.5484C37.3379 37.2729 38.0623 37.7481 38.8752 37.7973C39.1899 37.7957 39.498 37.7137 39.7733 37.5597C39.8962 37.4925 40.0109 37.4138 40.1208 37.3253C40.1929 37.5826 40.2289 37.8498 40.2273 38.1169C40.2273 38.1611 40.2273 38.2055 40.224 38.2481ZM39.7995 36.6452C39.6897 36.7566 39.5652 36.8517 39.4275 36.9287C39.2587 37.0238 39.0686 37.073 38.8752 37.0746C38.5212 37.0599 38.1868 36.9058 37.9476 36.6436C38.0475 36.4994 38.1705 36.3732 38.313 36.2699C38.4769 36.1519 38.672 36.0864 38.8752 36.0847C39.2521 36.1077 39.5946 36.3109 39.793 36.6321L39.7995 36.6452Z" fill="#004773"/>
<path d="M31.7634 67.0385H30.9206C30.9052 66.9295 30.8738 66.8326 30.8263 66.7479C30.7788 66.662 30.7179 66.5889 30.6435 66.5286C30.5691 66.4683 30.4832 66.4221 30.3857 66.39C30.2895 66.358 30.1849 66.3419 30.072 66.3419C29.8681 66.3419 29.6904 66.3926 29.539 66.4939C29.3876 66.594 29.2703 66.7402 29.1869 66.9327C29.1035 67.1238 29.0618 67.356 29.0618 67.6292C29.0618 67.9102 29.1035 68.1462 29.1869 68.3373C29.2716 68.5285 29.3896 68.6728 29.5409 68.7703C29.6923 68.8678 29.8674 68.9165 30.0662 68.9165C30.1779 68.9165 30.2811 68.9018 30.376 68.8723C30.4723 68.8428 30.5576 68.7998 30.632 68.7433C30.7064 68.6856 30.7679 68.6157 30.8167 68.5336C30.8667 68.4515 30.9014 68.3579 30.9206 68.2527L31.7634 68.2565C31.7416 68.4374 31.6871 68.6119 31.5998 68.7799C31.5139 68.9467 31.3978 69.0961 31.2516 69.2282C31.1066 69.3591 30.9334 69.463 30.732 69.54C30.5319 69.6156 30.3055 69.6535 30.0528 69.6535C29.7013 69.6535 29.387 69.574 29.1099 69.4149C28.8341 69.2558 28.616 69.0256 28.4557 68.7241C28.2966 68.4226 28.2171 68.0577 28.2171 67.6292C28.2171 67.1995 28.2979 66.8339 28.4595 66.5324C28.6212 66.231 28.8405 66.0013 29.1176 65.8436C29.3947 65.6845 29.7064 65.605 30.0528 65.605C30.2811 65.605 30.4928 65.637 30.6878 65.7012C30.884 65.7653 31.0579 65.859 31.2092 65.9821C31.3606 66.104 31.4837 66.2534 31.5787 66.4304C31.6749 66.6075 31.7365 66.8102 31.7634 67.0385ZM32.3455 69.5996V66.644H33.1402V67.1597H33.171C33.2248 66.9763 33.3153 66.8377 33.4423 66.7441C33.5693 66.6492 33.7155 66.6017 33.881 66.6017C33.922 66.6017 33.9663 66.6043 34.0138 66.6094C34.0612 66.6145 34.1029 66.6216 34.1388 66.6306V67.3579C34.1003 67.3464 34.0471 67.3361 33.9791 67.3271C33.9111 67.3181 33.8489 67.3137 33.7925 67.3137C33.6719 67.3137 33.5641 67.3399 33.4692 67.3925C33.3756 67.4439 33.3012 67.5157 33.246 67.6081C33.1921 67.7004 33.1652 67.8069 33.1652 67.9275V69.5996H32.3455ZM35.772 69.6573C35.468 69.6573 35.2063 69.5958 34.9869 69.4726C34.7688 69.3482 34.6008 69.1724 34.4828 68.9454C34.3648 68.717 34.3058 68.447 34.3058 68.1353C34.3058 67.8313 34.3648 67.5644 34.4828 67.3348C34.6008 67.1052 34.7669 66.9262 34.9812 66.798C35.1967 66.6697 35.4494 66.6055 35.7393 66.6055C35.9343 66.6055 36.1158 66.637 36.2838 66.6998C36.4532 66.7614 36.6007 66.8544 36.7264 66.9788C36.8534 67.1033 36.9522 67.2598 37.0227 67.4483C37.0933 67.6356 37.1286 67.855 37.1286 68.1064V68.3316H34.6329V67.8236H36.357C36.357 67.7055 36.3313 67.601 36.28 67.5099C36.2287 67.4188 36.1575 67.3476 36.0664 67.2963C35.9766 67.2437 35.8721 67.2174 35.7528 67.2174C35.6283 67.2174 35.518 67.2463 35.4218 67.304C35.3269 67.3605 35.2525 67.4368 35.1986 67.533C35.1447 67.6279 35.1171 67.7338 35.1158 67.8505V68.3335C35.1158 68.4797 35.1428 68.6061 35.1967 68.7126C35.2518 68.819 35.3294 68.9011 35.4295 68.9588C35.5296 69.0166 35.6482 69.0454 35.7855 69.0454C35.8765 69.0454 35.9599 69.0326 36.0356 69.007C36.1113 68.9813 36.1761 68.9428 36.23 68.8915C36.2838 68.8402 36.3249 68.7773 36.3531 68.7029L37.1112 68.753C37.0728 68.9351 36.9939 69.0942 36.8746 69.2302C36.7566 69.3649 36.6039 69.47 36.4166 69.5457C36.2306 69.6201 36.0157 69.6573 35.772 69.6573ZM38.5063 69.6554C38.3177 69.6554 38.1497 69.6227 38.0022 69.5573C37.8546 69.4906 37.7379 69.3924 37.6519 69.2629C37.5673 69.132 37.525 68.9691 37.525 68.7741C37.525 68.6099 37.5551 68.472 37.6154 68.3604C37.6757 68.2488 37.7578 68.159 37.8617 68.091C37.9656 68.023 38.0836 67.9717 38.2157 67.9371C38.3492 67.9025 38.489 67.8781 38.6352 67.864C38.8071 67.846 38.9457 67.8293 39.0508 67.8139C39.156 67.7973 39.2324 67.7729 39.2798 67.7408C39.3273 67.7088 39.351 67.6613 39.351 67.5984V67.5869C39.351 67.465 39.3125 67.3707 39.2356 67.304C39.1599 67.2373 39.0521 67.204 38.9123 67.204C38.7648 67.204 38.6474 67.2367 38.5602 67.3021C38.4729 67.3662 38.4152 67.4471 38.387 67.5446L37.6289 67.483C37.6673 67.3034 37.743 67.1482 37.8559 67.0173C37.9688 66.8852 38.1144 66.7839 38.2927 66.7133C38.4723 66.6415 38.6801 66.6055 38.9162 66.6055C39.0804 66.6055 39.2375 66.6248 39.3876 66.6633C39.539 66.7018 39.673 66.7614 39.7897 66.8422C39.9078 66.923 40.0008 67.0269 40.0688 67.1539C40.1367 67.2797 40.1707 67.4304 40.1707 67.6061V69.5996H39.3934V69.1898H39.3703C39.3228 69.2821 39.2593 69.3636 39.1798 69.4341C39.1002 69.5034 39.0047 69.5579 38.8931 69.5977C38.7815 69.6362 38.6525 69.6554 38.5063 69.6554ZM38.7411 69.0897C38.8616 69.0897 38.9681 69.066 39.0605 69.0185C39.1528 68.9698 39.2253 68.9043 39.2779 68.8222C39.3305 68.7401 39.3568 68.6471 39.3568 68.5432V68.2296C39.3311 68.2463 39.2959 68.2616 39.251 68.2758C39.2074 68.2886 39.158 68.3008 39.1028 68.3123C39.0476 68.3226 38.9925 68.3322 38.9373 68.3412C38.8822 68.3489 38.8321 68.3559 38.7872 68.3623C38.691 68.3765 38.607 68.3989 38.5352 68.4297C38.4633 68.4605 38.4075 68.5022 38.3678 68.5548C38.328 68.6061 38.3081 68.6702 38.3081 68.7472C38.3081 68.8588 38.3485 68.9441 38.4293 69.0031C38.5114 69.0608 38.6153 69.0897 38.7411 69.0897ZM29.843 73.644V74.2598H28.0631V73.644H29.843ZM28.4672 72.9359H29.2869V75.6914C29.2869 75.7671 29.2985 75.8261 29.3216 75.8684C29.3447 75.9095 29.3767 75.9383 29.4178 75.955C29.4601 75.9717 29.5089 75.98 29.564 75.98C29.6025 75.98 29.641 75.9768 29.6795 75.9704C29.718 75.9627 29.7475 75.9569 29.768 75.9531L29.8969 76.563C29.8559 76.5759 29.7981 76.5906 29.7237 76.6073C29.6493 76.6253 29.5589 76.6362 29.4524 76.64C29.2549 76.6477 29.0817 76.6214 28.9329 76.5611C28.7854 76.5008 28.6706 76.4072 28.5885 76.2802C28.5064 76.1532 28.4659 75.9928 28.4672 75.7991V72.9359ZM31.6922 76.6573C31.3882 76.6573 31.1265 76.5958 30.9071 76.4726C30.689 76.3482 30.521 76.1724 30.403 75.9454C30.285 75.717 30.226 75.447 30.226 75.1353C30.226 74.8313 30.285 74.5644 30.403 74.3348C30.521 74.1052 30.6871 73.9262 30.9014 73.798C31.1169 73.6697 31.3696 73.6055 31.6595 73.6055C31.8545 73.6055 32.036 73.637 32.204 73.6998C32.3734 73.7614 32.5209 73.8544 32.6466 73.9788C32.7736 74.1033 32.8724 74.2598 32.9429 74.4483C33.0135 74.6356 33.0488 74.855 33.0488 75.1064V75.3316H30.5531V74.8236H32.2772C32.2772 74.7055 32.2515 74.601 32.2002 74.5099C32.1489 74.4188 32.0777 74.3476 31.9866 74.2963C31.8968 74.2437 31.7923 74.2174 31.673 74.2174C31.5485 74.2174 31.4382 74.2463 31.342 74.304C31.2471 74.3605 31.1727 74.4368 31.1188 74.533C31.0649 74.6279 31.0373 74.7338 31.036 74.8505V75.3335C31.036 75.4797 31.063 75.6061 31.1169 75.7126C31.172 75.819 31.2496 75.9011 31.3497 75.9588C31.4498 76.0166 31.5684 76.0454 31.7057 76.0454C31.7968 76.0454 31.8801 76.0326 31.9558 76.007C32.0315 75.9813 32.0963 75.9428 32.1502 75.8915C32.204 75.8402 32.2451 75.7773 32.2733 75.7029L33.0314 75.753C32.993 75.9351 32.9141 76.0942 32.7948 76.2302C32.6768 76.3649 32.5241 76.47 32.3368 76.5457C32.1508 76.6201 31.9359 76.6573 31.6922 76.6573ZM34.6728 76.6477C34.4483 76.6477 34.245 76.59 34.0628 76.4745C33.8819 76.3578 33.7383 76.1865 33.6318 75.9608C33.5266 75.7337 33.474 75.4553 33.474 75.1257C33.474 74.787 33.5285 74.5054 33.6376 74.2809C33.7466 74.0552 33.8916 73.8865 34.0724 73.7749C34.2546 73.662 34.4541 73.6055 34.6709 73.6055C34.8364 73.6055 34.9743 73.6338 35.0846 73.6902C35.1962 73.7454 35.286 73.8146 35.354 73.898C35.4232 73.9801 35.4758 74.0609 35.5118 74.1405H35.5368V72.6588H36.3546V76.5996H35.5464V76.1263H35.5118C35.4733 76.2084 35.4187 76.2898 35.3482 76.3706C35.2789 76.4502 35.1885 76.5162 35.0769 76.5688C34.9666 76.6214 34.8319 76.6477 34.6728 76.6477ZM34.9326 75.9954C35.0647 75.9954 35.1763 75.9595 35.2674 75.8877C35.3597 75.8145 35.4303 75.7126 35.479 75.5817C35.5291 75.4509 35.5541 75.2976 35.5541 75.1218C35.5541 74.9461 35.5297 74.7934 35.481 74.6639C35.4322 74.5343 35.3617 74.4342 35.2693 74.3637C35.1769 74.2931 35.0647 74.2579 34.9326 74.2579C34.7979 74.2579 34.6843 74.2944 34.592 74.3675C34.4996 74.4406 34.4297 74.542 34.3822 74.6716C34.3348 74.8011 34.311 74.9512 34.311 75.1218C34.311 75.2937 34.3348 75.4457 34.3822 75.5779C34.431 75.7087 34.5009 75.8113 34.592 75.8857C34.6843 75.9588 34.7979 75.9954 34.9326 75.9954ZM38.298 76.5996V72.6588H39.1177V74.1405H39.1427C39.1786 74.0609 39.2306 73.9801 39.2986 73.898C39.3679 73.8146 39.4577 73.7454 39.568 73.6902C39.6796 73.6338 39.8181 73.6055 39.9836 73.6055C40.1991 73.6055 40.398 73.662 40.5801 73.7749C40.7623 73.8865 40.9079 74.0552 41.0169 74.2809C41.1259 74.5054 41.1805 74.787 41.1805 75.1257C41.1805 75.4553 41.1272 75.7337 41.0208 75.9608C40.9156 76.1865 40.7719 76.3578 40.5897 76.4745C40.4089 76.59 40.2062 76.6477 39.9817 76.6477C39.8226 76.6477 39.6873 76.6214 39.5757 76.5688C39.4654 76.5162 39.3749 76.4502 39.3044 76.3706C39.2338 76.2898 39.1799 76.2084 39.1427 76.1263H39.1062V76.5996H38.298ZM39.1004 75.1218C39.1004 75.2976 39.1248 75.4509 39.1735 75.5817C39.2223 75.7126 39.2928 75.8145 39.3852 75.8877C39.4775 75.9595 39.5898 75.9954 39.7219 75.9954C39.8553 75.9954 39.9682 75.9588 40.0606 75.8857C40.1529 75.8113 40.2229 75.7087 40.2703 75.5779C40.3191 75.4457 40.3434 75.2937 40.3434 75.1218C40.3434 74.9512 40.3197 74.8011 40.2722 74.6716C40.2248 74.542 40.1549 74.4406 40.0625 74.3675C39.9701 74.2944 39.8566 74.2579 39.7219 74.2579C39.5885 74.2579 39.4756 74.2931 39.3833 74.3637C39.2922 74.4342 39.2223 74.5343 39.1735 74.6639C39.1248 74.7934 39.1004 74.9461 39.1004 75.1218ZM42.1382 77.708C42.0343 77.708 41.9368 77.6996 41.8458 77.6829C41.756 77.6675 41.6816 77.6477 41.6225 77.6233L41.8073 77.0114C41.9035 77.0409 41.9901 77.0569 42.067 77.0595C42.1453 77.0621 42.2126 77.0441 42.2691 77.0056C42.3268 76.9671 42.3736 76.9017 42.4096 76.8093L42.4577 76.6843L41.3974 73.644H42.2595L42.8714 75.8145H42.9021L43.5198 73.644H44.3876L43.2389 76.919C43.1837 77.0781 43.1087 77.2166 43.0138 77.3347C42.9201 77.454 42.8014 77.5457 42.6578 77.6098C42.5141 77.6752 42.3409 77.708 42.1382 77.708ZM28.2864 83.5996V79.6588H29.8642C30.1541 79.6588 30.3959 79.7018 30.5896 79.7878C30.7833 79.8737 30.9289 79.993 31.0264 80.1457C31.1239 80.297 31.1727 80.4715 31.1727 80.669C31.1727 80.823 31.1419 80.9583 31.0803 81.0751C31.0187 81.1905 30.9341 81.2854 30.8263 81.3598C30.7198 81.433 30.598 81.4849 30.4607 81.5157V81.5542C30.6108 81.5606 30.7513 81.6029 30.8821 81.6812C31.0142 81.7594 31.1214 81.8691 31.2035 82.0102C31.2856 82.15 31.3266 82.3168 31.3266 82.5105C31.3266 82.7196 31.2746 82.9063 31.1707 83.0705C31.0681 83.2334 30.9161 83.3623 30.7147 83.4572C30.5133 83.5521 30.2651 83.5996 29.97 83.5996H28.2864ZM29.1195 82.9184H29.7988C30.031 82.9184 30.2003 82.8742 30.3068 82.7857C30.4132 82.6959 30.4665 82.5766 30.4665 82.4278C30.4665 82.3187 30.4402 82.2225 30.3876 82.1391C30.335 82.0558 30.26 81.9903 30.1625 81.9429C30.0662 81.8954 29.9514 81.8717 29.818 81.8717H29.1195V82.9184ZM29.1195 81.3079H29.7372C29.8514 81.3079 29.9527 81.288 30.0412 81.2482C30.131 81.2072 30.2016 81.1495 30.2529 81.0751C30.3055 81.0006 30.3318 80.9115 30.3318 80.8076C30.3318 80.6652 30.2811 80.5504 30.1798 80.4632C30.0797 80.3759 29.9373 80.3323 29.7526 80.3323H29.1195V81.3079ZM32.548 83.5996H31.6552L33.0156 79.6588H34.0893L35.4478 83.5996H34.5549L33.5678 80.5594H33.537L32.548 83.5996ZM32.4922 82.0506H34.6011V82.701H32.4922V82.0506ZM35.9221 79.6588H36.9496L38.0349 82.3065H38.081L39.1663 79.6588H40.1938V83.5996H39.3857V81.0346H39.3529L38.3331 83.5804H37.7828L36.763 81.025H36.7303V83.5996H35.9221V79.6588ZM40.8803 83.5996V79.6588H42.4581C42.7481 79.6588 42.9899 79.7018 43.1836 79.7878C43.3773 79.8737 43.5229 79.993 43.6204 80.1457C43.7179 80.297 43.7666 80.4715 43.7666 80.669C43.7666 80.823 43.7358 80.9583 43.6742 81.0751C43.6127 81.1905 43.528 81.2854 43.4202 81.3598C43.3138 81.433 43.1919 81.4849 43.0546 81.5157V81.5542C43.2047 81.5606 43.3452 81.6029 43.476 81.6812C43.6082 81.7594 43.7153 81.8691 43.7974 82.0102C43.8795 82.15 43.9205 82.3168 43.9205 82.5105C43.9205 82.7196 43.8686 82.9063 43.7647 83.0705C43.662 83.2334 43.51 83.3623 43.3086 83.4572C43.1072 83.5521 42.859 83.5996 42.564 83.5996H40.8803ZM41.7135 82.9184H42.3927C42.6249 82.9184 42.7942 82.8742 42.9007 82.7857C43.0072 82.6959 43.0604 82.5766 43.0604 82.4278C43.0604 82.3187 43.0341 82.2225 42.9815 82.1391C42.9289 82.0558 42.8539 81.9903 42.7564 81.9429C42.6602 81.8954 42.5454 81.8717 42.412 81.8717H41.7135V82.9184ZM41.7135 81.3079H42.3311C42.4453 81.3079 42.5467 81.288 42.6352 81.2482C42.725 81.2072 42.7955 81.1495 42.8468 81.0751C42.8994 81.0006 42.9257 80.9115 42.9257 80.8076C42.9257 80.6652 42.875 80.5504 42.7737 80.4632C42.6736 80.3759 42.5313 80.3323 42.3465 80.3323H41.7135V81.3079ZM28.9656 90.5996H28.0728L29.4332 86.6588H30.5069L31.8654 90.5996H30.9725L29.9854 87.5594H29.9546L28.9656 90.5996ZM28.9098 89.0506H31.0187V89.701H28.9098V89.0506ZM35.6359 86.6588V90.5996H34.9162L33.2017 88.1193H33.1729V90.5996H32.3397V86.6588H33.0709L34.7719 89.1372H34.8065V86.6588H35.6359ZM38.9373 87.9327C38.9104 87.839 38.8725 87.7563 38.8238 87.6844C38.775 87.6113 38.7154 87.5497 38.6448 87.4997C38.5756 87.4484 38.496 87.4093 38.4062 87.3823C38.3177 87.3554 38.2196 87.3419 38.1118 87.3419C37.9104 87.3419 37.7334 87.392 37.5808 87.492C37.4294 87.5921 37.3114 87.7377 37.2267 87.9288C37.142 88.1187 37.0997 88.3509 37.0997 88.6254C37.0997 88.8999 37.1414 89.1334 37.2248 89.3258C37.3082 89.5182 37.4262 89.6651 37.5788 89.7664C37.7315 89.8665 37.9117 89.9165 38.1195 89.9165C38.3081 89.9165 38.4691 89.8832 38.6025 89.8165C38.7372 89.7485 38.8398 89.6529 38.9104 89.5298C38.9822 89.4066 39.0181 89.261 39.0181 89.093L39.1875 89.118H38.1715V88.4907H39.8205V88.9871C39.8205 89.3335 39.7474 89.6311 39.6012 89.88C39.4549 90.1275 39.2535 90.3187 38.997 90.4534C38.7404 90.5868 38.4466 90.6535 38.1157 90.6535C37.7462 90.6535 37.4217 90.572 37.142 90.4091C36.8624 90.2449 36.6443 90.0121 36.4878 89.7106C36.3326 89.4079 36.255 89.0487 36.255 88.6331C36.255 88.3137 36.3012 88.0289 36.3935 87.7787C36.4872 87.5273 36.618 87.3143 36.7861 87.1399C36.9541 86.9654 37.1497 86.8327 37.3729 86.7416C37.5961 86.6505 37.838 86.605 38.0984 86.605C38.3216 86.605 38.5294 86.6377 38.7218 86.7031C38.9142 86.7672 39.0848 86.8583 39.2336 86.9763C39.3837 87.0943 39.5062 87.2348 39.6012 87.3977C39.6961 87.5594 39.757 87.7377 39.784 87.9327H38.9373ZM44.3136 87.9327C44.2866 87.839 44.2488 87.7563 44.2 87.6844C44.1513 87.6113 44.0916 87.5497 44.0211 87.4997C43.9518 87.4484 43.8723 87.4093 43.7825 87.3823C43.694 87.3554 43.5958 87.3419 43.4881 87.3419C43.2867 87.3419 43.1096 87.392 42.957 87.492C42.8056 87.5921 42.6876 87.7377 42.6029 87.9288C42.5183 88.1187 42.4759 88.3509 42.4759 88.6254C42.4759 88.8999 42.5176 89.1334 42.601 89.3258C42.6844 89.5182 42.8024 89.6651 42.9551 89.7664C43.1077 89.8665 43.288 89.9165 43.4958 89.9165C43.6843 89.9165 43.8453 89.8832 43.9787 89.8165C44.1134 89.7485 44.2161 89.6529 44.2866 89.5298C44.3585 89.4066 44.3944 89.261 44.3944 89.093L44.5637 89.118H43.5477V88.4907H45.1968V88.9871C45.1968 89.3335 45.1236 89.6311 44.9774 89.88C44.8312 90.1275 44.6298 90.3187 44.3732 90.4534C44.1166 90.5868 43.8229 90.6535 43.4919 90.6535C43.1225 90.6535 42.7979 90.572 42.5183 90.4091C42.2386 90.2449 42.0205 90.0121 41.864 89.7106C41.7088 89.4079 41.6312 89.0487 41.6312 88.6331C41.6312 88.3137 41.6774 88.0289 41.7698 87.7787C41.8634 87.5273 41.9942 87.3143 42.1623 87.1399C42.3303 86.9654 42.526 86.8327 42.7492 86.7416C42.9724 86.6505 43.2142 86.605 43.4746 86.605C43.6978 86.605 43.9056 86.6377 44.098 86.7031C44.2905 86.7672 44.4611 86.8583 44.6099 86.9763C44.76 87.0943 44.8825 87.2348 44.9774 87.3977C45.0723 87.5594 45.1333 87.7377 45.1602 87.9327H44.3136Z" fill="#004773"/>
</g>
<defs>
<clipPath id="clip0_699_2715">
<rect width="40" height="42" fill="white" transform="translate(26.5186 24.6006)"/>
</clipPath>
</defs>
</svg>
