<svg width="40" height="40" viewBox="0 0 40 40" fill="none" xmlns="http://www.w3.org/2000/svg">
<rect width="40" height="40" rx="8" fill="#3A78F2" fill-opacity="0.1"/>
<g clip-path="url(#clip0_2164_12124)">
<path fill-rule="evenodd" clip-rule="evenodd" d="M19.995 24.9562C16.9897 24.9562 14.5328 22.5098 14.5328 19.4939C14.5328 16.4887 16.9897 14.0317 19.995 14.0317C23.0108 14.0317 25.4572 16.4887 25.4572 19.4939C25.4572 22.5098 23.0108 24.9562 19.995 24.9562ZM16.589 14.0001C16.4414 14.0001 16.2938 13.9263 16.2199 13.7892L15.3447 12.2813C15.0706 11.8068 15.7981 11.385 16.0723 11.8595L16.9475 13.3674C17.1162 13.6521 16.9054 14.0001 16.589 14.0001ZM14.0793 16.5098C14.0161 16.5098 13.9423 16.4887 13.8684 16.4465L12.3605 15.5713C12.1602 15.4553 12.0864 15.2022 12.2024 15.0019C12.3289 14.8015 12.582 14.7277 12.7823 14.8437L14.2902 15.7189C14.6699 15.9298 14.5117 16.5098 14.0793 16.5098ZM13.1725 19.9157H11.422C10.8737 19.9157 10.8632 19.0722 11.422 19.0722H13.1725C13.7208 19.0722 13.7208 19.9157 13.1725 19.9157ZM12.5714 24.2075C12.1496 24.2075 11.9915 23.6381 12.3605 23.4166L13.8684 22.5519C14.3535 22.2672 14.7753 22.9948 14.2902 23.2795L12.7823 24.1548C12.7191 24.1864 12.6452 24.2075 12.5714 24.2075ZM15.7138 27.3498C15.3869 27.3498 15.1865 26.9913 15.3447 26.7171L16.2199 25.1987C16.4941 24.7242 17.2217 25.146 16.9475 25.6205L16.0723 27.1389C15.9985 27.2655 15.8614 27.3498 15.7138 27.3498ZM19.995 28.4887C19.763 28.4887 19.5732 28.3094 19.5732 28.0774V26.327C19.5732 25.7681 20.4168 25.7681 20.4168 26.327V28.0669C20.4168 28.3094 20.227 28.4887 19.995 28.4887ZM24.2867 27.3498C24.1391 27.3498 24.002 27.2655 23.9177 27.1389L23.053 25.6205C22.7683 25.146 23.4959 24.7242 23.7806 25.1987L24.6558 26.7171C24.814 26.9913 24.6031 27.3498 24.2867 27.3498ZM27.4291 24.2075C27.3553 24.2075 27.2815 24.1864 27.2182 24.1548L25.6997 23.2795C25.2252 22.9948 25.647 22.2672 26.1215 22.5519L27.64 23.4166C28.009 23.6381 27.8509 24.2075 27.4291 24.2075ZM28.5785 19.9157H26.828C26.2691 19.9157 26.2691 19.0722 26.828 19.0722H28.5785C29.1268 19.0722 29.1268 19.9157 28.5785 19.9157ZM25.9106 16.5098C25.4888 16.5098 25.3307 15.9298 25.6997 15.7189L27.2182 14.8437C27.6927 14.5695 28.1145 15.2971 27.64 15.5713L26.1215 16.4465C26.0583 16.4887 25.9844 16.5098 25.9106 16.5098ZM23.4115 14.0001C23.0952 14.0001 22.8843 13.6521 23.053 13.3674L23.9177 11.8595C24.2024 11.385 24.93 11.8068 24.6558 12.2813L23.7806 13.7892C23.6962 13.9263 23.5591 14.0001 23.4115 14.0001ZM19.995 13.0932C19.763 13.0932 19.5732 12.9034 19.5732 12.6715V10.921C19.5732 10.3727 20.4168 10.3727 20.4168 10.921V12.6715C20.4168 12.9034 20.227 13.0932 19.995 13.0932ZM18.3289 22.6679C18.5398 22.6679 18.6136 22.3832 18.4238 22.2778C17.4326 21.7084 16.8104 20.6433 16.8104 19.4939C16.8104 19.2198 16.3887 19.2198 16.3887 19.4939C16.3887 20.8015 17.0846 22.0036 18.2235 22.6468C18.2551 22.6679 18.2867 22.6679 18.3289 22.6679Z" fill="#3498DB"/>
</g>
<defs>
<clipPath id="clip0_2164_12124">
<rect width="18" height="18" fill="white" transform="translate(11 10.5)"/>
</clipPath>
</defs>
</svg>
