<svg width="40" height="40" viewBox="0 0 40 40" fill="none" xmlns="http://www.w3.org/2000/svg">
<rect width="40" height="40" rx="8" fill="#3A78F2" fill-opacity="0.1"/>
<path fill-rule="evenodd" clip-rule="evenodd" d="M19.7188 14.666C19.7188 14.5107 19.8447 14.3848 20 14.3848C20.1553 14.3848 20.2812 14.5107 20.2812 14.666V16.4292C20.2812 16.5845 20.1553 16.7105 20 16.7105C19.8447 16.7105 19.7188 16.5845 19.7188 16.4292V14.666ZM24.3717 22.0013C23.883 20.0415 22.1112 18.5895 20 18.5895C17.8888 18.5895 16.117 20.0415 15.6282 22.0013H24.3717V22.0013ZM20.7088 26.6138C20.5535 26.6138 20.4275 26.4879 20.4275 26.3325C20.4275 26.1772 20.5535 26.0513 20.7088 26.0513H23.8146C23.9699 26.0513 24.0958 26.1772 24.0958 26.3325C24.0958 26.4879 23.9699 26.6138 23.8146 26.6138H20.7088ZM14.0875 24.87C13.9321 24.87 13.8062 24.7441 13.8062 24.5888C13.8062 24.4335 13.9321 24.3075 14.0875 24.3075H17.739C17.8943 24.3075 18.0202 24.4335 18.0202 24.5888C18.0202 24.7441 17.8943 24.87 17.739 24.87H14.0875ZM16.1854 26.6138C16.0301 26.6138 15.9042 26.4879 15.9042 26.3325C15.9042 26.1772 16.0301 26.0513 16.1854 26.0513H18.9378C19.0931 26.0513 19.219 26.1772 19.219 26.3325C19.219 26.4879 19.0931 26.6138 18.9378 26.6138H16.1854ZM19.6462 24.87C19.4909 24.87 19.365 24.7441 19.365 24.5888C19.365 24.4335 19.4909 24.3075 19.6462 24.3075H25.9126C26.0679 24.3075 26.1938 24.4335 26.1938 24.5888C26.1938 24.7441 26.0679 24.87 25.9126 24.87H19.6462ZM11.2812 23.1263C11.1259 23.1263 11 23.0003 11 22.845C11 22.6897 11.1259 22.5638 11.2812 22.5638H28.7188C28.8741 22.5638 29 22.6897 29 22.845C29 23.0003 28.8741 23.1263 28.7188 23.1263H11.2812ZM12.7762 18.9983C12.6421 18.9207 12.5963 18.749 12.674 18.6149C12.7517 18.4808 12.9233 18.4351 13.0574 18.5127L14.5844 19.3944C14.7185 19.472 14.7642 19.6437 14.6866 19.7778C14.6089 19.9119 14.4372 19.9576 14.3031 19.8799L12.7762 18.9983ZM15.6677 15.9013C15.5907 15.7672 15.6369 15.596 15.771 15.519C15.9051 15.4419 16.0763 15.4881 16.1533 15.6223L17.0349 17.1492C17.112 17.2833 17.0657 17.4545 16.9316 17.5316C16.7975 17.6086 16.6264 17.5624 16.5493 17.4283L15.6677 15.9013ZM23.8467 15.6212C23.9244 15.4871 24.096 15.4414 24.2301 15.519C24.3642 15.5967 24.4099 15.7683 24.3323 15.9024L23.4507 17.4294C23.373 17.5635 23.2014 17.6092 23.0673 17.5316C22.9332 17.4539 22.8875 17.2822 22.9651 17.1482L23.8467 15.6212ZM26.9426 18.5127C27.0767 18.435 27.2483 18.4808 27.326 18.6149C27.4037 18.749 27.3579 18.9206 27.2238 18.9983L25.6969 19.8799C25.5628 19.9576 25.3911 19.9118 25.3134 19.7777C25.2358 19.6436 25.2815 19.472 25.4156 19.3943L26.9426 18.5127Z" fill="#3498DB"/>
</svg>
