<svg width="92" height="92" viewBox="0 0 92 92" fill="none" xmlns="http://www.w3.org/2000/svg">
<rect x="0.164062" width="91.1642" height="91.1642" rx="45.5821" fill="#FFE9D2"/>
<path d="M50.9912 38.5887C50.3881 38.5897 49.786 38.6384 49.1906 38.7344C47.5364 37.0525 45.4287 35.8883 43.1244 35.3837L46.1779 31.9864C46.2515 31.906 46.3009 31.8065 46.3205 31.6993C46.3401 31.5921 46.329 31.4816 46.2886 31.3804L45.1231 28.4667C45.0799 28.3583 45.0052 28.2653 44.9086 28.1999C44.812 28.1344 44.6979 28.0995 44.5812 28.0996H36.423C36.3063 28.0995 36.1923 28.1344 36.0957 28.1999C35.999 28.2653 35.9243 28.3583 35.8811 28.4667L34.7156 31.3804C34.6752 31.4816 34.6642 31.5921 34.6838 31.6993C34.7033 31.8065 34.7528 31.906 34.8264 31.9864L37.8798 35.3837C34.9327 36.0291 32.328 37.7408 30.5662 40.19C28.8044 42.6391 28.0098 45.653 28.335 48.6524C28.6602 51.6518 30.0824 54.4253 32.3282 56.4399C34.574 58.4545 37.4851 59.5681 40.5021 59.5668C41.1052 59.5658 41.7073 59.5171 42.3027 59.4211C43.433 60.5794 44.7846 61.4987 46.2771 62.1244C47.7697 62.7501 49.3728 63.0693 50.9912 63.0631C54.2367 63.0631 57.3493 61.7739 59.6442 59.4789C61.9391 57.184 63.2284 54.0714 63.2284 50.8259C63.2284 47.5804 61.9391 44.4678 59.6442 42.1729C57.3493 39.8779 54.2367 38.5887 50.9912 38.5887ZM43.812 29.2651H44.1849L44.8842 31.0132H43.1127L43.812 29.2651ZM44.4413 32.1787L41.8016 35.1098L42.6815 32.1787H44.4413ZM42.5533 29.2651L41.854 31.0132H39.1502L38.4509 29.2651H42.5533ZM41.4694 32.1787L40.5895 35.0981H40.4147L39.5348 32.1787H41.4694ZM36.8193 29.2651H37.1922L37.8915 31.0132H36.12L36.8193 29.2651ZM36.5629 32.1787H38.3227L39.2026 35.1098L36.5629 32.1787ZM40.5021 58.4013C37.6562 58.4094 34.9166 57.3213 32.8517 55.3628C30.7869 53.4044 29.5554 50.7261 29.4129 47.8838C29.2705 45.0415 30.228 42.2535 32.0867 40.0984C33.9454 37.9434 36.5625 36.5868 39.3949 36.3102C40.1314 36.2403 40.8728 36.2403 41.6093 36.3102C44.2666 36.5763 46.7369 37.798 48.5612 39.7483C50.5011 41.7951 51.5798 44.5095 51.5739 47.3296C51.5814 49.3287 51.0432 51.292 50.0174 53.0078C48.9916 54.7237 47.517 56.1271 45.7525 57.0669C45.2852 56.6783 44.863 56.2385 44.4938 55.7558C46.0841 54.9936 47.4277 53.7991 48.3706 52.3089C49.3136 50.8187 49.8179 49.093 49.8257 47.3296C49.8229 44.8576 48.8397 42.4877 47.0918 40.7398C45.3439 38.9919 42.974 38.0087 40.5021 38.0059C38.0514 38.0025 35.6979 38.9645 33.9513 40.6837C32.2047 42.4029 31.2057 44.7409 31.1704 47.1914C31.1352 49.6419 32.0666 52.0077 33.763 53.7764C35.4594 55.5451 37.7842 56.5745 40.2341 56.6415C40.5609 57.2464 40.9371 57.8233 41.3587 58.3664C41.079 58.3839 40.7935 58.4013 40.5021 58.4013ZM51.8303 42.7085C53.9151 42.9177 55.8394 43.921 57.2046 45.5104C58.5698 47.0998 59.2711 49.1536 59.1632 51.246C59.0553 53.3385 58.1465 55.3092 56.6251 56.7498C55.1037 58.1904 53.0864 58.9904 50.9912 58.9841C49.5139 58.9889 48.064 58.5856 46.8014 57.8186C49.3068 56.3164 51.1913 53.9666 52.1138 51.1948C53.0363 48.423 52.9358 45.4126 51.8303 42.7085ZM43.8528 54.7651C43.1818 53.5608 42.8307 52.2046 42.833 50.8259C42.8407 49.2568 43.2975 47.7228 44.1495 46.4051C45.0014 45.0875 46.2128 44.0413 47.6405 43.3903C48.3115 44.5947 48.6626 45.9509 48.6603 47.3296C48.6526 48.8986 48.1957 50.4327 47.3438 51.7503C46.4919 53.068 45.2805 54.1141 43.8528 54.7651ZM39.663 55.4469C37.5782 55.2378 35.6539 54.2345 34.2887 52.6451C32.9235 51.0557 32.2222 49.0019 32.3301 46.9095C32.438 44.817 33.3468 42.8463 34.8682 41.4057C36.3896 39.9651 38.4069 39.1651 40.5021 39.1714C41.9794 39.1666 43.4293 39.5699 44.6919 40.3368C42.1865 41.8391 40.3019 44.1889 39.3794 46.9607C38.457 49.7324 38.5575 52.7429 39.663 55.4469ZM50.9912 61.8977C48.5265 61.8991 46.1319 61.0775 44.1872 59.5634C42.2424 58.0492 40.8589 55.9292 40.2559 53.5394C39.6529 51.1496 39.8651 48.6269 40.8587 46.3714C41.8523 44.1159 43.5705 42.2566 45.7408 41.0886C46.2081 41.4772 46.6303 41.917 46.9995 42.3997C45.4092 43.1618 44.0656 44.3564 43.1226 45.8466C42.1797 47.3368 41.6754 49.0624 41.6676 50.8259C41.6703 53.2978 42.6535 55.6677 44.4015 57.4156C46.1494 59.1635 48.5193 60.1467 50.9912 60.1495C53.4419 60.153 55.7954 59.1909 57.542 57.4717C59.2885 55.7525 60.2876 53.4145 60.3229 50.964C60.3581 48.5135 59.4267 46.1478 57.7303 44.379C56.0339 42.6103 53.7091 41.581 51.2592 41.514C50.9324 40.9091 50.5562 40.3322 50.1346 39.7891C50.4143 39.7716 50.6998 39.7541 50.9912 39.7541C53.9276 39.7541 56.7437 40.9206 58.8201 42.997C60.8965 45.0733 62.063 47.8895 62.063 50.8259C62.063 53.7623 60.8965 56.5785 58.8201 58.6548C56.7437 60.7312 53.9276 61.8977 50.9912 61.8977Z" fill="#C56305"/>
</svg>
