<svg width="40" height="40" viewBox="0 0 40 40" fill="none" xmlns="http://www.w3.org/2000/svg">
<rect width="40" height="40" rx="8" fill="#3A78F2" fill-opacity="0.1"/>
<g clip-path="url(#clip0_2164_12165)">
<path d="M21.3666 17.317L21.0906 16.2177C21.089 16.2102 21.085 16.2036 21.0791 16.1988C21.0732 16.194 21.0658 16.1914 21.0583 16.1914C21.0507 16.1914 21.0433 16.194 21.0374 16.1988C21.0315 16.2036 21.0275 16.2102 21.0259 16.2177L20.7499 17.317C20.7049 17.4987 20.6111 17.6647 20.4788 17.7971C20.3464 17.9295 20.1804 18.0233 19.9986 18.0683L18.8993 18.3443C18.8919 18.3458 18.8852 18.3499 18.8804 18.3558C18.8757 18.3617 18.873 18.369 18.873 18.3766C18.873 18.3842 18.8757 18.3916 18.8804 18.3975C18.8852 18.4033 18.8919 18.4074 18.8993 18.409L19.9986 18.6849C20.1804 18.73 20.3464 18.8237 20.4788 18.9561C20.6111 19.0885 20.7049 19.2545 20.7499 19.4362L21.0259 20.5366C21.0275 20.544 21.0315 20.5507 21.0374 20.5555C21.0433 20.5603 21.0507 20.5629 21.0583 20.5629C21.0658 20.5629 21.0732 20.5603 21.0791 20.5555C21.085 20.5507 21.089 20.544 21.0906 20.5366L21.3666 19.4373C21.4116 19.2556 21.5054 19.0896 21.6378 18.9572C21.7701 18.8248 21.9361 18.731 22.1179 18.686L23.2172 18.41C23.2246 18.4085 23.2313 18.4044 23.2361 18.3985C23.2409 18.3926 23.2435 18.3853 23.2435 18.3777C23.2435 18.3701 23.2409 18.3627 23.2361 18.3568C23.2313 18.3509 23.2246 18.3469 23.2172 18.3453L22.1179 18.0694C21.936 18.0242 21.7699 17.9303 21.6375 17.7977C21.5051 17.6651 21.4114 17.4989 21.3666 17.317Z" fill="#3498DB"/>
<path d="M24.8242 13.061L24.0188 12.8588C23.8858 12.8259 23.7643 12.7573 23.6673 12.6605C23.5704 12.5637 23.5017 12.4423 23.4686 12.3093L23.2664 11.5028C23.2651 11.4976 23.2621 11.4929 23.2578 11.4895C23.2536 11.4862 23.2483 11.4844 23.2429 11.4844C23.2374 11.4844 23.2322 11.4862 23.2279 11.4895C23.2236 11.4929 23.2206 11.4976 23.2193 11.5028L23.0165 12.3093C22.9835 12.4425 22.9149 12.5641 22.818 12.6611C22.721 12.7582 22.5994 12.8269 22.4663 12.8599L21.6608 13.062C21.6554 13.0632 21.6505 13.0662 21.647 13.0705C21.6435 13.0748 21.6416 13.0802 21.6416 13.0857C21.6416 13.0913 21.6435 13.0967 21.647 13.101C21.6505 13.1053 21.6554 13.1083 21.6608 13.1095L22.4663 13.3116C22.5993 13.3445 22.7208 13.4131 22.8177 13.5099C22.9147 13.6067 22.9834 13.7282 23.0165 13.8611L23.219 14.6648C23.2203 14.6701 23.2233 14.6747 23.2275 14.6781C23.2318 14.6814 23.2371 14.6832 23.2425 14.6832C23.2479 14.6832 23.2532 14.6814 23.2575 14.6781C23.2617 14.6747 23.2648 14.6701 23.2661 14.6648L23.4682 13.8594C23.5012 13.7262 23.5699 13.6045 23.6669 13.5075C23.7639 13.4105 23.8856 13.3418 24.0188 13.3088L24.8242 13.1067C24.8289 13.105 24.833 13.1019 24.8359 13.0978C24.8388 13.0937 24.8403 13.0888 24.8403 13.0838C24.8403 13.0788 24.8388 13.0739 24.8359 13.0698C24.833 13.0657 24.8289 13.0626 24.8242 13.061Z" fill="#3498DB"/>
<path d="M24.0631 20.0014L24.8685 20.2035C25.0017 20.2365 25.1234 20.3052 25.2204 20.4022C25.3174 20.4992 25.3861 20.6209 25.4191 20.754L25.6212 21.5595C25.6225 21.5647 25.6256 21.5694 25.6298 21.5728C25.6341 21.5761 25.6394 21.5779 25.6448 21.5779C25.6502 21.5779 25.6555 21.5761 25.6598 21.5728C25.664 21.5694 25.6671 21.5647 25.6683 21.5595L25.8712 20.754C25.9041 20.6209 25.9727 20.4992 26.0697 20.4022C26.1667 20.3052 26.2883 20.2365 26.4214 20.2035L27.2268 20.0014C27.2321 20.0001 27.2368 19.997 27.2401 19.9928C27.2435 19.9885 27.2453 19.9832 27.2453 19.9778C27.2453 19.9724 27.2435 19.9671 27.2401 19.9628C27.2368 19.9586 27.2321 19.9555 27.2268 19.9542L26.4214 19.7517C26.2882 19.7188 26.1665 19.65 26.0696 19.5529C25.9726 19.4558 25.904 19.3341 25.8712 19.2008L25.6687 18.3954C25.6674 18.3901 25.6644 18.3855 25.6601 18.3821C25.6558 18.3788 25.6506 18.377 25.6451 18.377C25.6397 18.377 25.6344 18.3788 25.6302 18.3821C25.6259 18.3855 25.6229 18.3901 25.6216 18.3954L25.4191 19.2008C25.3861 19.334 25.3174 19.4556 25.2204 19.5525C25.1233 19.6495 25.0017 19.7181 24.8685 19.751L24.0631 19.9535C24.0575 19.9545 24.0524 19.9574 24.0487 19.9618C24.045 19.9662 24.043 19.9717 24.043 19.9774C24.043 19.9832 24.045 19.9887 24.0487 19.9931C24.0524 19.9974 24.0575 20.0004 24.0631 20.0014Z" fill="#3498DB"/>
<path d="M20.0069 12.8086H20.0002C15.1908 12.8086 11.3296 16.8741 11.6681 21.7555C11.9494 25.8748 15.2892 29.2121 19.4071 29.4966C24.2885 29.8334 28.3544 25.9725 28.3544 21.1628V21.1494C28.3544 20.8882 27.9926 20.8239 27.8928 21.0657C27.3532 22.3735 26.3766 23.4535 25.1296 24.1216C23.8825 24.7896 22.4424 25.0043 21.0547 24.729C19.6671 24.4537 18.4179 23.7055 17.5204 22.612C16.6228 21.5185 16.1325 20.1475 16.133 18.7328C16.133 16.5007 18.9589 14.108 20.1408 13.2055C20.1773 13.1773 20.2042 13.1385 20.2176 13.0943C20.2309 13.0502 20.2302 13.003 20.2155 12.9593C20.2007 12.9155 20.1727 12.8775 20.1353 12.8505C20.0979 12.8235 20.053 12.8089 20.0069 12.8086Z" fill="#3498DB"/>
</g>
<defs>
<clipPath id="clip0_2164_12165">
<rect width="18" height="18" fill="white" transform="translate(11 11.5)"/>
</clipPath>
</defs>
</svg>
