<svg width="92" height="92" viewBox="0 0 92 92" fill="none" xmlns="http://www.w3.org/2000/svg">
<rect x="0.328125" width="91.1642" height="91.1642" rx="45.5821" fill="#D7F3E5"/>
<g clip-path="url(#clip0_699_2709)">
<path d="M65.1346 50.9214H63.8719C63.8258 50.9214 63.7802 50.924 63.7351 50.9283C64.4227 53.0906 64.7987 55.3405 65.0306 56.6927C65.0406 56.7511 65.0455 56.81 65.0455 56.8684C65.0435 57.297 64.7862 57.6734 64.3899 58.0062C63.9894 58.3411 63.4324 58.6485 62.7498 58.94C62.3443 59.1127 61.8936 59.2791 61.4068 59.4394H62.4686V62.8232C62.4686 63.5991 63.0969 64.228 63.8719 64.228H65.1346C65.9097 64.228 66.5379 63.5991 66.5379 62.8232V52.3262C66.5379 51.5503 65.9097 50.9214 65.1346 50.9214ZM37.7841 53.82H29.3505V40.9791C29.3505 40.2032 28.7223 39.5742 27.9472 39.5742H26.6845C25.9095 39.5742 25.2812 40.2032 25.2812 40.9791V62.8232C25.2812 63.5991 25.9095 64.228 26.6845 64.228H27.9472C28.7223 64.228 29.3505 63.5991 29.3505 62.8232V59.4394H39.1743C39.0684 59.2699 38.9677 59.0927 38.8736 58.9074C38.1941 57.5711 37.8155 55.8325 37.7841 53.82Z" fill="#229968"/>
<path d="M29.9314 45.1913L32.8962 52.6793C33.1444 53.3072 34.0042 53.5548 34.8169 53.2323L35.2094 53.0768C36.0218 52.7544 36.479 51.9842 36.2303 51.3564L33.2658 43.8684C33.0173 43.2408 32.1572 42.9929 31.3448 43.3151L30.9523 43.4707C30.1397 43.7932 29.6831 44.5635 29.9314 45.1913ZM36.3775 38.0743C36.3392 38.0743 36.3009 38.0743 36.263 38.0735C35.2254 38.0493 34.035 37.6968 32.9384 37.1953C32.3881 37.6595 31.992 38.3129 31.8613 39.0787C31.5674 40.799 32.7227 42.4322 34.4409 42.7264C36.1594 43.0203 37.7908 41.8636 38.084 40.1433C38.2216 39.3381 38.0417 38.5523 37.6354 37.9138C37.2335 38.0267 36.7836 38.074 36.3775 38.0743Z" fill="#229968"/>
<path d="M37.7466 48.4759C36.5521 47.3774 35.8955 46.2988 35.7227 45.9942L35.7215 45.9924L35.7144 45.9803C35.3419 45.3012 35.5908 44.4454 36.2692 44.0727C36.4757 43.9589 36.7088 43.8989 36.9433 43.8989C37.4541 43.8989 37.9241 44.1761 38.1719 44.6224C38.1746 44.6272 38.1782 44.6329 38.182 44.6402C38.1949 44.6621 38.215 44.6961 38.2435 44.7415C38.2962 44.8265 38.3865 44.9646 38.5167 45.1434C38.6673 45.3505 38.8857 45.6276 39.1653 45.9286C39.3044 45.525 39.4552 45.1177 39.6169 44.7079C39.4598 44.5631 39.307 44.4218 39.1593 44.2855C39.6642 43.8617 40.0749 43.4176 40.3918 42.9508C40.9581 42.1219 41.2119 41.2184 41.2082 40.3806C41.2076 39.5781 40.9931 38.8479 40.7001 38.2175C40.2572 37.2712 39.6375 36.5259 39.1295 35.9966C38.6204 35.4689 38.2167 35.1617 38.1838 35.1361C37.9322 34.9453 37.626 34.8773 37.3369 34.9214C37.2734 34.7774 37.1541 34.6535 37.0065 34.5544C36.7847 34.4066 36.4898 34.3033 36.1579 34.2672C36.0748 34.2578 35.9934 34.2537 35.9143 34.2537C35.6232 34.2541 35.3586 34.311 35.1514 34.4181C35.0804 34.4546 35.0155 34.499 34.959 34.55C34.8697 34.6306 34.8034 34.7288 34.7744 34.8436C34.3124 34.8964 33.7543 35.0976 33.2981 35.3662C32.7566 35.6756 32.3787 36.0951 32.393 36.363C32.3948 36.5101 32.4765 36.6588 32.7804 36.8115C33.9244 37.3705 35.2055 37.7702 36.2692 37.7934C36.3044 37.7944 36.3403 37.7944 36.3774 37.7944C36.8511 37.7949 37.3964 37.7241 37.807 37.5634C38.2238 37.3978 38.469 37.1682 38.4669 36.8573C38.4669 36.7837 38.4541 36.7022 38.4236 36.6113C38.2863 36.1875 37.8494 35.7715 37.2812 35.4533C37.3355 35.3784 37.373 35.2932 37.3837 35.1971L37.2445 35.182L37.3839 35.1945C37.3842 35.1931 37.3842 35.1915 37.3842 35.1899C38.0034 35.5309 38.5067 35.9822 38.69 36.5227C38.7286 36.6383 38.7475 36.7503 38.7475 36.8573C38.7454 37.3414 38.3632 37.6508 37.9085 37.8253C37.9082 37.8254 37.9076 37.8256 37.9071 37.8257C38.002 37.9816 38.0847 38.1449 38.1541 38.3144C38.619 38.95 38.973 39.7093 38.9626 40.3806C38.9591 40.7937 38.8594 41.2014 38.5337 41.6889C38.2697 42.0796 37.8406 42.5199 37.1723 42.9772C36.453 42.7886 35.729 42.8781 35.2508 43.3531C34.374 44.2234 34.0301 46.0479 35.4207 47.7191C36.3337 48.8039 37.1444 49.6286 38.0487 50.3357C38.1208 49.8843 38.2074 49.4252 38.3097 48.9588C38.1065 48.7965 37.9183 48.6341 37.7466 48.4759ZM37.1064 35.1421C37.1064 35.1492 37.1058 35.158 37.105 35.1693L37.1052 35.1694C37.1009 35.3526 36.7464 35.5798 36.2307 35.5746C36.1614 35.5748 36.0898 35.571 36.0171 35.5633C35.7262 35.5317 35.4694 35.439 35.2949 35.3215C35.1173 35.2031 35.0364 35.0688 35.0389 34.967C35.0389 34.9581 35.0395 34.9507 35.04 34.946C35.0413 34.759 35.3966 34.5295 35.9147 34.5345C35.9844 34.5345 36.0553 34.5381 36.1276 34.5463C36.4197 34.5778 36.6763 34.6707 36.8507 34.7878C37.0279 34.9061 37.1088 35.0404 37.1064 35.1421ZM64.1198 57.6854C64.4715 57.3901 64.6269 57.1138 64.625 56.8706C64.625 56.8358 64.6221 56.8009 64.6162 56.7658C64.2113 54.3644 63.3242 49.1466 61.1468 46.7701C60.4227 45.9777 59.5837 45.5038 58.5647 45.5028C58.4755 45.5028 58.3847 45.5066 58.2918 45.5142C57.8036 45.5537 57.221 45.5715 56.5665 45.5715C51.3654 45.5709 41.5909 44.4594 40.235 44.3025C39.9587 44.9649 39.7136 45.62 39.4963 46.2661C39.5443 46.3124 39.5926 46.3588 39.6432 46.4053C40.9278 47.5772 42.3665 48.172 43.9181 48.1727C44.3305 48.1723 44.7587 48.1299 45.1912 48.0462C45.2795 48.029 45.3697 48.0203 45.4592 48.0203C46.1287 48.0203 46.7079 48.4985 46.8354 49.1575C46.907 49.5258 46.8308 49.9 46.6211 50.2112C46.4112 50.5221 46.0932 50.7328 45.7254 50.8045C45.1172 50.9226 44.5092 50.9827 43.9181 50.9827C41.6895 50.9831 39.9333 50.1506 38.6799 49.2411C38.3559 50.7745 38.2025 52.2242 38.2025 53.5502C38.2019 55.6282 38.5786 57.4021 39.2492 58.7186C39.9215 60.0366 40.8751 60.8915 42.0474 61.1855C42.6688 61.3416 43.6999 61.4205 44.972 61.4198C47.8663 61.4198 52.0264 61.0246 55.7789 60.3554C59.5267 59.6928 62.8929 58.727 64.1198 57.6854ZM33.0546 32.6931C32.9581 32.8656 33.2519 33.0573 33.3482 32.8854C33.5785 32.4739 33.8057 31.9062 33.6965 31.4286C33.5772 30.9078 33.2578 30.5962 33.3311 30.0071C33.3643 29.7399 33.4481 29.4681 33.5507 29.2196C33.6238 29.0424 33.3023 28.9111 33.2239 29.101C33.0403 29.5458 32.8757 30.1458 33.0019 30.6257C33.1211 31.0792 33.425 31.3452 33.3572 31.8551C33.3187 32.1435 33.1957 32.4409 33.0546 32.6931ZM34.5368 32.6931C34.4402 32.8656 34.7341 33.0573 34.8304 32.8854C35.0606 32.4739 35.2878 31.9062 35.1787 31.4286C35.0594 30.9078 34.74 30.5962 34.8132 30.0071C34.8465 29.7399 34.9303 29.4681 35.0329 29.2196C35.106 29.0424 34.7845 28.9111 34.706 29.101C34.5225 29.5458 34.3579 30.1458 34.484 30.6257C34.6033 31.0792 34.9071 31.3452 34.8393 31.8551C34.801 32.1435 34.678 32.4409 34.5368 32.6931ZM36.0191 32.6931C35.9225 32.8656 36.2164 33.0573 36.3127 32.8854C36.5429 32.4739 36.7701 31.9062 36.661 31.4286C36.5417 30.9078 36.2223 30.5962 36.2955 30.0071C36.3288 29.7399 36.4126 29.4681 36.5152 29.2196C36.5883 29.0424 36.2668 28.9111 36.1883 29.101C36.0048 29.5456 35.84 30.1456 35.9663 30.6257C36.0856 31.0792 36.3894 31.3452 36.3216 31.8551C36.2832 32.1435 36.1601 32.4409 36.0191 32.6931Z" fill="#229968"/>
<path d="M43.9177 50.7019C44.4784 50.7019 45.0645 50.6468 45.6715 50.5289C46.28 50.4105 46.6777 49.8207 46.5595 49.2116C46.4414 48.6022 45.8524 48.2043 45.2437 48.3226C44.7733 48.4136 44.3326 48.454 43.9177 48.4542C41.9629 48.4533 40.4922 47.5607 39.4534 46.6129C38.9392 46.1414 38.5467 45.6629 38.2896 45.3099C38.1609 45.1332 38.0658 44.9885 38.0052 44.8917C37.975 44.8433 37.9534 44.807 37.9405 44.785C37.9342 44.7739 37.93 44.7664 37.9278 44.7631C37.6291 44.2197 36.9472 44.0209 36.4039 44.3196C35.8602 44.6184 35.6617 45.3017 35.9601 45.8458V45.8456C35.9994 45.9134 36.637 47.0751 37.9363 48.2699C39.2265 49.4586 41.2429 50.7024 43.9177 50.7019Z" fill="#229968"/>
</g>
<defs>
<clipPath id="clip0_699_2709">
<rect width="41.2567" height="35.2225" fill="white" transform="translate(25.2812 29.0078)"/>
</clipPath>
</defs>
</svg>
