<svg width="92" height="92" viewBox="0 0 92 92" fill="none" xmlns="http://www.w3.org/2000/svg">
<rect x="0.65625" width="91.1642" height="91.1642" rx="45.5821" fill="#FFC7C7"/>
<g clip-path="url(#clip0_699_2720)">
<path d="M59.7508 47.4419V48.9956H58.9739V49.7725H58.197V50.5493H57.4202V52.103H58.197V52.8799H58.9739V53.6568H59.7508V55.2105H58.197V54.4336H57.4202V53.6568H56.6433V52.8799H55.0896V53.6568H54.3128V54.4336H53.5359V55.2105H51.9822V53.6568H52.7591V52.8799H53.5359V52.103H54.3128V50.5493H53.5359V49.7725H52.7591V48.9956H51.9822V47.4419H53.5359V48.2188H54.3128V48.9956H55.0896V49.7725H56.6433V48.9956H57.4202V48.2188H58.197V47.4419H59.7508ZM64.4119 48.9956V53.6568H63.635V55.2105H62.8582V56.7642H62.0813V57.541H61.3045V58.3179H59.7508V59.0947H58.197V59.8716H53.5359V59.0947H51.9822V58.3179H50.4285V57.541H49.6516V56.7642H48.8748V55.9873H29.4534V55.2105H28.6765V35.0122H29.4534V34.2354H62.0813V35.0122H62.8582V47.4419H63.635V48.9956H64.4119ZM51.9822 36.5659H52.7591V37.3428H58.9739V38.1196H59.7508V44.3345H61.3045V35.7891H51.9822V36.5659ZM55.8665 40.4502V42.7808H58.197V38.8965H55.0896V40.4502H55.8665ZM39.5525 53.6568H38.7756V52.8799H32.5608V52.103H31.7839V38.1196H32.5608V37.3428H38.7756V36.5659H39.5525V35.7891H30.2302V54.4336H39.5525V53.6568ZM34.8914 47.4419V42.7808H35.6682V40.4502H36.4451V38.8965H33.3377V51.3262H36.4451V49.7725H35.6682V47.4419H34.8914ZM48.0979 46.665H47.3211V45.8882H46.5442V50.5493H47.3211V48.9956H48.0979V46.665ZM48.8748 45.8882H49.6516V45.1113H50.4285V44.3345H51.9822V43.5576H53.5359V42.7808H54.3128V41.2271H53.5359V39.6733H52.7591V38.8965H51.9822V38.1196H51.2053V37.3428H49.6516V36.5659H48.0979V35.7891H43.4368V36.5659H41.8831V37.3428H40.3294V38.1196H39.5525V38.8965H38.7756V39.6733H37.9988V41.2271H37.2219V42.7808H36.4451V47.4419H37.2219V48.9956H37.9988V50.5493H38.7756V51.3262H39.5525V52.103H40.3294V52.8799H41.8831V53.6568H43.4368V54.4336H48.0979V53.6568H47.3211V52.103H46.5442V53.6568H44.9905V52.103H43.4368V51.3262H42.6599V50.5493H41.8831V47.4419H43.4368V49.7725H44.2136V50.5493H44.9905V45.8882H43.4368V45.1113H42.6599V44.3345H41.8831V39.6733H42.6599V38.8965H43.4368V38.1196H44.9905V36.5659H46.5442V38.1196H48.0979V38.8965H48.8748V39.6733H49.6516V42.7808H48.0979V40.4502H47.3211V39.6733H46.5442V44.3345H48.0979V45.1113H48.8748V45.8882ZM44.2136 43.5576V44.3345H44.9905V39.6733H44.2136V40.4502H43.4368V43.5576H44.2136ZM62.8582 48.9956H62.0813V47.4419H61.3045V46.665H60.5276V45.8882H59.7508V45.1113H58.197V44.3345H53.5359V45.1113H51.9822V45.8882H51.2053V46.665H50.4285V47.4419H49.6516V48.9956H48.8748V53.6568H49.6516V55.2105H50.4285V55.9873H51.2053V56.7642H51.9822V57.541H53.5359V58.3179H58.197V57.541H59.7508V56.7642H60.5276V55.9873H61.3045V55.2105H62.0813V53.6568H62.8582V48.9956Z" fill="#C80000"/>
</g>
<defs>
<clipPath id="clip0_699_2720">
<rect width="37.2891" height="37.2891" fill="white" transform="translate(27.123 26.4668)"/>
</clipPath>
</defs>
</svg>
