<svg width="30" height="25" viewBox="0 0 30 25" fill="none" xmlns="http://www.w3.org/2000/svg">
<path d="M27.5 21.5V19.5C27.5 17.6362 26.2252 16.0701 24.5 15.626M21 3.79076C22.4659 4.38415 23.5 5.82131 23.5 7.5C23.5 9.17869 22.4659 10.6159 21 11.2092M22.5 21.5C22.5 19.6362 22.5 18.7044 22.1955 17.9693C21.7895 16.9892 21.0108 16.2105 20.0307 15.8045C19.2956 15.5 18.3638 15.5 16.5 15.5H13.5C11.6362 15.5 10.7044 15.5 9.96927 15.8045C8.98915 16.2105 8.21046 16.9892 7.80448 17.9693C7.5 18.7044 7.5 19.6362 7.5 21.5M19 7.5C19 9.70914 17.2091 11.5 15 11.5C12.7909 11.5 11 9.70914 11 7.5C11 5.29086 12.7909 3.5 15 3.5C17.2091 3.5 19 5.29086 19 7.5Z" stroke="#CFCFCF" stroke-width="2" stroke-linecap="round" stroke-linejoin="round"/>
<g clip-path="url(#clip0_334_61810)">
<path d="M2.5 21.5V19.5C2.5 17.6362 3.77477 16.0701 5.5 15.626M9 3.79076C7.53408 4.38415 6.5 5.82131 6.5 7.5C6.5 9.17869 7.53408 10.6159 9 11.2092M7.5 21.5C7.5 19.6362 7.5 18.7044 7.80448 17.9693C8.21046 16.9892 8.98915 16.2105 9.96927 15.8045C10.7044 15.5 11.6362 15.5 13.5 15.5H16.5C18.3638 15.5 19.2956 15.5 20.0307 15.8045C21.0108 16.2105 21.7895 16.9892 22.1955 17.9693C22.5 18.7044 22.5 19.6362 22.5 21.5M11 7.5C11 9.70914 12.7909 11.5 15 11.5C17.2091 11.5 19 9.70914 19 7.5C19 5.29086 17.2091 3.5 15 3.5C12.7909 3.5 11 5.29086 11 7.5Z" stroke="#CFCFCF" stroke-width="2" stroke-linecap="round" stroke-linejoin="round"/>
</g>
<defs>
<clipPath id="clip0_334_61810">
<rect width="10" height="20" fill="white" transform="matrix(-1 0 0 1 10.5 2.5)"/>
</clipPath>
</defs>
</svg>
