<svg width="11" height="9" viewBox="0 0 11 9" fill="none" xmlns="http://www.w3.org/2000/svg">
<path fill-rule="evenodd" clip-rule="evenodd" d="M7.83859 2.68188C7.97364 2.56702 8.18096 2.57819 8.30154 2.70684L9.86298 4.37237C9.97406 4.49083 9.97406 4.66987 9.86298 4.78833L8.30154 6.45386C8.18096 6.58252 7.97364 6.59368 7.83859 6.47884C7.7035 6.36396 7.69173 6.16655 7.81236 6.03789L8.88604 4.89264H5.24639C5.0653 4.89264 4.91849 4.75282 4.91849 4.58035C4.91849 4.40789 5.0653 4.26806 5.24639 4.26806H8.88603L7.81236 3.12282C7.69173 2.99416 7.7035 2.79675 7.83859 2.68188Z" fill="white"/>
<path d="M3.94684 0.520508H3.92289C3.52563 0.520508 3.21075 0.520503 2.95568 0.53708C2.6951 0.554014 2.47305 0.589281 2.26574 0.671058C1.7569 0.871796 1.35262 1.25683 1.14184 1.74144C1.05598 1.93887 1.01895 2.15035 1.00117 2.39852C0.98376 2.64145 0.983765 2.94132 0.983765 3.31968V5.84078C0.983765 6.21914 0.98376 6.51898 1.00117 6.76194C1.01895 7.0101 1.05598 7.22158 1.14184 7.41898C1.35262 7.90361 1.7569 8.28864 2.26574 8.48938C2.47305 8.57115 2.6951 8.60642 2.95568 8.62337C3.21075 8.63994 3.5256 8.63994 3.92287 8.63994H3.94684C4.34411 8.63994 4.659 8.63994 4.91406 8.62337C5.17463 8.60642 5.39669 8.57115 5.60396 8.48938C6.11282 8.28864 6.5171 7.90361 6.72787 7.41898C6.82296 7.20034 6.85847 6.96355 6.87381 6.67808C6.88304 6.50582 6.74392 6.35905 6.56305 6.35026C6.38222 6.34143 6.22811 6.47393 6.21884 6.64618C6.2049 6.90575 6.17464 7.05902 6.122 7.17998C5.97781 7.51159 5.7012 7.77503 5.35301 7.91235C5.23895 7.95737 5.09659 7.98547 4.86942 8.00025C4.63928 8.0152 4.34677 8.01537 3.93486 8.01537C3.52296 8.01537 3.23045 8.0152 3.00032 8.00025C2.77313 7.98547 2.63078 7.95737 2.51671 7.91235C2.16855 7.77503 1.89194 7.51159 1.74772 7.17998C1.70047 7.07135 1.67095 6.93577 1.65544 6.71942C1.63974 6.50024 1.63956 6.22164 1.63956 5.82937V3.33108C1.63956 2.93879 1.63974 2.66021 1.65544 2.44104C1.67095 2.22467 1.70047 2.0891 1.74772 1.98046C1.89194 1.64888 2.16855 1.38544 2.51671 1.24809C2.63078 1.20309 2.77313 1.17497 3.00032 1.1602C3.23045 1.14525 3.52296 1.14508 3.93486 1.14508C4.34677 1.14508 4.63928 1.14525 4.86942 1.1602C5.09659 1.17497 5.23895 1.20309 5.35301 1.24809C5.7012 1.38544 5.97781 1.64888 6.122 1.98046C6.17464 2.10143 6.2049 2.2547 6.21884 2.51428C6.22811 2.68652 6.38222 2.81901 6.56305 2.8102C6.74392 2.80139 6.88304 2.65461 6.87381 2.48236C6.85847 2.19689 6.82296 1.96009 6.72787 1.74144C6.5171 1.25683 6.11282 0.871796 5.60396 0.671058C5.39669 0.589281 5.17463 0.554014 4.91406 0.53708C4.659 0.520503 4.3441 0.520508 3.94684 0.520508Z" fill="white"/>
</svg>
