<svg width="18" height="19" viewBox="0 0 18 19" fill="none" xmlns="http://www.w3.org/2000/svg">
<path d="M2.25 8.25024C2.52272 8.25024 2.75 8.47753 2.75 8.75024V14.7502C2.74985 15.0228 2.52263 15.2502 2.25 15.2502C1.97737 15.2502 1.75015 15.0228 1.75 14.7502V8.75024C1.75 8.47753 1.97728 8.25024 2.25 8.25024ZM10.5527 2.74634C10.593 2.70539 10.6634 2.69622 10.7188 2.74829C10.7329 2.76343 10.7419 2.77977 10.7471 2.79712C10.7527 2.81614 10.7546 2.84015 10.749 2.86841L10.0381 6.29712L9.78906 7.50024H15.2549C16.1474 7.50024 16.7559 8.4155 16.4043 9.24438L13.9639 14.9407C13.8803 15.1313 13.6956 15.2502 13.5 15.2502H6.75C6.47737 15.2502 6.25015 15.0228 6.25 14.7502V7.25708C6.25011 7.12154 6.3051 6.99495 6.39258 6.90747L10.5469 2.7522L10.5527 2.74634Z" stroke="#1870B9" stroke-width="2"/>
</svg>
