<svg width="20" height="20" viewBox="0 0 20 20" fill="none" xmlns="http://www.w3.org/2000/svg">
<path d="M18.7999 13.5829L12.4083 2.98292C12.1498 2.5786 11.7937 2.24585 11.3728 2.01536C10.9519 1.78488 10.4798 1.66406 9.99992 1.66406C9.52005 1.66406 9.04791 1.78488 8.62702 2.01536C8.20613 2.24585 7.85004 2.5786 7.59159 2.98292L1.19992 13.5829C0.974132 13.9593 0.851411 14.3885 0.844097 14.8273C0.836783 15.2662 0.945133 15.6992 1.15825 16.0829C1.40465 16.5148 1.7613 16.8735 2.19176 17.1224C2.62221 17.3713 3.11103 17.5015 3.60825 17.4996H16.3916C16.8855 17.5049 17.3722 17.3797 17.8023 17.1369C18.2325 16.894 18.591 16.5419 18.8416 16.1162C19.061 15.7286 19.1728 15.2893 19.1655 14.8439C19.1581 14.3985 19.0319 13.9632 18.7999 13.5829ZM9.99992 14.1662C9.8351 14.1662 9.67399 14.1174 9.53695 14.0258C9.3999 13.9342 9.29309 13.8041 9.23002 13.6518C9.16695 13.4995 9.15045 13.332 9.1826 13.1703C9.21475 13.0087 9.29412 12.8602 9.41067 12.7437C9.52721 12.6271 9.6757 12.5477 9.83735 12.5156C9.999 12.4834 10.1666 12.4999 10.3188 12.563C10.4711 12.6261 10.6012 12.7329 10.6928 12.8699C10.7844 13.007 10.8333 13.1681 10.8333 13.3329C10.8333 13.5539 10.7455 13.7659 10.5892 13.9222C10.4329 14.0785 10.2209 14.1662 9.99992 14.1662ZM10.8333 10.8329C10.8333 11.0539 10.7455 11.2659 10.5892 11.4222C10.4329 11.5785 10.2209 11.6662 9.99992 11.6662C9.77891 11.6662 9.56695 11.5785 9.41067 11.4222C9.25438 11.2659 9.16659 11.0539 9.16659 10.8329V7.49958C9.16659 7.27857 9.25438 7.06661 9.41067 6.91033C9.56695 6.75405 9.77891 6.66625 9.99992 6.66625C10.2209 6.66625 10.4329 6.75405 10.5892 6.91033C10.7455 7.06661 10.8333 7.27857 10.8333 7.49958V10.8329Z" fill="#EAB308"/>
</svg>
