<svg width="10" height="10" viewBox="0 0 10 10" fill="none" xmlns="http://www.w3.org/2000/svg">
<g clip-path="url(#clip0_640_2075)">
<path d="M5.60657 1.21891C5.5062 1.2115 5.40558 1.20779 5.30493 1.20778V0.62207C5.42005 0.622126 5.53512 0.626425 5.64992 0.634956L5.60657 1.21891ZM6.78035 1.48248C6.59259 1.41003 6.39976 1.3515 6.20342 1.30736L6.33169 0.735699C6.55602 0.78607 6.77683 0.852842 6.9912 0.936013L6.78035 1.48248ZM7.58277 1.89834C7.49903 1.84249 7.41326 1.78974 7.32565 1.7402L7.6144 1.23063C7.81466 1.3441 8.00632 1.47213 8.18782 1.61368L7.8276 2.07581C7.74819 2.01386 7.66653 1.95486 7.58277 1.89893V1.89834ZM8.65697 2.94677C8.54112 2.78217 8.41328 2.62634 8.2745 2.48054L8.69856 2.0764C8.8567 2.24333 9.00313 2.42197 9.13609 2.6094L8.65697 2.94677ZM9.09275 3.73866C9.0543 3.6458 9.01249 3.55436 8.9674 3.46454L9.49044 3.20097C9.59388 3.40661 9.68198 3.61961 9.75402 3.83823L9.19759 4.02156C9.16611 3.92601 9.13114 3.83164 9.09275 3.73866ZM9.40317 5.20704C9.39844 5.00576 9.37886 4.80509 9.3446 4.60668L9.92153 4.50711C9.96077 4.7332 9.98362 4.9628 9.98947 5.1924L9.40376 5.20704H9.40317ZM9.32645 6.10787C9.34577 6.0083 9.36159 5.90931 9.37389 5.80916L9.9555 5.8812C9.92737 6.10972 9.88234 6.33584 9.82079 6.5577L9.25616 6.40131C9.2831 6.30467 9.30653 6.20686 9.32645 6.10787ZM8.76884 7.50129C8.87662 7.33143 8.9715 7.15337 9.0535 6.96946L9.58885 7.20667C9.49513 7.41753 9.38677 7.62019 9.26377 7.81464L8.76884 7.50129ZM8.20422 8.20707C8.27567 8.13561 8.3442 8.06181 8.40922 7.98567L8.85319 8.36814C8.778 8.45532 8.69966 8.53972 8.61832 8.62117L8.20422 8.20707Z" fill="#1870B9"/>
<path d="M5.30485 1.20778C4.63063 1.20783 3.96682 1.37415 3.37222 1.69202C2.77762 2.00988 2.27059 2.46947 1.89603 3.03009C1.52147 3.5907 1.29095 4.23504 1.22488 4.90602C1.15881 5.577 1.25924 6.25392 1.51726 6.87683C1.77528 7.49973 2.18294 8.04939 2.70412 8.47711C3.2253 8.90484 3.84393 9.19744 4.5052 9.32899C5.16647 9.46054 5.84997 9.42698 6.49518 9.23128C7.14038 9.03559 7.72736 8.6838 8.20414 8.20707L8.61824 8.62117C8.07337 9.16634 7.40244 9.5687 6.66491 9.7926C5.92737 10.0165 5.14599 10.055 4.39 9.90475C3.63402 9.75449 2.92677 9.42008 2.33092 8.93115C1.73507 8.44222 1.26901 7.81386 0.974044 7.10176C0.679077 6.38966 0.564308 5.6158 0.639905 4.84874C0.715502 4.08168 0.979131 3.34511 1.40743 2.7043C1.83574 2.06348 2.41549 1.53819 3.09532 1.17499C3.77515 0.81178 4.53408 0.621866 5.30485 0.62207V1.20778Z" fill="#1870B9"/>
<path d="M5.01197 2.37891C5.08964 2.37891 5.16413 2.40976 5.21905 2.46468C5.27398 2.5196 5.30483 2.59409 5.30483 2.67176V5.72333L7.20723 6.81042C7.27271 6.84992 7.32014 6.91347 7.33939 6.98747C7.35863 7.06148 7.34817 7.14008 7.31023 7.20648C7.27229 7.27287 7.20988 7.3218 7.13635 7.34279C7.06282 7.36378 6.98399 7.35518 6.91672 7.31882L4.86672 6.14739C4.82189 6.12179 4.78463 6.08479 4.75871 6.04015C4.73279 5.99551 4.71913 5.94481 4.71912 5.89319V2.67176C4.71912 2.59409 4.74997 2.5196 4.80489 2.46468C4.85981 2.40976 4.9343 2.37891 5.01197 2.37891Z" fill="#1870B9"/>
</g>
<defs>
<clipPath id="clip0_640_2075">
<rect width="10" height="10" fill="white"/>
</clipPath>
</defs>
</svg>
