<svg width="11" height="11" viewBox="0 0 11 11" fill="none" xmlns="http://www.w3.org/2000/svg">
<g clip-path="url(#clip0_640_2102)">
<path d="M1.70778 7.51406V3.07375C1.70778 2.89257 1.77976 2.71882 1.90787 2.59071C2.03598 2.4626 2.20973 2.39063 2.39091 2.39062H8.53903C8.72021 2.39063 8.89396 2.4626 9.02207 2.59071C9.15019 2.71882 9.22216 2.89257 9.22216 3.07375V7.51406M1.02466 7.51406H9.90528V8.19719C9.90528 8.37836 9.83331 8.55212 9.7052 8.68023C9.57709 8.80834 9.40333 8.88031 9.22216 8.88031H1.70778C1.52661 8.88031 1.35285 8.80834 1.22474 8.68023C1.09663 8.55212 1.02466 8.37836 1.02466 8.19719V7.51406Z" stroke="#1870B9" stroke-width="0.68" stroke-linecap="round" stroke-linejoin="round"/>
<path d="M6.14811 3.75684H4.78186" stroke="#1870B9" stroke-width="0.170781" stroke-linecap="round" stroke-linejoin="round"/>
</g>
<defs>
<clipPath id="clip0_640_2102">
<rect width="10.93" height="10.93" fill="white"/>
</clipPath>
</defs>
</svg>
