<svg width="11" height="11" viewBox="0 0 11 11" fill="none" xmlns="http://www.w3.org/2000/svg">
<g clip-path="url(#clip0_640_2090)">
<path d="M5.465 0C2.44737 0 0 2.44737 0 5.465C0 8.48263 2.44737 10.93 5.465 10.93C8.48263 10.93 10.93 8.48263 10.93 5.465C10.93 2.44737 8.48263 0 5.465 0ZM5.90458 9.9558C5.88082 9.9558 5.85705 9.9558 5.82141 9.96768V7.38963C6.4392 7.37775 6.99758 7.36587 7.50844 7.33023C7.05698 8.72024 6.21347 9.64691 5.90458 9.9558ZM5.02542 9.9558C4.70465 9.63503 3.87302 8.70836 3.42157 7.33023C3.92054 7.36587 4.4908 7.38963 5.10859 7.38963V9.96768C5.08483 9.96768 5.06107 9.9558 5.02542 9.9558ZM0.950435 5.465C0.950435 5.16799 0.986076 4.87098 1.0336 4.58585C1.29497 4.53833 1.79395 4.46704 2.49489 4.39576C2.43549 4.74029 2.39985 5.09671 2.39985 5.47688C2.39985 5.85705 2.43549 6.21347 2.48301 6.54612C1.79395 6.47484 1.28309 6.40355 1.02172 6.35603C0.986076 6.05902 0.950435 5.76201 0.950435 5.465ZM3.12455 5.465C3.12455 5.06107 3.17208 4.68089 3.24336 4.32448C3.78986 4.28884 4.40764 4.2532 5.10859 4.2532V6.6768C4.41952 6.66492 3.78986 6.64116 3.23148 6.59364C3.17208 6.24911 3.12455 5.86893 3.12455 5.465ZM5.8927 0.974196C6.21347 1.29497 7.03322 2.2454 7.49655 3.59977C6.99758 3.56413 6.4392 3.54037 5.82141 3.54037V0.962315C5.84517 0.962315 5.86893 0.974196 5.8927 0.974196ZM5.10859 0.962315V3.54037C4.4908 3.55225 3.93242 3.56413 3.43345 3.59977C3.8849 2.2454 4.71653 1.29497 5.02542 0.974196C5.06107 0.974196 5.08483 0.962315 5.10859 0.962315ZM5.82141 6.6768V4.2532C6.51048 4.26508 7.14014 4.28884 7.68664 4.32448C7.75792 4.68089 7.80545 5.06107 7.80545 5.465C7.80545 5.86893 7.7698 6.24911 7.69852 6.60552C7.15202 6.64116 6.52236 6.66492 5.82141 6.6768ZM8.42323 4.39576C9.12417 4.46704 9.62315 4.53833 9.88452 4.58585C9.94392 4.87098 9.97957 5.16799 9.97957 5.465C9.97957 5.76201 9.94392 6.05902 9.8964 6.34415C9.63503 6.39167 9.13605 6.46296 8.43511 6.53424C8.49451 6.18971 8.51827 5.83329 8.51827 5.45312C8.51827 5.09671 8.48263 4.72841 8.42323 4.39576ZM9.67067 3.8255C9.33802 3.77798 8.8628 3.71858 8.2569 3.65917C7.97177 2.63746 7.47279 1.81771 7.05698 1.23557C8.2569 1.68702 9.20734 2.63746 9.67067 3.8255ZM3.87302 1.23557C3.44533 1.80583 2.95823 2.62558 2.6731 3.64729C2.07908 3.69482 1.60386 3.7661 1.25933 3.81362C1.72266 2.63746 2.68498 1.68702 3.87302 1.23557ZM1.25933 7.1045C1.59198 7.15202 2.0672 7.21142 2.66122 7.27083C2.94635 8.29254 3.42157 9.11229 3.84926 9.68255C2.66122 9.21922 1.72266 8.28066 1.25933 7.1045ZM7.08074 9.68255C7.50843 9.11229 7.98365 8.30442 8.26878 7.28271C8.8628 7.23518 9.33802 7.1639 9.67067 7.11638C9.20734 8.28066 8.26878 9.21922 7.08074 9.68255Z" fill="#1870B9"/>
</g>
<defs>
<clipPath id="clip0_640_2090">
<rect width="11" height="11" fill="white"/>
</clipPath>
</defs>
</svg>
