<svg width="11" height="11" viewBox="0 0 11 11" fill="none" xmlns="http://www.w3.org/2000/svg">
<g clip-path="url(#clip0_640_2106)">
<path d="M7.05901 5.23759H5.69276V2.96051C5.69276 2.83476 5.59081 2.7328 5.46506 2.7328C5.3393 2.7328 5.23735 2.83476 5.23735 2.96051V5.4653C5.23735 5.46522 5.23735 5.46538 5.23735 5.4653C5.23743 5.591 5.33936 5.69309 5.46506 5.69301H7.05901C7.18476 5.69301 7.28672 5.59105 7.28672 5.4653C7.28672 5.33955 7.18476 5.23759 7.05901 5.23759ZM5.46506 0.911133C2.94987 0.911133 0.910889 2.95011 0.910889 5.4653C0.910889 7.98049 2.94987 10.0195 5.46506 10.0195C7.97902 10.0165 10.0163 7.97926 10.0192 5.4653C10.0192 2.95011 7.98024 0.911133 5.46506 0.911133ZM5.46506 9.56405C3.20137 9.56405 1.36631 7.72899 1.36631 5.4653C1.36631 3.20161 3.20137 1.36655 5.46506 1.36655C7.72771 1.36902 9.56133 3.20264 9.56381 5.4653C9.56381 7.72899 7.72874 9.56405 5.46506 9.56405Z" fill="#1870B9"/>
</g>
<defs>
<clipPath id="clip0_640_2106">
<rect width="10.93" height="10.93" fill="white"/>
</clipPath>
</defs>
</svg>
