<svg width="11" height="11" viewBox="0 0 11 11" fill="none" xmlns="http://www.w3.org/2000/svg">
<g clip-path="url(#clip0_640_2055)">
<path d="M9.21143 7.39577V6.71243C9.21143 6.37077 8.92613 6.14014 8.61351 6.0291L7.33226 5.5166L6.64893 6.19993L7.33226 6.88327L7.84476 5.85827" stroke="#1870B9" stroke-width="0.341667" stroke-linecap="round" stroke-linejoin="round"/>
<path d="M5.4549 5.85827L5.9674 6.88327L6.65073 6.19993L5.9674 5.5166L4.68615 6.0291C4.37352 6.14014 4.06944 6.37077 4.08823 6.71243V8.24993H5.11323" stroke="#1870B9" stroke-width="0.341667" stroke-linecap="round" stroke-linejoin="round"/>
<path d="M5.96741 4.83398V5.51732M7.33237 4.83398V5.51732" stroke="#1870B9" stroke-width="0.341667"/>
<path d="M6.99055 2.44238C6.47805 2.78405 5.96555 2.78405 5.45305 2.78405V3.12572H5.28222C5.1916 3.12572 5.1047 3.16171 5.04062 3.22579C4.97655 3.28986 4.94055 3.37677 4.94055 3.46738C4.95776 3.5722 4.99715 3.67213 5.05607 3.76051C5.11499 3.84889 5.19209 3.92368 5.28222 3.97988C5.62389 4.66322 6.09197 5.16205 6.64889 5.17572" stroke="#1870B9" stroke-width="0.341667" stroke-linecap="round" stroke-linejoin="round"/>
<path d="M6.99059 2.44238C7.09184 2.56766 7.22354 2.66485 7.37309 2.72468C7.52264 2.7845 7.68505 2.80494 7.84476 2.78405V3.12572H8.01559C8.10621 3.12572 8.19311 3.16171 8.25719 3.22579C8.32126 3.28986 8.35726 3.37677 8.35726 3.46738C8.34005 3.5722 8.30066 3.67213 8.24174 3.76051C8.18283 3.84889 8.10572 3.92368 8.01559 3.97988C7.67393 4.66322 7.20584 5.16205 6.64893 5.17572" stroke="#1870B9" stroke-width="0.341667" stroke-linecap="round" stroke-linejoin="round"/>
<path d="M8.35734 3.4668V2.27096C8.35734 1.79775 8.14722 1.4168 7.67401 1.4168C7.33234 0.904297 6.66097 0.75738 5.90588 1.08709C5.33188 1.3365 4.94238 1.84217 4.94238 2.70317V3.4668" stroke="#1870B9" stroke-width="0.341667" stroke-linejoin="round"/>
<path d="M4.08821 8.25066C4.03431 8.46409 4.02889 8.68688 4.07235 8.90268C4.1158 9.11848 4.20703 9.32181 4.33934 9.49774L4.42817 9.61733H4.76984M6.47817 9.78816H9.42846C9.51137 9.78898 9.59174 9.75962 9.6546 9.70556C9.71747 9.65149 9.75853 9.57642 9.77013 9.49433L10.04 7.59124C10.0435 7.56689 10.0416 7.54208 10.0346 7.5185C10.0276 7.49493 10.0155 7.47316 9.99932 7.45466C9.9831 7.43617 9.96308 7.4214 9.94062 7.41136C9.91817 7.40132 9.89381 7.39625 9.86921 7.39649H6.96505C6.92359 7.39608 6.8834 7.41076 6.85197 7.43779C6.82054 7.46483 6.80001 7.50236 6.79421 7.54341L6.47817 9.78816ZM6.47817 9.78816H5.1115C5.02089 9.78816 4.93398 9.75216 4.86991 9.68809C4.80583 9.62401 4.76984 9.53711 4.76984 9.44649C4.76984 9.35588 4.80583 9.26897 4.86991 9.2049C4.93398 9.14082 5.02089 9.10483 5.1115 9.10483H5.96567M5.1115 7.39649V8.25066C5.04317 8.59233 5.15421 8.9972 5.45317 9.10483" stroke="#1870B9" stroke-width="0.341667" stroke-linecap="round" stroke-linejoin="round"/>
<path d="M8.35717 8.93333C8.54587 8.93333 8.69884 8.78036 8.69884 8.59167C8.69884 8.40297 8.54587 8.25 8.35717 8.25C8.16847 8.25 8.0155 8.40297 8.0155 8.59167C8.0155 8.78036 8.16847 8.93333 8.35717 8.93333Z" stroke="#1870B9" stroke-width="0.341667" stroke-linecap="round" stroke-linejoin="round"/>
<path d="M-0.0391846 9.78809H5.42748" stroke="#1870B9" stroke-width="0.341667" stroke-linecap="round" stroke-linejoin="round"/>
<path d="M0.30249 9.78809C0.30249 9.96932 0.374484 10.1431 0.502634 10.2713C0.630784 10.3994 0.804592 10.4714 0.985824 10.4714H10.04" stroke="#1870B9" stroke-width="0.341667" stroke-linecap="round" stroke-linejoin="round"/>
<path d="M1.66909 3.4666C2.51823 3.4666 3.20659 2.77824 3.20659 1.9291C3.20659 1.07996 2.51823 0.391602 1.66909 0.391602C0.819954 0.391602 0.131592 1.07996 0.131592 1.9291C0.131592 2.77824 0.819954 3.4666 1.66909 3.4666Z" stroke="#1870B9" stroke-width="0.341667" stroke-linecap="round" stroke-linejoin="round"/>
<path d="M1.66907 1.0752V1.92936L2.18157 2.27103" stroke="#1870B9" stroke-width="0.341667" stroke-linecap="round" stroke-linejoin="round"/>
<path d="M1.15667 8.5918H3.03584V9.27513H1.15667C1.11137 9.27513 1.06791 9.25713 1.03588 9.22509C1.00384 9.19306 0.98584 9.1496 0.98584 9.1043V8.76263C0.98584 8.71732 1.00384 8.67387 1.03588 8.64183C1.06791 8.6098 1.11137 8.5918 1.15667 8.5918Z" stroke="#1870B9" stroke-width="0.341667" stroke-linecap="round" stroke-linejoin="round"/>
<path d="M2.86499 8.5918H3.20666" stroke="#1870B9" stroke-width="0.341667" stroke-linecap="round" stroke-linejoin="round"/>
<path d="M2.86499 9.27539H3.20666" stroke="#1870B9" stroke-width="0.341667" stroke-linecap="round" stroke-linejoin="round"/>
<path d="M2.69416 8.5918H0.81499V7.90846H2.69416C2.73946 7.90846 2.78292 7.92646 2.81495 7.9585C2.84699 7.99054 2.86499 8.03399 2.86499 8.0793V8.42096C2.86499 8.46627 2.84699 8.50972 2.81495 8.54176C2.78292 8.5738 2.73946 8.5918 2.69416 8.5918Z" stroke="#1870B9" stroke-width="0.341667" stroke-linecap="round" stroke-linejoin="round"/>
<path d="M0.985832 7.9082H0.644165" stroke="#1870B9" stroke-width="0.341667" stroke-linecap="round" stroke-linejoin="round"/>
<path d="M0.985832 8.5918H0.644165" stroke="#1870B9" stroke-width="0.341667" stroke-linecap="round" stroke-linejoin="round"/>
<path d="M1.83989 6.19987V6.11445C1.83989 6.04649 1.86689 5.98131 1.91495 5.93326C1.963 5.8852 2.02818 5.8582 2.09614 5.8582H2.77948C2.84744 5.8582 2.91262 5.83121 2.96067 5.78315C3.00873 5.73509 3.03573 5.66991 3.03573 5.60195C3.03573 5.53399 3.00873 5.46881 2.96067 5.42076C2.91262 5.3727 2.84744 5.3457 2.77948 5.3457H2.35239M2.35239 6.71237L2.26527 7.06429C2.24133 7.15897 2.1865 7.24297 2.10946 7.303C2.03241 7.36302 1.93756 7.39564 1.83989 7.3957C1.74223 7.39564 1.64737 7.36302 1.57033 7.303C1.49329 7.24297 1.43846 7.15897 1.41452 7.06429L1.32739 6.71237H2.35239Z" stroke="#1870B9" stroke-width="0.341667" stroke-linecap="round" stroke-linejoin="round"/>
</g>
<defs>
<clipPath id="clip0_640_2055">
<rect width="10.9333" height="10.9333" fill="white"/>
</clipPath>
</defs>
</svg>
