<svg width="196" height="86" viewBox="0 0 196 86" fill="none" xmlns="http://www.w3.org/2000/svg">
<g clip-path="url(#clip0_288_1142)">
<path d="M26.7561 35.4537C26.8943 35.3079 26.9912 33.7034 27.1622 33.5962C27.0938 33.8263 27.1252 35.5423 27.1351 35.7823C28.64 36.8111 29.6604 34.1678 30.7249 34.1678C32.653 34.1678 35.0001 29.8142 35.0001 27.881C35.0001 25.9478 32.5712 24.9211 30.7962 24.1661C28.4448 23.1659 26.2949 25.3951 26.0222 27.3095C25.3096 32.3103 25.8968 34.4964 26.7561 35.4537Z" fill="#2F2E41"/>
<path d="M31.3725 31.4694C29.7878 31.4694 28.5031 30.1813 28.5031 28.5924C28.5031 27.0035 29.7878 25.7154 31.3725 25.7154C32.9573 25.7154 34.242 27.0035 34.242 28.5924C34.242 30.1813 32.9573 31.4694 31.3725 31.4694Z" fill="#A0616A"/>
<path d="M35.548 27.9678L34.118 28.1458L33.7664 27.9348L33.7273 28.1944C33.5262 28.2194 33.3219 28.1412 33.2004 27.9785C33.1034 27.8487 32.9839 27.7359 32.8477 27.6487C32.8658 27.7434 32.8796 27.8387 32.889 27.9342C32.9087 28.1337 32.7691 28.3136 32.5707 28.3383L30.4659 28.6003C29.9608 28.6631 29.6518 29.1882 29.841 29.6619C29.841 29.6619 29.3297 28.5535 28.8724 28.881C27.8748 29.5954 25.0013 28.0826 27.4479 25.9251C28.2234 25.2412 28.8512 25.2688 30.0704 25.117C31.8202 23.8818 34.2933 24.5235 35.1548 26.4876C35.3477 26.9276 35.4807 27.424 35.548 27.9678Z" fill="#2F2E41"/>
<path d="M29.2217 46.0344H37.5993C36.8971 44.4633 36.4654 42.9671 37.1403 41.777L29.2217 41.3168C29.6174 42.9234 29.6658 44.5001 29.2217 46.0344Z" fill="#A0616A"/>
<path d="M30.2545 32.1116L33.5827 31.8815L34.9598 33.6074L35.658 33.7347C36.7045 33.9255 37.4497 34.8618 37.403 35.9273L37.1314 42.1159L29.1766 42.6974L27.2707 34.6386L29.566 33.7225L30.2545 32.1116Z" fill="#E6E6E6"/>
<path d="M28.8079 82.7626L30.1716 82.7949L30.9317 76.6523L28.9192 76.6046L28.8079 82.7626Z" fill="#A0616A"/>
<path d="M33.4865 85.6151C33.4865 85.8461 33.323 86.0333 33.1214 86.0333H30.4146C30.4146 86.0333 30.1482 84.9598 29.0622 84.4978L28.9872 86.0333H27.5909L27.76 83.5642C27.76 83.5642 27.3865 82.2433 28.1623 81.568C28.938 80.8928 28.3097 80.9868 28.3097 80.9868L28.6148 79.4586L30.7249 79.7074L30.7404 82.1063L31.7644 84.4874L33.2663 85.2313C33.4 85.2975 33.4865 85.4483 33.4865 85.6151Z" fill="#2F2E41"/>
<path d="M33.7957 82.6198L35.1594 82.652L35.9195 76.5095L33.9071 76.4617L33.7957 82.6198Z" fill="#A0616A"/>
<path d="M38.4743 85.4723C38.4743 85.7033 38.3108 85.8905 38.1092 85.8905H35.4024C35.4024 85.8905 35.136 84.817 34.05 84.355L33.975 85.8905H32.5787L32.7479 83.4214C32.7479 83.4214 32.3743 82.1004 33.1501 81.4252C33.9258 80.75 33.2975 80.844 33.2975 80.844L33.6027 79.3158L35.7127 79.5645L35.7282 81.9634L36.7522 84.3446L38.2541 85.0884C38.3878 85.1546 38.4743 85.3055 38.4743 85.4723Z" fill="#2F2E41"/>
<path d="M37.2802 44.8836L38.4202 48.5985L38.8477 63.7439L35.8852 77.7692L33.601 77.4534L33.0496 58.1054L31.6319 77.4534L28.4183 77.3315C28.4183 77.3315 25.7371 49.3129 29.1114 45.8649L29.4162 44.5619L37.2802 44.8836Z" fill="#2F2E41"/>
<path d="M39.3595 39.1497L44.0609 42.5898L49.0807 44.5482L49.4295 43.3598L45.3163 40.9123L40.2078 36.988L39.3595 39.1497Z" fill="#A0616A"/>
<path d="M49.753 45.0473C49.0746 44.7076 48.6878 44.1049 48.8889 43.701C49.0901 43.2972 49.8031 43.2452 50.4814 43.5849C51.1598 43.9246 51.5467 44.5273 51.3455 44.9311C51.1444 45.335 50.4314 45.387 49.753 45.0473Z" fill="#A0616A"/>
<path d="M36.35 34.2423C36.35 34.2423 34.8894 36.2529 35.945 37.0437C37.0007 37.8345 40.1995 41.5454 40.1995 41.5454L42.8434 38.6301L36.35 34.2423Z" fill="#E6E6E6"/>
<path d="M13.2259 34.22C15.6175 32.2732 19.1304 32.6389 21.0721 35.0368C22.7051 37.0534 23.0682 41.1147 22.4615 43.7536C22.407 43.9907 22.3066 44.2067 22.1727 44.3958L22.485 45.1142C22.5499 45.2635 22.5075 45.4379 22.3814 45.5406L22.3608 45.5574C22.2292 45.6645 22.041 45.6656 21.9081 45.56L21.2869 45.0664C21.1009 45.1326 20.9022 45.1703 20.6966 45.1739C17.6698 45.2274 14.0994 44.1716 12.4112 42.0868C10.4695 39.6889 10.8343 36.1668 13.2259 34.22Z" fill="#FF6584"/>
<path d="M21.2404 45.5962C23.596 47.1543 23.4582 46.2243 22.5526 44.528L22.3396 44.2649L21.0273 45.3331L21.2404 45.5962Z" fill="#3F3D56"/>
<path d="M21.7249 44.9846L23.7632 47.4413L23.8327 47.5244L30.817 56.1375L31.1409 56.5374L31.2445 56.6627L31.3763 56.5553L31.2781 56.4366L30.9489 56.0301L23.964 47.4176L23.4757 46.8295L21.8551 44.8765L21.7249 44.9846Z" fill="#3F3D56"/>
<path d="M31.23 56.6744L31.3625 56.5665L31.2781 56.4367L30.9515 56.028L24.0263 47.3669L22.2074 44.5668L22.0656 44.6592L23.4757 46.8295L23.8944 47.4743L30.8465 56.1134L30.9487 56.2409L31.1409 56.5374L31.23 56.6744Z" fill="#3F3D56"/>
<path d="M21.3491 45.2654L23.7087 47.6254L30.7632 56.1813L31.1939 56.7038L31.314 56.6061L30.9487 56.2409L30.8452 56.1145L23.8406 47.518L23.7632 47.4413L21.4685 45.1453L21.3491 45.2654Z" fill="#3F3D56"/>
<path d="M57.5931 21.5924C60.6492 23.0949 61.9119 26.797 60.4133 29.8612C59.153 32.4381 55.2585 34.6859 52.3376 35.2992C52.0751 35.3543 51.8125 35.3534 51.5612 35.3065L50.9874 35.9535C50.8681 36.088 50.6739 36.1262 50.5127 36.047L50.4865 36.0341C50.3183 35.9514 50.2299 35.7626 50.2739 35.5801L50.4798 34.7266C50.3274 34.5702 50.1975 34.3879 50.0986 34.1828C48.642 31.1639 48.043 27.0841 49.3459 24.42C50.8445 21.3558 54.5369 20.0899 57.5931 21.5924Z" fill="#9DCEEA"/>
<path d="M49.9282 34.9254C49.9746 36.0726 50.3225 36.7067 51.6051 35.7498L51.7696 35.4136L50.0927 34.5891L49.9282 34.9254Z" fill="#3F3D56"/>
<path d="M50.7647 35.1291L49.252 38.3177L49.2011 38.4261L50.3595 50.0975L50.1095 50.6086L50.0323 50.7709L50.2008 50.8537L50.274 50.6999L50.528 50.1804L49.3688 38.5085L49.7308 37.7449L50.9332 35.2099L50.7647 35.1291Z" fill="#3F3D56"/>
<path d="M50.0139 50.7618L50.1832 50.8451L50.274 50.6999L50.5314 50.1821L49.4484 38.5477L51.4063 35.4206L51.2481 35.3209L49.7308 37.7449L49.2799 38.4649L50.3973 50.1161L50.3171 50.2779L50.1096 50.6087L50.0139 50.7618Z" fill="#3F3D56"/>
<path d="M50.3096 34.8814L49.0426 38.3482L50.2908 50.0638L49.9677 50.7392L50.1212 50.8146L50.3171 50.2779L50.3956 50.1153L49.2111 38.4311L49.252 38.3177L50.4851 34.9458L50.3096 34.8814Z" fill="#3F3D56"/>
<path d="M26.2606 41.3465L26.3354 47.1816L27.7835 52.3832L28.9411 51.9503L28.4271 47.1825L28.4947 40.7303L26.2606 41.3465Z" fill="#A0616A"/>
<path d="M27.7884 53.2219C27.6526 52.4739 27.9016 51.802 28.3445 51.7212C28.7875 51.6403 29.2566 52.1811 29.3925 52.9291C29.5283 53.677 29.2793 54.3489 28.8364 54.4298C28.3934 54.5106 27.9243 53.9698 27.7884 53.2219Z" fill="#A0616A"/>
<path d="M28.0178 34.3986C28.0178 34.3986 25.5372 34.4328 25.5393 35.754C25.5414 37.0752 25.8134 41.9924 25.8134 41.9924L29.7258 42.3647L28.0178 34.3986Z" fill="#E6E6E6"/>
</g>
<path d="M157.3 41.3435C159.767 37.4916 158.826 32.4932 156.203 30.8198C153.58 29.1465 148.639 30.3932 146.172 34.2452C143.888 37.8106 144.642 42.431 146.726 44.3486C146.686 44.3549 146.648 44.3689 146.613 44.3897L146.003 44.7714C145.956 44.8005 145.918 44.841 145.891 44.889C145.865 44.937 145.851 44.991 145.852 45.0458C145.852 45.1006 145.866 45.1544 145.893 45.2021C145.92 45.2498 145.959 45.2898 146.006 45.3183L147.317 46.1152C147.363 46.1437 147.417 46.1598 147.472 46.1619C147.527 46.164 147.581 46.1521 147.63 46.1273C147.679 46.1025 147.721 46.0656 147.751 46.0201C147.782 45.9747 147.801 45.9222 147.805 45.8675L147.865 45.1512C147.867 45.1262 147.865 45.1012 147.861 45.0765C150.481 46.1735 155.011 44.9167 157.3 41.3435Z" fill="#9DCEEA"/>
<path d="M156.046 33.7447C156.446 35.0277 156.343 36.4148 155.756 37.6243C155.169 38.8338 154.143 39.7752 152.886 40.2572C152.599 40.3676 152.723 40.834 153.014 40.7221C154.393 40.2026 155.521 39.179 156.171 37.8593C156.82 36.5396 156.942 35.0227 156.512 33.6165C156.422 33.3204 155.955 33.4466 156.046 33.7447Z" fill="white"/>
<path d="M67.9586 27.3342C70.5057 23.9325 75.1676 23.1116 77.4842 24.8391C79.8009 26.5666 80.333 31.2609 77.7858 34.6626C75.4281 37.8113 71.1565 38.67 68.8038 37.4904C68.8114 37.5272 68.8118 37.5651 68.8051 37.6021L68.6725 38.2566C68.6624 38.3065 68.6397 38.353 68.6065 38.3916C68.5733 38.4303 68.5308 38.4598 68.4829 38.4775C68.4351 38.4951 68.3835 38.5003 68.3331 38.4924C68.2827 38.4846 68.2352 38.464 68.195 38.4327L67.0717 37.557C67.0315 37.5256 67 37.4846 66.9802 37.4377C66.9604 37.3908 66.9529 37.3396 66.9585 37.289C66.9641 37.2384 66.9825 37.1901 67.0121 37.1486C67.0417 37.1071 67.0813 37.0738 67.1274 37.052L67.7316 36.7652C67.7529 36.7557 67.7752 36.7487 67.7981 36.7444C65.9846 34.831 65.5957 30.4898 67.9586 27.3342Z" fill="#E6E6E6"/>
<path d="M73.5302 26.0499C72.2842 26.2474 71.1617 26.9148 70.3945 27.9143C69.6273 28.9137 69.2739 30.169 69.4072 31.421C69.4346 31.7078 68.9856 31.7059 68.9584 31.421C68.83 30.0716 69.2175 28.7236 70.0432 27.6473C70.869 26.5711 72.0719 25.8462 73.4108 25.618C73.6934 25.5701 73.8148 26.0016 73.5302 26.0499Z" fill="white"/>
<path d="M132.067 75.3628C134.069 72.2374 133.306 68.1816 131.177 66.8238C129.049 65.4661 125.04 66.4777 123.038 69.6031C121.185 72.4962 121.797 76.2452 123.488 77.8012C123.455 77.8063 123.424 77.8176 123.396 77.8344L122.901 78.1442C122.863 78.1678 122.832 78.2007 122.81 78.2396C122.789 78.2786 122.778 78.3224 122.778 78.3669C122.778 78.4113 122.79 78.455 122.812 78.4937C122.834 78.5324 122.865 78.5648 122.903 78.5879L123.967 79.2346C124.005 79.2577 124.048 79.2707 124.092 79.2725C124.137 79.2742 124.181 79.2645 124.221 79.2444C124.261 79.2243 124.295 79.1943 124.319 79.1574C124.344 79.1205 124.359 79.0779 124.363 79.0336L124.412 78.4524C124.413 78.4321 124.412 78.4118 124.408 78.3918C126.534 79.2819 130.21 78.2621 132.067 75.3628Z" fill="#F2F2F2"/>
<path d="M103.536 36.1434C106.236 36.1434 108.424 33.9591 108.424 31.2646C108.424 28.5702 106.236 26.3859 103.536 26.3859C100.836 26.3859 98.6468 28.5702 98.6468 31.2646C98.6468 33.9591 100.836 36.1434 103.536 36.1434Z" fill="#2F2E41"/>
<path d="M111.825 78.3924L110.049 79.2536L105.875 72.8274L108.496 71.5562L111.825 78.3924Z" fill="#A0616A"/>
<path d="M108.534 79.3625L111.959 77.7015L113.007 79.8536L107.425 82.5604C107.287 82.2778 107.207 81.9709 107.188 81.6573C107.169 81.3436 107.213 81.0293 107.316 80.7324C107.419 80.4354 107.579 80.1616 107.788 79.9265C107.997 79.6915 108.25 79.4998 108.534 79.3625Z" fill="#2F2E41"/>
<path d="M108.281 78.2244C108.224 78.2244 108.166 78.2177 108.11 78.2045C108.004 78.1788 107.904 78.1301 107.818 78.0618C107.732 77.9936 107.662 77.9074 107.612 77.8092L102.847 68.383C102.769 68.2273 102.745 68.0501 102.78 67.8795C102.814 67.7089 102.905 67.5547 103.037 67.4414L105.691 65.2136C105.78 65.1373 105.887 65.0837 106.001 65.0571C106.116 65.0306 106.235 65.0319 106.349 65.061C106.466 65.09 106.573 65.1466 106.663 65.2258C106.753 65.305 106.823 65.4047 106.866 65.5163L110.94 75.7238C111.003 75.8822 111.013 76.0572 110.967 76.2216C110.921 76.3859 110.821 76.5304 110.684 76.6325L108.722 78.0789C108.595 78.1732 108.44 78.2243 108.281 78.2244Z" fill="#2F2E41"/>
<path d="M106.589 82.9261L104.769 83.6913L100.946 77.0516L103.631 75.9221L106.589 82.9261Z" fill="#A0616A"/>
<path d="M103.251 83.7192L106.76 82.2434L107.691 84.4483L101.972 86.8534C101.85 86.5638 101.786 86.2531 101.784 85.9389C101.782 85.6247 101.842 85.3131 101.961 85.0221C102.08 84.7311 102.255 84.4662 102.476 84.2427C102.697 84.0191 102.96 83.8412 103.251 83.7192Z" fill="#2F2E41"/>
<path d="M103.69 82.9049C103.562 82.9049 103.436 82.871 103.325 82.8066C103.215 82.7422 103.123 82.6495 103.06 82.5382C102.398 81.3673 100.604 78.1127 98.2613 73.19C95.4806 67.3478 101.64 60.8727 102.903 59.6342C102.959 59.5782 103.004 59.5108 103.032 59.4364C103.061 59.362 103.074 59.2824 103.069 59.2028L102.796 54.2891C102.785 54.1106 102.842 53.9347 102.954 53.7955C103.066 53.6562 103.226 53.5634 103.403 53.5352L110.676 52.3578C110.801 52.3379 110.93 52.3511 111.049 52.3961C111.168 52.4411 111.273 52.5163 111.354 52.6143C112.583 54.1026 113.111 55.7036 112.923 57.3731C112.54 60.7816 109.323 63.355 108.957 63.6372C108.942 63.6486 108.928 63.6609 108.914 63.6739L102.331 69.9378C102.249 70.0156 102.192 70.1164 102.168 70.2269C102.145 70.3375 102.155 70.4527 102.198 70.5572L106.271 80.533C106.332 80.6831 106.341 80.8495 106.297 81.0054C106.252 81.1613 106.156 81.2976 106.024 81.3922L104.115 82.7677C103.991 82.8569 103.843 82.9049 103.69 82.9049Z" fill="#2F2E41"/>
<path d="M97.3183 49.1156C97.1555 49.1158 96.9973 49.0614 96.8692 48.9611L91.001 44.3589C90.9462 44.3782 90.8905 44.3945 90.8341 44.4079C90.493 44.4879 90.1357 44.4652 89.8076 44.3426C89.4794 44.22 89.1951 44.0031 88.9905 43.7192C88.7859 43.4354 88.6702 43.0973 88.6581 42.7479C88.646 42.3984 88.7381 42.0532 88.9226 41.7559C89.1071 41.4587 89.3758 41.2227 89.6946 41.0778C90.0135 40.9329 90.3683 40.8856 90.7141 40.942C91.06 40.9983 91.3813 41.1557 91.6374 41.3943C91.8936 41.6329 92.0731 41.9419 92.1533 42.2823C92.171 42.3591 92.1833 42.4371 92.1902 42.5156L97.2066 46.1527L99.1244 44.1907L101.011 46.655L97.7388 48.9821C97.6159 49.0692 97.4689 49.1159 97.3183 49.1156Z" fill="#A0616A"/>
<path d="M102.943 37.3825C105.127 37.3825 106.898 35.6151 106.898 33.4348C106.898 31.2545 105.127 29.4871 102.943 29.4871C100.758 29.4871 98.9868 31.2545 98.9868 33.4348C98.9868 35.6151 100.758 37.3825 102.943 37.3825Z" fill="#A0616A"/>
<path d="M104.81 56.7146C104.489 56.7172 104.169 56.6601 103.868 56.5464C103.42 56.3725 103.044 56.0502 102.805 55.6333C101.584 53.506 98.9501 46.9134 101.403 42.0182C103.054 38.7219 104.881 37.9384 106.123 37.8613C107.269 37.7907 107.491 38.0439 107.874 39.0732C108.087 39.6441 108.5 40.4601 108.978 41.4051C110.696 44.7974 113.291 49.9238 111.119 52.4733C108.775 55.226 106.538 56.7145 104.81 56.7146Z" fill="#9DCEEA"/>
<path d="M101.606 47.4194C101.49 47.4194 101.378 47.3813 101.286 47.3111L98.2021 44.9629C98.1415 44.9168 98.0916 44.8581 98.0558 44.7909C98.02 44.7237 97.9992 44.6495 97.9949 44.5736C97.9905 44.4976 98.0026 44.4216 98.0304 44.3507C98.0582 44.2799 98.1011 44.2159 98.156 44.1631L101.12 41.3143C101.321 41.1207 101.58 40.9979 101.858 40.9645C102.136 40.9311 102.417 40.9889 102.659 41.1293C102.9 41.2696 103.09 41.4848 103.198 41.7422C103.306 41.9996 103.328 42.2852 103.259 42.5558L102.119 47.0217C102.09 47.1355 102.024 47.2363 101.931 47.3084C101.838 47.3804 101.724 47.4195 101.606 47.4194Z" fill="#9DCEEA"/>
<path d="M104.433 53.8868C104.051 53.885 103.679 53.76 103.373 53.5304C103.067 53.3007 102.844 52.9787 102.736 52.6122C102.667 52.373 102.649 52.1218 102.683 51.875C102.717 51.6283 102.803 51.3915 102.936 51.1803C103.068 50.9691 103.244 50.7882 103.451 50.6495C103.659 50.5107 103.893 50.4173 104.139 50.3752C104.217 50.3624 104.296 50.3549 104.375 50.3529L109.608 43.9025L107.861 42.0235L110.441 40.296L112.568 43.6978C112.65 43.8308 112.688 43.9867 112.674 44.1425C112.661 44.2983 112.597 44.4456 112.493 44.5625L106.145 51.6507C106.161 51.7064 106.174 51.7628 106.184 51.8199C106.226 52.0655 106.216 52.3172 106.154 52.5585C106.091 52.7997 105.979 53.0252 105.823 53.2201C105.668 53.4149 105.473 53.5747 105.251 53.6891C105.029 53.8035 104.785 53.8697 104.536 53.8836C104.502 53.8857 104.467 53.8868 104.433 53.8868Z" fill="#A0616A"/>
<path d="M107.92 43.6288C107.83 43.6287 107.741 43.6056 107.663 43.5617C107.584 43.5177 107.517 43.4544 107.47 43.3778L105.311 39.8824C105.173 39.6583 105.107 39.3976 105.123 39.1352C105.138 38.8729 105.233 38.6214 105.395 38.4144C105.579 38.1831 105.837 38.0217 106.125 37.9572C106.414 37.8927 106.716 37.9291 106.981 38.0602L111.112 40.1211C111.19 40.1601 111.257 40.2179 111.307 40.2892C111.358 40.3605 111.39 40.4432 111.4 40.5298C111.411 40.6164 111.4 40.7043 111.368 40.7855C111.336 40.8668 111.284 40.9389 111.218 40.9954L108.263 43.5029C108.167 43.5841 108.046 43.6287 107.92 43.6288Z" fill="#9DCEEA"/>
<path d="M99.7207 37.556L102.497 35.8495L102.294 35.5204L99.6799 37.1271C99.6113 36.9541 99.4824 36.8116 99.3169 36.7259C99.1514 36.6401 98.9605 36.6168 98.7792 36.6603C98.5979 36.7038 98.4384 36.8111 98.33 36.9625C98.2216 37.1139 98.1716 37.2993 98.1892 37.4845C98.2068 37.6698 98.2908 37.8425 98.4258 37.9709C98.5608 38.0993 98.7376 38.1747 98.9239 38.1834C99.1101 38.1921 99.2933 38.1335 99.4397 38.0182C99.586 37.9029 99.6858 37.7388 99.7207 37.556Z" fill="#3F3D56"/>
<path d="M105.686 27.3374C105.686 27.3374 103.832 29.1549 99.807 29.7287C95.7819 30.3026 98.9445 36.6148 98.9445 36.6148C98.9445 36.6148 97.7944 34.3194 100.094 32.311C102.395 30.3026 105.686 29.9197 105.686 27.3374Z" fill="#2F2E41"/>
<path d="M103.716 26.0516C103.716 26.0516 104.866 30.0684 106.591 30.6423C108.316 31.2161 107.453 37.2414 104.578 37.8153C104.578 37.8153 107.022 34.5157 105.584 31.9334C104.147 29.3511 103.284 27.3427 103.716 26.0516Z" fill="#2F2E41"/>
<path d="M106.397 29.0197C106.379 29.0159 106.361 29.0111 106.344 29.0053L101.837 27.4694C101.764 27.4446 101.699 27.4014 101.648 27.344C101.597 27.2865 101.562 27.2169 101.546 27.1418C101.53 27.0668 101.534 26.9889 101.558 26.9159C101.581 26.8428 101.623 26.7771 101.68 26.7252L105.292 23.4135C105.35 23.36 105.422 23.323 105.499 23.3065C105.577 23.29 105.657 23.2945 105.732 23.3196C105.808 23.3447 105.875 23.3894 105.927 23.449C105.978 23.5087 106.013 23.5812 106.028 23.6589L106.923 28.5066C106.936 28.578 106.932 28.6515 106.91 28.7207C106.888 28.7898 106.849 28.8525 106.797 28.9032C106.745 28.9539 106.681 28.991 106.611 29.0114C106.542 29.0317 106.468 29.0345 106.397 29.0197Z" fill="#9DCEEA"/>
<path d="M104.303 24.4402L106.154 24.8334L106.054 24.2901L104.766 24.0164L104.303 24.4402Z" fill="#E6E6E6"/>
<path d="M103.918 24.7935L106.238 25.2861L106.339 25.8294L103.456 25.2172L103.918 24.7935Z" fill="#E6E6E6"/>
<path d="M103.572 20.8928L104.163 22.7162C104.181 22.7771 104.222 22.8286 104.277 22.86C104.333 22.8914 104.398 22.9002 104.46 22.8846C104.521 22.867 104.573 22.8261 104.605 22.7707C104.636 22.7152 104.645 22.6496 104.629 22.588L104.038 20.7646C104.02 20.7037 103.979 20.6522 103.923 20.6208C103.868 20.5894 103.802 20.5806 103.741 20.5962C103.679 20.6138 103.627 20.6547 103.596 20.7101C103.564 20.7656 103.556 20.8312 103.572 20.8928Z" fill="#CCCCCC"/>
<path d="M106.441 20.2742L105.878 22.1834C105.79 22.4817 106.256 22.6091 106.344 22.3116L106.907 20.4024C106.995 20.1041 106.529 19.9767 106.441 20.2742Z" fill="#CCCCCC"/>
<path d="M108.523 22.0222L107.131 23.4475C106.914 23.6702 107.266 24.0003 107.483 23.7782L108.875 22.3529C109.092 22.1302 108.74 21.8001 108.523 22.0222Z" fill="#CCCCCC"/>
<path d="M131.049 69.1971C131.374 70.2381 131.29 71.3636 130.814 72.345C130.338 73.3265 129.505 74.0903 128.486 74.4813C128.253 74.571 128.354 74.9494 128.59 74.8586C129.708 74.4371 130.624 73.6065 131.151 72.5357C131.678 71.4649 131.777 70.2341 131.427 69.0931C131.354 68.8528 130.976 68.9552 131.049 69.1971Z" fill="white"/>
<path d="M144.737 12.2505C147.204 8.39854 146.264 3.40007 143.64 1.72675C141.017 0.0534303 136.076 1.30015 133.609 5.15208C131.325 8.7175 132.08 13.3379 134.164 15.2555C134.124 15.2619 134.085 15.2758 134.05 15.2966L133.44 15.6783C133.393 15.7074 133.355 15.7479 133.329 15.7959C133.302 15.844 133.289 15.8979 133.289 15.9527C133.289 16.0075 133.304 16.0613 133.331 16.109C133.358 16.1567 133.397 16.1967 133.443 16.2252L134.754 17.0221C134.801 17.0506 134.854 17.0667 134.909 17.0688C134.964 17.0709 135.018 17.059 135.067 17.0342C135.116 17.0094 135.158 16.9725 135.189 16.9271C135.219 16.8816 135.238 16.8291 135.242 16.7745L135.303 16.0582C135.304 16.0332 135.303 16.0081 135.298 15.9834C137.918 17.0804 142.448 15.8236 144.737 12.2505Z" fill="#E6E6E6"/>
<path d="M143.483 4.65161C143.884 5.93459 143.78 7.32167 143.193 8.5312C142.606 9.74074 141.58 10.6821 140.323 11.164C140.036 11.2745 140.161 11.7409 140.452 11.629C141.83 11.1095 142.958 10.0859 143.608 8.7662C144.257 7.44649 144.379 5.92955 143.949 4.52342C143.859 4.22726 143.392 4.35349 143.483 4.65161Z" fill="white"/>
<path d="M76.811 5.40594C74.0688 1.74383 69.05 0.860014 66.5561 2.71979C64.0621 4.57957 63.4893 9.63319 66.2314 13.2953C68.7696 16.685 73.3682 17.6095 75.9011 16.3395C75.8929 16.3792 75.8924 16.42 75.8996 16.4599L76.0424 17.1644C76.0533 17.2181 76.0777 17.2681 76.1134 17.3098C76.1492 17.3514 76.1949 17.3832 76.2464 17.4022C76.2979 17.4212 76.3535 17.4267 76.4077 17.4183C76.462 17.4099 76.5132 17.3877 76.5564 17.354L77.7657 16.4112C77.8089 16.3775 77.8429 16.3333 77.8642 16.2828C77.8855 16.2323 77.8936 16.1772 77.8876 16.1227C77.8816 16.0683 77.8617 16.0162 77.8299 15.9716C77.7981 15.9269 77.7553 15.8911 77.7057 15.8676L77.0553 15.5588C77.0324 15.5486 77.0083 15.5411 76.9837 15.5364C78.936 13.4766 79.3547 8.80304 76.811 5.40594Z" fill="#9DCEEA"/>
<path d="M70.8129 4.02316C72.1543 4.23579 73.3627 4.95424 74.1886 6.03022C75.0146 7.10619 75.395 8.45755 75.2515 9.80536C75.222 10.1141 75.7054 10.1121 75.7347 9.80536C75.8729 8.35264 75.4558 6.90147 74.5668 5.74285C73.6778 4.58423 72.3828 3.80385 70.9414 3.55819C70.6372 3.5066 70.5065 3.97118 70.8129 4.02316Z" fill="white"/>
<path d="M65.8025 51.7953C67.0014 51.8707 68.1653 52.2285 69.1989 52.8395C70.2325 53.4505 71.1062 54.2972 71.7486 55.3102C71.9286 55.5974 72.1636 55.913 72.039 56.2665C71.9956 56.402 71.9073 56.5189 71.7888 56.5979C71.6702 56.6769 71.5283 56.7135 71.3862 56.7016C71.0188 56.657 70.7817 56.2983 70.7364 55.9546C70.6851 55.5647 70.9607 55.2586 71.3009 55.1138C72.1325 54.7598 72.9714 55.3068 73.6487 55.7434C75.192 56.7382 76.8896 57.6378 78.7597 57.7512C80.4899 57.8561 82.3454 57.1791 83.3078 55.6817C83.4761 55.4197 83.0581 55.1776 82.8906 55.4383C81.9361 56.9233 80.0066 57.4567 78.3289 57.2272C77.3291 57.0697 76.3637 56.7426 75.4745 56.2601C75.0134 56.0212 74.5662 55.7565 74.128 55.4782C73.711 55.1879 73.269 54.935 72.8072 54.7226C72.0371 54.4069 71.0176 54.4316 70.4797 55.1585C69.9778 55.8366 70.3657 56.9655 71.2051 57.1562C72.0006 57.3368 72.6974 56.5902 72.5337 55.8096C72.45 55.4103 72.1487 55.0195 71.9154 54.6931C71.2147 53.7093 70.3017 52.895 69.2437 52.31C68.1858 51.7251 67.0098 51.3844 65.8025 51.3131C65.4917 51.2978 65.4925 51.78 65.8025 51.7953Z" fill="#9DCEEA"/>
<path d="M138.183 51.383C137.076 51.9723 135.84 52.2785 134.585 52.2743C133.331 52.2701 132.097 51.9555 130.994 51.3588C130.744 51.2213 130.534 51.0645 130.506 50.76C130.491 50.6345 130.515 50.5076 130.574 50.3958C130.633 50.284 130.724 50.1926 130.836 50.1336C131.183 49.9646 131.596 50.1617 131.813 50.4503C132.046 50.7607 131.953 51.1635 131.737 51.4558C131.179 52.2117 130.124 52.14 129.289 52.1232C127.491 52.0869 125.601 52.2303 123.99 53.1018C122.477 53.9208 121.262 55.457 121.228 57.2245C121.222 57.5349 121.705 57.5349 121.711 57.2245C121.744 55.4803 123.065 54.0429 124.586 53.3428C125.53 52.9343 126.54 52.6973 127.567 52.6428C128.069 52.6055 128.572 52.5957 129.075 52.6018C129.576 52.6283 130.079 52.6176 130.579 52.5697C131.441 52.4519 132.368 51.8975 132.432 50.9404C132.489 50.0743 131.503 49.3396 130.691 49.6735C130.542 49.7401 130.409 49.838 130.302 49.9605C130.194 50.083 130.115 50.2272 130.068 50.3833C130.022 50.5394 130.01 50.7036 130.033 50.8647C130.056 51.0259 130.114 51.1802 130.202 51.317C130.419 51.6475 130.806 51.8166 131.152 51.9803C132.294 52.5207 133.547 52.7859 134.811 52.7544C136.075 52.723 137.313 52.3959 138.427 51.7994C138.7 51.6501 138.456 51.2335 138.183 51.383Z" fill="#FF6584"/>
<path d="M116.355 20.1167C118.529 20.8629 120.051 23.0617 120.18 25.3255C120.246 26.4746 119.973 27.803 119.114 28.6299C118.924 28.8307 118.687 28.9811 118.424 29.0674C118.161 29.1536 117.88 29.173 117.608 29.1239C117.134 29.021 116.639 28.6982 116.558 28.1856C116.48 27.6904 116.819 27.2812 117.23 27.0555C117.463 26.9292 117.72 26.8511 117.984 26.8261C118.249 26.801 118.515 26.8295 118.768 26.9098C119.439 27.1178 120.007 27.5641 120.548 27.9949C121.077 28.4323 121.639 28.8276 122.229 29.1774C124.557 30.5158 127.318 30.8933 129.921 30.2295C132.525 29.5657 134.765 27.913 136.165 25.624C136.335 25.3493 136.491 25.0666 136.633 24.7761C136.769 24.4985 136.353 24.2539 136.216 24.5328C135.601 25.7988 134.721 26.9182 133.635 27.815C132.549 28.7119 131.283 29.3651 129.922 29.7305C128.561 30.096 127.137 30.165 125.746 29.9329C124.356 29.7009 123.032 29.1732 121.864 28.3856C120.739 27.6335 119.661 26.3414 118.198 26.3321C117.121 26.3253 115.826 27.1379 116.102 28.3609C116.227 28.9172 116.698 29.318 117.215 29.5107C117.492 29.6133 117.789 29.654 118.084 29.6299C118.379 29.6057 118.666 29.5173 118.923 29.3708C120.064 28.7316 120.562 27.3126 120.656 26.0795C120.842 23.6567 119.47 21.1437 117.313 20.0078C117.046 19.868 116.769 19.7489 116.484 19.6517C116.189 19.5506 116.062 20.0162 116.355 20.1167Z" fill="#E6E6E6"/>
<path d="M191.408 35.5444L190.567 35.8129C190.556 35.767 190.544 35.7211 190.53 35.6751C190.421 35.3226 190.372 35.9561 190.088 35.7211C190.109 36.025 189.673 32.901 189.631 33.2014C189.613 33.3277 189.765 35.4207 189.736 35.5444L183.205 35.6071C183.242 34.9754 182.907 35.2184 182.611 34.6609C182.436 35.1848 182.408 34.8049 182.131 35.2793C182.015 35.4799 181.891 35.6725 181.757 35.8606C181.693 35.9534 181.625 36.0444 181.556 36.1345L181.467 36.1628L181.027 27.5047C181.027 24.6502 183.49 23.2641 185.426 25.1193C186.454 26.1051 188.969 24.8145 189.549 25.7493C190.128 26.6849 190.352 27.9765 190.352 29.4042L191.408 35.5444Z" fill="#2F2E41"/>
<path d="M181.109 84.7226L182.526 84.7562L183.316 78.3634L181.225 78.3137L181.109 84.7226Z" fill="#FFB7B7"/>
<path d="M185.97 87.6914C185.97 87.9318 185.8 88.1266 185.591 88.1266H182.778C182.778 88.1266 182.502 87.0093 181.373 86.5285L181.295 88.1266H179.844L180.02 85.5569C180.02 85.5569 179.632 84.1821 180.438 83.4794C181.244 82.7766 180.591 82.8745 180.591 82.8745L180.908 81.284L183.101 81.5429L183.117 84.0396L184.181 86.5177L185.741 87.2919C185.88 87.3608 185.97 87.5178 185.97 87.6914Z" fill="#2F2E41"/>
<path d="M185.42 83.6809L186.782 84.0745L189.161 78.0922L187.151 77.5113L185.42 83.6809Z" fill="#FFB7B7"/>
<path d="M189.372 87.7913C189.311 88.0238 189.097 88.169 188.895 88.1156L186.174 87.3989C186.174 87.3989 186.189 86.2477 185.219 85.495L184.74 87.021L183.336 86.6512L184.156 84.2105C184.156 84.2105 184.128 82.7818 185.085 82.3074C186.042 81.8331 185.386 81.7613 185.386 81.7613L186.094 80.3037L188.15 81.1129L187.534 83.5319L187.937 86.2L189.251 87.3466C189.368 87.4486 189.415 87.6234 189.372 87.7913Z" fill="#2F2E41"/>
<path d="M188.857 33.2072L184.546 33.6489L181.819 49.3748L190.088 50.7L188.857 33.2072Z" fill="#9DCEEA"/>
<path d="M180.587 36.1226L181.027 46.3709L177.157 53.1737L179.972 55.7358C179.972 55.7358 185.162 45.3991 185.338 42.572C185.514 39.7448 184.502 33.9039 184.502 33.9039L180.587 36.1226Z" fill="#2F2E41"/>
<path d="M192.903 36.1226L192.464 46.3709L196.334 53.1737L190.352 55.9124C190.352 55.9124 188.329 45.3991 188.153 42.572C187.977 39.7448 188.989 33.9039 188.989 33.9039L192.903 36.1226Z" fill="#2F2E41"/>
<path d="M182.347 48.403L180.323 48.668L179.18 60.9483L180.763 79.5416H183.354L185.25 58.828L188.593 66.6025L186.147 79.5416L188.593 79.7921L193.519 66.3375L190.088 50.7L182.347 48.403Z" fill="#2F2E41"/>
<path d="M190.651 59.4891C190.746 59.1506 190.91 58.8618 191.105 58.6559L191.814 55.3734L193.36 55.7579L192.474 59.0463C192.533 59.3245 192.521 59.6566 192.425 59.9951C192.207 60.7684 191.632 61.282 191.142 61.1423C190.652 61.0025 190.432 60.2624 190.651 59.4891Z" fill="#FFB6B6"/>
<path d="M190.865 35.4587C190.865 35.4587 193.718 35.3127 193.926 37.213C194.134 39.1132 194.798 49.9356 194.798 49.9356L193.257 57.2405L191.06 56.9339L192.031 47.6356L190.865 35.4587Z" fill="#2F2E41"/>
<path d="M166.409 41.1346C166.734 41.27 167.001 41.4678 167.183 41.6871L170.358 42.7802L169.796 44.2821L166.636 43.0117C166.353 43.0375 166.025 42.987 165.7 42.8517C164.958 42.5425 164.515 41.9075 164.711 41.4334C164.907 40.9592 165.667 40.8255 166.409 41.1346Z" fill="#FFB6B6"/>
<path d="M184.538 36.5768L177.295 46.3954L168.805 44.0475L169.174 41.8232L175.639 43.0529L179.246 37.4843C180.424 35.1981 182.745 34.7376 184.538 36.5768Z" fill="#2F2E41"/>
<path d="M186.384 32.3126C188.138 32.3126 189.561 30.8842 189.561 29.1223C189.561 27.3604 188.138 25.9321 186.384 25.9321C184.63 25.9321 183.207 27.3604 183.207 29.1223C183.207 30.8842 184.63 32.3126 186.384 32.3126Z" fill="#FFB7B7"/>
<path d="M191.056 29.0067H189.986L189.695 28.6133C189.554 28.6133 189.45 28.9915 189.315 28.9627C188.902 28.8746 188.524 28.6592 188.214 28.3588C188.188 28.3335 188.161 28.3091 188.133 28.2858L188.133 28.293C188.158 28.682 187.838 29.0067 187.45 29.0067H185.387C184.823 29.0067 184.412 29.5422 184.556 30.0894L184.37 36.7813C184.37 35.4154 178.353 28.4413 182.435 25.6495C183.38 25.0032 184.066 25.1194 185.426 25.1194C187.516 23.9998 190.146 25.0446 190.825 27.324C190.977 27.8346 191.056 28.3991 191.056 29.0067Z" fill="#2F2E41"/>
<path d="M166.006 6.34802C161.606 6.34802 158.039 9.93027 158.039 14.3492C158.039 18.0654 161.283 22.9047 164.325 25.2872C164.598 25.5012 164.904 25.6503 165.222 25.7394L165.521 26.8196C165.583 27.0441 165.786 27.1996 166.018 27.1996H166.056C166.298 27.1996 166.508 27.0306 166.561 26.7933L166.806 25.6834C167.072 25.5886 167.326 25.4509 167.557 25.2691C170.962 22.5918 173.973 18.1911 173.973 14.3492C173.973 9.93027 170.406 6.34802 166.006 6.34802Z" fill="#9DCEEA"/>
<path d="M167.334 26.2297C166.376 28.6386 165.606 28.0897 164.919 26.2297V25.7448H167.334L167.334 26.2297Z" fill="#3F3D56"/>
<path d="M166.247 25.9885L166.193 30.5601L166.19 30.7153L166.179 46.5964V47.3334L166.177 47.5662H165.934L165.937 47.3456V46.5964L165.949 30.7153L165.962 29.6206L166.006 25.9861L166.247 25.9885Z" fill="#3F3D56"/>
<path d="M166.204 47.5662H165.96L165.937 47.3455L165.932 46.5963L165.834 30.7152L165.337 25.9606L165.577 25.9351L165.962 29.6205L166.077 30.7152L166.125 46.5963L166.126 46.8303L166.18 47.3334L166.204 47.5662Z" fill="#3F3D56"/>
<path d="M166.916 25.9606L166.419 30.7152L166.278 46.5963L166.27 47.5662H166.049L166.126 46.8303L166.128 46.5963L166.176 30.7152L166.193 30.56L166.676 25.9351L166.916 25.9606Z" fill="#3F3D56"/>
<defs>
<clipPath id="clip0_288_1142">
<rect width="64.8926" height="73.8777" fill="white" transform="matrix(-1 0 0 1 65.2645 15)"/>
</clipPath>
</defs>
</svg>
