<svg width="337" height="330" viewBox="0 0 337 330" fill="none" xmlns="http://www.w3.org/2000/svg">
<g opacity="0.6">
<path d="M334.647 328.479H1.9676C0.88966 328.429 0.0931779 327.861 0.161232 327.208C0.0914975 326.562 0.887979 325.995 1.9676 325.945H334.647C335.596 326.015 336.346 326.47 336.463 327.045C336.615 327.748 335.807 328.386 334.647 328.479Z" fill="#F2F2F2"/>
<path d="M185.501 187.542H62.4091L62.3784 187.445L62.3477 187.347C61.9453 186.061 61.5773 184.758 61.2463 183.446C60.9152 182.134 60.6208 180.814 60.3641 179.494C60.0171 177.702 59.739 175.891 59.5311 174.075C59.3231 172.259 59.1862 170.437 59.1206 168.621C59.0067 165.402 59.5403 162.194 60.6893 159.187C61.8383 156.181 63.5792 153.438 65.8077 151.124C68.0362 148.809 70.7065 146.971 73.6588 145.718C76.611 144.465 79.7844 143.824 82.989 143.832H167.253C170.604 143.827 173.918 144.531 176.98 145.898C180.042 147.266 182.783 149.268 185.024 151.771C187.265 154.275 188.955 157.226 189.985 160.43C191.015 163.635 191.361 167.022 191.001 170.37C190.761 172.534 190.358 174.678 189.795 176.781C189.213 178.957 188.479 181.089 187.598 183.16C187.298 183.866 186.979 184.573 186.641 185.282C186.303 185.991 185.949 186.695 185.579 187.393L185.54 187.467L185.501 187.542Z" fill="#F2F2F2"/>
<path d="M168.159 152.602H79.7881C77.8411 152.602 75.9738 151.824 74.5971 150.441C73.2204 149.057 72.4469 147.18 72.4469 145.224C72.4469 143.267 73.2204 141.39 74.5971 140.007C75.9738 138.623 77.8411 137.846 79.7881 137.846H168.159C170.106 137.846 171.973 138.623 173.35 140.007C174.727 141.39 175.5 143.267 175.5 145.224C175.5 147.18 174.727 149.057 173.35 150.441C171.973 151.824 170.106 152.602 168.159 152.602Z" fill="#3498DB"/>
<path d="M169.274 147.5H79.3221L79.2612 147.305C77.8695 142.868 77.0763 138.264 76.9029 133.615C76.8232 131.257 77.2169 128.906 78.0605 126.704C78.9042 124.502 80.1805 122.493 81.8134 120.797C83.4462 119.101 85.4022 117.753 87.5646 116.833C89.7271 115.913 92.0517 115.44 94.3998 115.443H155.909C158.365 115.44 160.794 115.958 163.038 116.961C165.281 117.964 167.29 119.431 168.932 121.267C170.574 123.102 171.813 125.264 172.569 127.612C173.324 129.961 173.579 132.443 173.317 134.897C172.797 139.264 171.451 143.492 169.352 147.351L169.274 147.5Z" fill="#F2F2F2"/>
<path d="M157.078 124.761H91.9771C90.0301 124.761 88.1629 123.984 86.7861 122.601C85.4094 121.217 84.6359 119.34 84.6359 117.384C84.6359 115.427 85.4094 113.55 86.7861 112.167C88.1629 110.783 90.0301 110.006 91.9771 110.006H157.078C159.025 110.006 160.892 110.783 162.269 112.167C163.645 113.55 164.419 115.427 164.419 117.384C164.419 119.34 163.645 121.217 162.269 122.601C160.892 123.984 159.025 124.761 157.078 124.761Z" fill="#3498DB"/>
<path d="M161.415 98.8114C160.051 97.283 158.381 96.0603 156.516 95.2228C154.65 94.3853 152.63 93.9518 150.586 93.9504H99.7258C97.7783 93.9485 95.8502 94.3406 94.0567 95.1035C92.2632 95.8664 90.6408 96.9845 89.2864 98.391C87.932 99.7975 86.8733 101.464 86.1733 103.29C85.4734 105.117 85.1466 107.066 85.2123 109.022C85.3554 112.871 86.0113 116.683 87.1628 120.356L87.2237 120.551H161.663L161.74 120.404C163.479 117.206 164.594 113.704 165.023 110.086C165.243 108.058 165.036 106.005 164.414 104.063C163.792 102.12 162.771 100.331 161.415 98.8114Z" fill="#F2F2F2"/>
<path d="M149.657 93.9504H101.615C101.258 95.0576 101.167 96.2339 101.349 97.3832C101.531 98.5326 101.98 99.6224 102.661 100.564C103.343 101.505 104.235 102.271 105.267 102.799C106.299 103.327 107.441 103.603 108.599 103.603H142.673C143.831 103.603 144.972 103.327 146.004 102.799C147.036 102.271 147.929 101.505 148.61 100.564C149.291 99.6224 149.741 98.5326 149.923 97.3832C150.105 96.2339 150.014 95.0576 149.657 93.9504Z" fill="#3498DB"/>
<path d="M187.343 183.051C186.745 184.46 186.075 185.864 185.335 187.263H62.6112C61.8073 184.695 61.1481 182.083 60.6367 179.44C60.8656 179.261 61.1301 179.134 61.4122 179.068C61.6943 179.002 61.9874 178.997 62.2713 179.056C62.8562 179.242 63.3617 179.62 63.7063 180.13C64.7397 181.478 65.172 183.184 65.5791 184.838C65.9552 183.835 66.5132 182.911 67.2245 182.113C67.5267 181.798 67.8905 181.549 68.293 181.383C68.6956 181.217 69.128 181.136 69.5631 181.146C69.8705 180.593 70.3093 180.126 70.8402 179.785C71.2052 179.549 71.6312 179.426 72.0652 179.431C72.4991 179.437 72.9219 179.57 73.2809 179.816C73.7364 180.228 74.0399 180.783 74.1425 181.391C74.5206 183.05 74.2064 184.782 73.8904 186.457C74.6477 185.702 75.5384 185.095 76.5168 184.667C76.9694 184.501 77.4513 184.429 77.9325 184.458C78.0267 183.532 78.27 182.628 78.6529 181.78C78.9768 180.967 79.5368 180.272 80.2598 179.784C80.6247 179.548 81.0507 179.425 81.4847 179.43C81.9187 179.436 82.3415 179.569 82.7005 179.814C83.1559 180.227 83.4595 180.782 83.5621 181.39C83.9401 183.049 83.6259 184.781 83.31 186.456C84.0673 185.701 84.9579 185.094 85.9364 184.666C86.389 184.499 86.8709 184.428 87.3521 184.457C87.4463 183.531 87.6896 182.626 88.0725 181.779C88.3964 180.966 88.9564 180.271 89.6793 179.783C90.0443 179.547 90.4703 179.424 90.9043 179.429C91.3383 179.435 91.7611 179.568 92.12 179.813C92.5755 180.226 92.8791 180.781 92.9816 181.389C93.3597 183.048 93.0455 184.78 92.7296 186.455C93.4869 185.7 94.3775 185.093 95.356 184.665C95.8086 184.499 96.2905 184.427 96.7716 184.456C96.8658 183.53 97.1092 182.625 97.4921 181.778C97.816 180.965 98.3759 180.27 99.0989 179.782C99.4639 179.546 99.8898 179.423 100.324 179.428C100.758 179.433 101.181 179.567 101.54 179.812C101.995 180.225 102.299 180.78 102.401 181.388C102.779 183.047 102.465 184.779 102.149 186.454C102.906 185.698 103.797 185.091 104.776 184.664C105.228 184.497 105.71 184.426 106.191 184.455C106.285 183.529 106.529 182.624 106.912 181.777C107.236 180.964 107.796 180.268 108.518 179.78C108.883 179.544 109.309 179.421 109.743 179.427C110.177 179.432 110.6 179.566 110.959 179.811C111.415 180.224 111.718 180.779 111.821 181.386C112.199 183.046 111.885 184.777 111.569 186.453C112.326 185.697 113.217 185.09 114.195 184.663C114.648 184.496 115.13 184.425 115.611 184.454C115.705 183.527 115.948 182.623 116.331 181.775C116.655 180.963 117.215 180.267 117.938 179.779C118.303 179.543 118.729 179.42 119.163 179.425C119.597 179.431 120.02 179.564 120.379 179.81C120.834 180.222 121.138 180.777 121.24 181.385C121.618 183.044 121.304 184.776 120.988 186.451C121.746 185.696 122.636 185.089 123.615 184.661C124.067 184.495 124.549 184.424 125.03 184.452C125.124 183.526 125.368 182.622 125.75 181.774C126.074 180.962 126.634 180.266 127.357 179.778C127.722 179.542 128.148 179.419 128.582 179.424C129.016 179.43 129.439 179.563 129.798 179.808C130.253 180.221 130.557 180.776 130.66 181.384C131.038 183.043 130.723 184.775 130.407 186.45C131.165 185.695 132.055 185.088 133.034 184.66C133.486 184.493 133.968 184.422 134.45 184.451C134.544 183.525 134.787 182.62 135.17 181.773C135.494 180.96 136.054 180.265 136.777 179.777C137.142 179.541 137.568 179.418 138.002 179.423C138.436 179.429 138.859 179.562 139.217 179.807C139.673 180.22 139.977 180.775 140.079 181.383C140.457 183.042 140.143 184.774 139.827 186.449C140.584 185.694 141.475 185.087 142.453 184.659C142.906 184.493 143.388 184.421 143.869 184.45C143.963 183.524 144.207 182.62 144.59 181.772C144.913 180.959 145.473 180.264 146.196 179.776C146.561 179.54 146.987 179.417 147.421 179.422C147.855 179.428 148.278 179.561 148.637 179.807C149.092 180.219 149.396 180.775 149.499 181.382C149.877 183.041 149.563 184.773 149.247 186.448C150.004 185.693 150.895 185.086 151.873 184.658C152.326 184.492 152.808 184.421 153.289 184.449C153.383 183.523 153.626 182.619 154.009 181.771C154.333 180.959 154.893 180.263 155.616 179.775C155.981 179.539 156.407 179.416 156.841 179.421C157.275 179.427 157.698 179.56 158.057 179.805C158.512 180.218 158.816 180.773 158.918 181.381C159.296 183.04 158.982 184.772 158.666 186.447C159.423 185.692 160.314 185.085 161.293 184.657C161.745 184.49 162.227 184.419 162.708 184.448C162.802 183.522 163.046 182.617 163.429 181.77C163.753 180.957 164.313 180.262 165.036 179.774C165.4 179.538 165.826 179.415 166.26 179.42C166.694 179.425 167.117 179.559 167.476 179.804C167.932 180.217 168.235 180.772 168.338 181.38C168.716 183.039 168.402 184.771 168.086 186.446C168.843 185.69 169.734 185.083 170.712 184.656C171.165 184.489 171.647 184.418 172.128 184.447C172.222 183.521 172.465 182.616 172.848 181.768C173.172 180.956 173.732 180.26 174.455 179.772C174.82 179.536 175.246 179.413 175.68 179.419C176.114 179.424 176.537 179.558 176.896 179.803C177.351 180.216 177.655 180.771 177.757 181.379C178.135 183.038 177.821 184.77 177.505 186.445C178.263 185.69 179.153 185.083 180.132 184.655C180.584 184.488 181.066 184.417 181.547 184.446C181.642 183.52 181.885 182.615 182.268 181.768C182.592 180.955 183.152 180.26 183.875 179.772C184.24 179.536 184.666 179.413 185.1 179.418C185.534 179.424 185.956 179.557 186.315 179.802C186.771 180.215 187.074 180.77 187.177 181.378C187.296 181.927 187.351 182.489 187.343 183.051Z" fill="#3498DB"/>
<path d="M87.0917 103.006C88.0704 102.602 89.1341 102.45 90.186 102.564C91.2379 102.678 92.2447 103.055 93.1149 103.66C93.9912 104.29 94.6819 105.146 95.1141 106.138C95.5463 107.13 95.7039 108.221 95.5703 109.295C95.4472 110.544 94.9436 111.725 94.1281 112.675L94.4222 112.553C93.5173 112.542 93.022 111.478 93.1594 110.674C93.3455 109.586 94.5822 109.023 95.5652 108.941C96.9032 108.83 98.1895 109.413 99.396 109.916C100.691 110.461 102.017 110.926 103.368 111.31C106.115 112.08 108.946 112.503 111.797 112.571C113.203 112.605 114.609 112.55 116.008 112.406C117.301 112.325 118.576 112.061 119.795 111.622C120.403 111.406 120.962 111.069 121.439 110.633C121.916 110.196 122.301 109.668 122.571 109.08C122.827 108.533 122.93 107.927 122.871 107.326C122.812 106.725 122.592 106.151 122.235 105.665C122.184 105.614 122.12 105.577 122.05 105.558C121.98 105.54 121.906 105.54 121.836 105.558C121.766 105.577 121.702 105.613 121.65 105.664C121.598 105.715 121.561 105.779 121.541 105.849C121.349 106.802 121.357 107.785 121.564 108.734C121.771 109.684 122.173 110.58 122.744 111.365C123.351 112.202 124.138 112.892 125.046 113.381C125.954 113.871 126.961 114.149 127.991 114.194C130.343 114.32 132.642 113.405 134.684 112.32C136.818 111.187 138.764 109.735 140.934 108.663C143.026 107.63 145.437 106.87 147.765 107.489C149.621 107.983 151.583 109.613 150.97 111.753C150.878 112.169 150.653 112.543 150.329 112.817C150.005 113.092 149.601 113.252 149.177 113.273C148.417 113.271 147.539 112.788 147.447 111.961C147.337 110.969 148.281 110.191 149.121 109.899C150.325 109.48 151.668 109.794 152.899 109.899C154.92 110.081 156.937 109.508 158.564 108.289C160.133 107.141 161.277 105.5 161.813 103.625C161.939 103.148 162.021 102.659 162.058 102.167C162.1 101.631 161.27 101.633 161.227 102.167C161.125 103.172 160.825 104.146 160.345 105.034C159.865 105.922 159.215 106.705 158.432 107.339C157.653 107.992 156.754 108.486 155.786 108.791C154.733 109.093 153.63 109.174 152.545 109.03C151.297 108.904 149.955 108.673 148.749 109.15C148.266 109.314 147.828 109.589 147.469 109.953C147.11 110.317 146.84 110.76 146.681 111.246C146.188 113.204 148.417 114.621 150.126 113.928C152.042 113.15 152.338 110.551 151.317 108.96C150.091 107.048 147.642 106.303 145.478 106.446C140.34 106.784 136.611 110.921 131.975 112.645C129.787 113.459 127.26 113.773 125.169 112.514C124.322 111.984 123.614 111.259 123.103 110.398C122.592 109.537 122.293 108.566 122.232 107.565C122.203 107.064 122.241 106.561 122.344 106.069L121.65 106.253C121.879 106.597 122.02 106.992 122.058 107.404C122.096 107.816 122.032 108.232 121.87 108.612C121.534 109.47 120.892 110.172 120.069 110.579C119.164 111.023 118.19 111.309 117.189 111.423C116.079 111.584 114.962 111.683 113.841 111.719C109.332 111.885 104.837 111.134 100.624 109.511C98.7255 108.778 96.7138 107.647 94.6234 108.271C93.0481 108.741 91.8399 110.255 92.4986 111.929C92.6191 112.278 92.8252 112.591 93.0979 112.839C93.3706 113.088 93.701 113.263 94.0588 113.349C94.2482 113.406 94.4513 113.398 94.6356 113.326C94.8039 113.194 94.9463 113.031 95.0557 112.846C95.335 112.478 95.5735 112.08 95.7669 111.66C96.5027 110.052 96.6389 108.231 96.1508 106.53C94.9931 102.58 90.3608 100.645 86.675 102.28C86.1868 102.496 86.609 103.216 87.0951 103.001L87.0917 103.006Z" fill="#3498DB"/>
<path d="M78.0023 127.889C79.192 130.769 81.0036 133.348 83.3062 135.439C85.6087 137.529 88.3448 139.08 91.3165 139.978C92.3289 140.287 93.3671 140.504 94.4184 140.625C95.4198 140.734 96.5188 140.67 97.3476 140.034C98.5415 139.115 98.5159 136.488 96.6251 136.506C96.1644 136.543 95.7306 136.739 95.3968 137.06C95.0629 137.382 94.8493 137.808 94.7918 138.269C94.6561 139.313 95.3014 140.287 96.0748 140.918C97.7715 142.301 100.099 142.472 102.166 142.039C104.542 141.541 106.623 140.192 108.706 139.009C111.091 137.655 113.925 136.295 116.73 137.021C118.857 137.57 120.797 139.815 120.103 142.107L120.714 141.857C119.789 141.435 119.566 140.273 119.928 139.384C120.382 138.27 121.709 137.854 122.81 137.854C124.262 137.854 125.603 138.532 126.891 139.129C128.077 139.69 129.308 140.146 130.573 140.493C135.559 141.795 140.839 141.324 145.519 139.16C146.668 138.638 147.761 138 148.782 137.257C149.59 136.658 150.524 135.611 149.873 134.558C149.753 134.354 149.585 134.181 149.383 134.057C149.181 133.933 148.953 133.861 148.716 133.846C148.148 133.843 147.898 134.24 147.721 134.725C147.37 135.756 147.366 136.874 147.71 137.908C148.082 139.012 148.731 140.001 149.593 140.78C150.456 141.559 151.503 142.102 152.635 142.357C155.155 142.995 157.872 142.56 160.311 141.771C164.973 140.248 168.989 137.191 171.712 133.094C172.052 132.58 172.366 132.049 172.66 131.506C172.915 131.034 172.198 130.611 171.943 131.084C169.707 135.18 166.18 138.412 161.916 140.274C158.002 141.983 151.522 143.241 148.962 138.704C148.432 137.81 148.208 136.765 148.324 135.731C148.37 135.403 148.475 134.455 148.954 134.765C149.496 135.115 149.201 135.736 148.857 136.104C148.081 136.937 146.907 137.523 145.907 138.041C144.835 138.596 143.717 139.054 142.564 139.41C137.896 140.874 132.869 140.677 128.328 138.854C125.919 137.862 123.169 136.102 120.557 137.557C120.084 137.808 119.685 138.181 119.401 138.637C119.118 139.093 118.959 139.617 118.942 140.154C118.908 140.647 119.018 141.139 119.259 141.569C119.501 141.999 119.862 142.349 120.299 142.574C120.355 142.605 120.416 142.623 120.479 142.627C120.542 142.631 120.605 142.62 120.664 142.596C120.723 142.572 120.775 142.536 120.818 142.489C120.86 142.442 120.892 142.386 120.91 142.325C121.429 140.608 120.71 138.811 119.449 137.614C117.965 136.206 115.946 135.803 113.965 136.077C109.467 136.701 106.206 140.409 101.803 141.259C99.9043 141.626 97.5606 141.42 96.1945 139.877C95.5841 139.188 95.2392 137.793 96.3806 137.387C97.2178 137.089 97.4799 138.087 97.293 138.701C96.7162 140.598 93.5286 139.7 92.2058 139.357C90.3866 138.88 88.6448 138.145 87.0333 137.172C83.346 134.974 80.4613 131.64 78.8063 127.666C78.6068 127.175 77.8027 127.389 78.0048 127.888L78.0023 127.889Z" fill="#3498DB"/>
<path d="M60.2295 163.312C66.6005 162.105 74.4338 160.89 79.2127 166.451C80.1606 167.531 80.8156 168.839 81.1145 170.247C81.2405 170.88 81.3993 171.583 80.7599 171.974C80.5136 172.117 80.2353 172.195 79.9509 172.201C79.6666 172.207 79.3853 172.141 79.1333 172.008C77.7374 171.23 78.515 169.16 79.5656 168.481C80.9964 167.557 82.8368 167.952 84.305 168.553C85.898 169.205 87.4048 170.039 89.0167 170.654C90.5403 171.234 92.1025 171.707 93.6918 172.068C96.984 172.817 100.364 173.101 103.734 172.912C107.003 172.762 110.231 172.124 113.312 171.018C114.492 170.576 115.719 169.938 116.436 168.858C116.767 168.378 116.936 167.804 116.92 167.221C116.904 166.637 116.703 166.074 116.347 165.613C115.972 165.107 115.432 164.749 114.822 164.602C114.211 164.454 113.569 164.527 113.006 164.807C112.486 165.089 112.063 165.524 111.793 166.053C111.572 166.489 111.284 167.351 111.566 167.81C111.709 168.043 112.06 168.136 112.29 168.249C112.675 168.438 113.063 168.621 113.453 168.798C114.137 169.107 114.829 169.397 115.529 169.667C117.062 170.259 118.629 170.754 120.222 171.151C126.491 172.709 133.034 172.79 139.339 171.389C140.907 171.04 142.452 170.595 143.967 170.058C145.439 169.584 146.865 168.974 148.226 168.237C149.264 167.63 150.481 166.587 150.383 165.252C150.344 164.764 150.117 164.311 149.75 163.988C149.383 163.666 148.906 163.5 148.42 163.526C147.92 163.528 147.431 163.669 147.007 163.934C146.583 164.199 146.24 164.577 146.018 165.027C145.454 166.312 146.018 167.777 146.841 168.803C148.618 171.019 151.649 171.815 154.368 171.788C157.519 171.756 160.507 170.756 163.429 169.668C166.703 168.45 170.12 167.098 173.676 167.314C176.88 167.508 179.9 169.414 183.154 169.018C185.978 168.675 187.636 166.404 188.369 163.817C188.7 162.556 188.926 161.27 189.045 159.971C189.105 159.438 188.273 159.442 188.214 159.971C187.932 162.51 187.502 165.73 185.269 167.342C182.56 169.297 179.033 167.574 176.195 166.877C172.918 166.075 169.705 166.624 166.548 167.662C163.439 168.686 160.443 170.085 157.204 170.67C154.389 171.176 151.275 171.121 148.821 169.473C147.615 168.664 146.177 167.072 146.732 165.477C147.049 164.566 148.7 163.821 149.37 164.777C150.358 166.185 147.875 167.518 146.922 167.959C145.461 168.632 143.96 169.212 142.427 169.693C132.393 172.839 121.537 171.958 112.135 167.236L112.341 167.597C112.181 166.155 113.639 164.801 115.029 165.56C116.355 166.283 116.346 167.869 115.357 168.864C114.383 169.844 112.986 170.28 111.702 170.668C110.283 171.096 108.838 171.432 107.375 171.674C101.237 172.679 94.9435 172.034 89.133 169.806C86.5306 168.804 83.8358 166.766 80.9183 167.146C80.3337 167.198 79.7688 167.384 79.267 167.69C78.7652 167.995 78.3401 168.413 78.0243 168.91C77.7421 169.368 77.5858 169.893 77.5716 170.431C77.5573 170.97 77.6856 171.502 77.9432 171.975C78.8477 173.463 82.0147 173.395 82.0693 171.306C82.1315 168.928 80.6381 166.553 78.9699 164.994C73.7739 160.139 66.3607 161.299 60.0069 162.504C59.4818 162.603 59.7044 163.408 60.2278 163.309L60.2295 163.312Z" fill="#3498DB"/>
<path d="M140.796 82.2345C142.817 81.8879 143.684 79.4376 143.209 77.6328C142.851 76.4778 142.22 75.4271 141.371 74.5703C140.436 73.5461 139.4 72.6109 138.405 71.648L134.753 68.1156C134.701 68.0652 134.637 68.0292 134.567 68.0109C134.497 67.9927 134.424 67.9928 134.354 68.0113C134.285 68.0298 134.221 68.066 134.169 68.1165C134.117 68.167 134.079 68.2301 134.059 68.2997C133.532 71.7466 134.358 75.2643 136.362 78.1115C136.874 78.8228 137.45 79.4847 138.084 80.089C138.749 80.6458 139.313 81.315 139.749 82.0665L140.867 82.8902C140.829 82.6693 140.773 82.4521 140.699 82.2408C140.732 82.2421 140.764 82.24 140.796 82.2345Z" fill="#FD6584"/>
<path d="M140.734 82.0264H139.903C140.339 82.9193 140.161 84.2778 140.1 85.2459C140.033 86.3279 139.94 87.4087 139.858 88.4899L139.309 95.7826C139.267 96.3188 140.1 96.3163 140.14 95.7826L140.627 89.3157C140.711 88.2149 140.794 87.1142 140.876 86.0134C140.943 84.6829 140.895 83.3486 140.734 82.0264Z" fill="#3F3D56"/>
<path d="M140.792 82.1187C140.968 81.5985 141.03 81.0466 140.976 80.5C140.922 79.9535 140.752 79.4249 140.477 78.9498C140.42 78.8575 140.329 78.7913 140.224 78.7653C140.119 78.7393 140.008 78.7555 139.914 78.8105C139.821 78.8654 139.753 78.9548 139.724 79.0597C139.695 79.1646 139.708 79.2766 139.76 79.372C139.98 79.7504 140.114 80.1726 140.154 80.6089C140.194 81.0453 140.139 81.4851 139.991 81.8975C139.962 82.0043 139.976 82.1185 140.031 82.2148C140.085 82.3112 140.175 82.3818 140.282 82.4113C140.388 82.4407 140.501 82.4265 140.597 82.3718C140.693 82.3171 140.764 82.2264 140.793 82.1196L140.792 82.1187Z" fill="#3F3D56"/>
<path d="M108.385 81.3999C110.406 81.0533 111.272 78.603 110.797 76.7982C110.439 75.6432 109.808 74.5925 108.959 73.7357C108.024 72.7115 106.989 71.7764 105.993 70.8134L102.341 67.281C102.289 67.2306 102.225 67.1946 102.155 67.1763C102.086 67.1581 102.012 67.1582 101.942 67.1767C101.873 67.1952 101.809 67.2314 101.757 67.2819C101.705 67.3325 101.667 67.3955 101.647 67.4651C101.12 70.912 101.946 74.4297 103.95 77.2769C104.462 77.9881 105.038 78.6501 105.672 79.2544C106.337 79.8112 106.901 80.4804 107.337 81.2319L108.455 82.0556C108.417 81.8348 108.361 81.6175 108.287 81.4062C108.319 81.4072 108.351 81.405 108.382 81.3995L108.385 81.3999Z" fill="#FD6584"/>
<path d="M108.321 81.191H107.491C107.927 82.0839 107.749 83.4425 107.688 84.4106C107.621 85.4926 107.527 86.5734 107.446 87.6546L106.896 94.9473C106.854 95.4835 107.687 95.4809 107.727 94.9473L108.215 88.4804L108.463 85.1781C108.531 83.8474 108.483 82.5135 108.321 81.191Z" fill="#3F3D56"/>
<path d="M108.38 81.2837C108.556 80.7635 108.618 80.2116 108.564 79.6651C108.51 79.1185 108.34 78.59 108.065 78.1149C108.008 78.0226 107.917 77.9564 107.812 77.9303C107.707 77.9043 107.596 77.9205 107.502 77.9755C107.409 78.0305 107.341 78.1199 107.312 78.2247C107.283 78.3296 107.296 78.4417 107.348 78.5371C107.568 78.9154 107.702 79.3376 107.742 79.774C107.782 80.2103 107.727 80.6502 107.579 81.0625C107.55 81.1694 107.564 81.2835 107.619 81.3799C107.673 81.4762 107.763 81.5469 107.87 81.5763C107.976 81.6058 108.089 81.5916 108.185 81.5369C108.281 81.4822 108.351 81.3914 108.381 81.2846L108.38 81.2837Z" fill="#3F3D56"/>
<path d="M123.621 80.0072C125.642 79.6606 126.508 77.2103 126.034 75.4055C125.676 74.2505 125.045 73.1998 124.195 72.343C123.261 71.3188 122.225 70.3837 121.229 69.4207L117.578 65.8883C117.526 65.8379 117.462 65.8019 117.392 65.7836C117.322 65.7654 117.249 65.7655 117.179 65.784C117.109 65.8025 117.045 65.8387 116.994 65.8892C116.942 65.9398 116.904 66.0028 116.883 66.0724C116.357 69.5193 117.183 73.037 119.186 75.8842C119.698 76.5955 120.275 77.2574 120.909 77.8617C121.574 78.4184 122.137 79.0877 122.574 79.8392L123.692 80.6629C123.654 80.4421 123.598 80.2249 123.524 80.0135C123.555 80.0145 123.587 80.0122 123.619 80.0068L123.621 80.0072Z" fill="#FD6584"/>
<path d="M123.558 79.7991H122.728C123.164 80.692 122.986 82.0505 122.925 83.0186C122.857 84.1006 122.764 85.1814 122.683 86.2626L122.133 93.5553C122.091 94.0915 122.924 94.089 122.964 93.5553L123.451 87.0884C123.535 85.9876 123.618 84.8869 123.7 83.7861C123.767 82.4555 123.72 81.1215 123.558 79.7991Z" fill="#3F3D56"/>
<path d="M123.617 79.8919C123.792 79.3717 123.855 78.8198 123.801 78.2732C123.746 77.7267 123.576 77.1981 123.302 76.723C123.245 76.6307 123.154 76.5645 123.049 76.5385C122.944 76.5125 122.833 76.5287 122.739 76.5836C122.646 76.6386 122.577 76.728 122.548 76.8329C122.52 76.9378 122.533 77.0498 122.585 77.1452C122.805 77.5236 122.939 77.9458 122.979 78.3821C123.019 78.8185 122.963 79.2583 122.816 79.6707C122.787 79.7775 122.801 79.8917 122.855 79.988C122.91 80.0844 123 80.155 123.106 80.1845C123.213 80.2139 123.326 80.1997 123.422 80.145C123.518 80.0903 123.588 79.9996 123.618 79.8928L123.617 79.8919Z" fill="#3F3D56"/>
<path d="M135.31 129.699C135.105 128.912 134.322 128.248 133.527 128.393C133.212 128.477 132.925 128.645 132.698 128.881C132.471 129.116 132.312 129.409 132.239 129.728C132.102 130.368 132.084 131.028 132.186 131.675C131.472 130.921 130.73 130.146 129.775 129.744C129.439 129.577 129.057 129.53 128.691 129.61C128.442 129.701 128.225 129.864 128.067 130.078C127.91 130.293 127.818 130.549 127.805 130.815C127.788 131.35 127.931 131.877 128.216 132.329C128.615 133.02 129.162 133.614 129.818 134.066C130.474 134.518 131.222 134.817 132.007 134.942L131.75 134.605C133.058 134.146 134.159 133.233 134.855 132.029C135.302 131.341 135.465 130.506 135.31 129.699Z" fill="#3498DB"/>
<path d="M97.6346 162.551C97.4296 161.764 96.6465 161.1 95.8509 161.245C95.5357 161.329 95.2491 161.497 95.0222 161.732C94.7953 161.968 94.6366 162.261 94.5633 162.58C94.4259 163.22 94.408 163.88 94.5104 164.527C93.7962 163.772 93.0544 162.998 92.0991 162.595C91.763 162.429 91.381 162.382 91.0149 162.462C90.7658 162.553 90.5489 162.716 90.3914 162.93C90.2338 163.145 90.1425 163.401 90.1289 163.667C90.112 164.201 90.2554 164.729 90.5406 165.18C90.9393 165.872 91.4864 166.465 92.1422 166.918C92.798 167.37 93.5459 167.669 94.3314 167.794L94.0739 167.456C95.3817 166.998 96.4833 166.084 97.1796 164.881C97.6262 164.193 97.7893 163.357 97.6346 162.551Z" fill="#3498DB"/>
<path d="M104.284 113.551C104.079 112.765 103.296 112.101 102.5 112.246C102.185 112.329 101.898 112.498 101.671 112.733C101.444 112.968 101.286 113.261 101.212 113.58C101.075 114.22 101.057 114.881 101.159 115.527C100.445 114.773 99.7034 113.998 98.7482 113.596C98.4121 113.43 98.03 113.383 97.6639 113.462C97.4149 113.553 97.1981 113.716 97.0407 113.931C96.8832 114.145 96.792 114.401 96.7784 114.667C96.7614 115.202 96.9049 115.729 97.1901 116.181C97.5887 116.873 98.1359 117.466 98.7917 117.918C99.4475 118.37 100.195 118.67 100.981 118.795L100.723 118.457C102.031 117.998 103.133 117.085 103.829 115.882C104.275 115.193 104.438 114.358 104.284 113.551Z" fill="#3498DB"/>
<path d="M81.9318 5.11414C90.0115 2.46629 98.7587 7.39149 101.203 15.4697C103.655 23.5715 101.009 41.2034 93.1901 46.1061C96.6933 49.7179 93.5176 49.3435 93.3926 49.8338C93.9385 54.7665 95.1258 75.6151 96.4352 80.3089C95.4783 79.9189 96.0957 79.792 96.079 79.7457C94.4972 75.4156 93.7098 54.6928 93.1551 50.0399C87.3318 51.5279 91.6627 47.8641 90.9789 46.5166C81.6265 43.6906 71.5656 28.7017 71.6303 19.2503C71.6714 13.2313 76.2366 6.98056 81.9318 5.11414Z" fill="#3498DB"/>
<path d="M293.003 286.202L305.543 282.588L310.979 298.786L297.533 306.802L293.003 286.202Z" fill="#ED9DA0"/>
<path d="M297.171 306.95L291.058 325.297C291.058 325.297 281.317 328.08 283.653 333.369L308.773 327.694L313.306 315.15L315.372 326.233L322.461 324.19L318.709 305.661C318.709 305.661 315.325 298.277 310.801 298.686L297.171 306.95Z" fill="#090814"/>
<path d="M235.853 285.696H248.9L249.684 302.772L234.561 306.754L235.853 285.696Z" fill="#ED9DA0"/>
<path d="M225.109 54.5605L220.909 102.478L260.696 103.141L256.865 55.4779L225.109 54.5605Z" fill="#090814"/>
<path d="M234.17 306.794L223.261 322.738C223.261 322.738 213.135 322.714 213.93 328.445L239.633 329.948L248.853 315.555L246.377 330.373H253.754L255.229 311.523C255.229 311.523 254 303.487 249.539 302.627L234.17 306.794Z" fill="#090814"/>
<path d="M263.703 135.304C263.703 135.304 246.409 143.652 229.14 139.54C229.14 139.54 218.092 170.386 221.621 223.923C225.15 277.46 231.969 292.119 231.969 292.119C231.969 292.119 232.913 297.93 250.215 288.648V239.722L251.901 184.866L292.266 294.736C292.266 294.736 303.924 294.593 309.484 288.648L294.322 224.966C294.322 224.966 278.8 162.475 278.456 161.991L263.703 135.304H263.703Z" fill="#090814"/>
<path d="M186.664 123.606L216.078 136.272L208.803 144.42L183.491 130.553C182.494 130.913 181.435 131.07 180.377 131.015C179.319 130.96 178.282 130.694 177.328 130.232C173.638 128.53 171.782 124.66 173.184 121.592C174.586 118.525 178.714 117.415 182.405 119.118C183.375 119.545 184.252 120.161 184.983 120.932C185.714 121.702 186.286 122.611 186.664 123.606Z" fill="#FFB6B6"/>
<path d="M255.258 63.6169C255.257 60.8569 254.495 58.1511 253.057 55.7999C251.619 53.4486 249.56 51.544 247.11 50.2975C244.66 49.0509 241.914 48.5113 239.177 48.7384C236.44 48.9655 233.819 49.9505 231.605 51.5841C229.391 53.2176 227.672 55.4358 226.637 57.9923C225.601 60.5487 225.292 63.3435 225.742 66.0662C226.191 68.7889 227.383 71.3331 229.185 73.4162C230.987 75.4993 233.327 77.0398 235.948 77.8667L238.82 96.9446L253.463 84.6811C251.467 82.0407 249.833 79.143 248.603 76.0657C250.65 74.7052 252.329 72.856 253.49 70.6835C254.652 68.511 255.259 66.083 255.258 63.6169Z" fill="#FFB6B6"/>
<path d="M251.058 82.3544C251.058 82.3544 245.443 93.996 237.431 83.9709L224.592 86.124C224.592 86.124 223.381 131.527 228.297 138.483C228.297 138.483 247.717 149.004 263.703 135.306L260.906 85.1386L251.058 82.3544Z" fill="#3498DB"/>
<path d="M229.351 87.863L224.592 86.1245C224.592 86.1245 218.551 87.0402 217.345 91.9324C216.139 96.8246 209.101 131.764 209.101 131.764L197.345 128.593L194.156 138.752C194.156 138.752 212.53 150.277 216.706 144.522C220.882 138.768 227.489 112.349 227.489 112.349L229.351 87.863H229.351Z" fill="#3498DB"/>
<path d="M260.259 134.247L287.529 117.419L289.951 128.093L264.071 140.86C263.788 141.887 263.305 142.846 262.65 143.683C261.994 144.519 261.179 145.216 260.253 145.733C256.739 147.779 252.525 147.068 250.843 144.146C249.161 141.223 250.641 137.196 254.155 135.151C255.062 134.6 256.069 134.237 257.117 134.081C258.165 133.926 259.234 133.982 260.26 134.246L260.259 134.247Z" fill="#FFB6B6"/>
<path d="M257.393 83.191L267.846 83.8083C267.846 83.8083 299.304 122.84 291.034 127.934L271.195 139.797L265.458 130.06L278.116 122.77L254.024 96.8772L257.393 83.1902V83.191Z" fill="#3498DB"/>
<path d="M234.94 51.307C234.94 51.307 241.402 65.8861 250.143 67.9742L250.488 74.1089L238.545 101.522L269.767 98.1904C269.767 98.1904 265.104 28.1235 236.473 43.8982C218.193 53.9701 224.69 63.755 224.69 63.755L234.94 51.307Z" fill="#090814"/>
<path d="M12.0962 54.0815C19.0551 49.175 28.8553 51.3168 33.5427 58.3265C38.2447 65.3565 40.8421 83.0005 34.7889 89.9873C39.1905 92.4132 36.0438 92.988 36.0668 93.4937C38.0237 98.052 45.2235 117.647 47.8413 121.753C46.8126 121.661 47.3662 121.358 47.3367 121.318C44.5641 117.641 37.7835 98.0487 35.8996 93.7607C30.7617 96.8947 33.8391 92.1177 32.793 91.0295C23.0245 91.0736 9.04053 79.6907 6.35335 70.6304C4.64199 64.8605 7.19105 57.54 12.0962 54.0815Z" fill="#3498DB"/>
<path d="M175.203 3.12731C183.642 4.1607 189.499 12.3427 188.315 20.704C187.128 29.0902 177.311 43.949 168.161 45.0705C169.817 49.8333 167.095 48.1444 166.776 48.5357C165.195 53.239 157.499 72.6427 156.711 77.454C156.008 76.6939 156.621 76.8412 156.625 76.7921C157.013 72.1947 165.019 53.0752 166.474 48.6216C160.569 47.4956 166.036 46.015 165.984 44.5029C158.695 37.9667 155.882 20.1038 159.917 11.5637C162.487 6.12498 169.255 2.39891 175.203 3.12731Z" fill="#3498DB"/>
<path d="M41.6652 192.262H32.4494V327.216H41.6652V192.262Z" fill="#9DCEEA"/>
<path d="M73.3177 192.262H64.1019V327.216H73.3177V192.262Z" fill="#9DCEEA"/>
<path d="M168.871 192.262H159.655V327.216H168.871V192.262Z" fill="#9DCEEA"/>
<path d="M201.14 193.473H191.924V327.211H201.14V193.473Z" fill="#9DCEEA"/>
<path d="M194.438 196.472H32.4494V203.208H194.438V196.472Z" fill="#9DCEEA"/>
<path d="M213.707 187.211H14.8557V196.473H213.707V187.211Z" fill="#9DCEEA"/>
</g>
</svg>
