<svg width="360" height="193" viewBox="0 0 360 193" fill="none" xmlns="http://www.w3.org/2000/svg">
<g clip-path="url(#clip0_68_3507)">
<path d="M17.8386 85.0638C7.52089 83 2.7444 89.0153 0 92V195H360V0C356.586 11.8483 328.159 42 327.409 42C326.66 42 323.774 41.2495 323.398 40.5C321.393 36.5 308.357 45 308.362 45.7653C308.366 46.5306 286.474 52.4422 278.002 56.2117C275.486 51.0714 269.818 40.5306 263.231 46.5C254.998 53.9617 239.217 60.4847 237.159 57.5C235.1 54.5153 229.421 43.2781 220.502 49.2475L220.316 49.3717C211.412 55.3311 199.207 63.5 191.031 63.5C182.797 63.5 177.599 54.4796 173.482 50.5C169.365 46.5204 164.432 57.2066 161.001 60.1913C157.571 63.176 157.675 63.4872 154.93 61C152.186 58.5128 143.636 61.5102 140.891 63.5C138.147 65.4898 138.89 69.3503 126.351 73.5C110.087 78.8827 110.101 59.8112 107.298 59C103.296 57.8416 92.42 66.6581 83.5006 71.6326C74.5813 76.6071 74.3643 77.0051 68.1894 78C62.0145 78.9949 55.9448 72.9949 51.1421 72C46.3394 71.0051 43.5947 77.0357 38.1059 84C32.617 90.9643 27.3701 86.9703 17.8386 85.0638Z" fill="url(#paint0_linear_68_3507)"/>
<path d="M1 91C3.7463 87.8786 9.10159 82.4682 16.7912 83.7168C26.4033 85.2775 31.8959 91 37.3885 83.7168C42.8811 76.4335 47.0006 70.1908 51.8066 71.2312C56.6126 72.2717 60.0455 77.9942 66.2247 76.9538C72.4039 75.9133 55.1877 87.5478 82.7025 71.2312C110.217 54.9147 107.222 57.4017 108.792 62.9075C110.728 69.6938 116.345 79.5549 128.017 73.3121C139.688 67.0694 139.963 60.3064 147.927 60.3064C155.891 60.3064 151.36 57.7052 154.106 60.3064C156.853 62.9075 158.226 61.8671 161.659 58.7457C165.092 55.6243 170.015 46.2601 174.134 50.422C178.254 54.5838 181.569 62.9075 189.808 62.9075C198.047 62.9075 211.34 54.5838 220.265 48.341C229.191 42.0983 234.436 54.0636 236.495 57.185C238.555 60.3064 253.66 54.0636 261.899 46.2601C268.49 40.0173 275.173 49.2081 277.69 54.5838C286.616 52.3295 306.252 46.4682 313.392 41.0578C320.532 35.6474 324.606 40.5376 325.75 43.659C332.158 40.0173 355.067 14.026 358.5 0.5" stroke="url(#paint1_linear_68_3507)" stroke-width="3" stroke-linecap="round" stroke-linejoin="round"/>
<path d="M19.065 139.421C19.065 140.007 18.9853 140.537 18.8258 141.013C18.6663 141.488 18.4286 141.89 18.1129 142.219C17.8004 142.548 17.4098 142.787 16.941 142.937L18.6207 144.699H17.4342L16.0523 143.088C16.01 143.088 15.9661 143.09 15.9205 143.093C15.8782 143.096 15.8359 143.098 15.7936 143.098C15.2402 143.098 14.7568 143.01 14.3434 142.834C13.9332 142.658 13.5914 142.408 13.318 142.082C13.0478 141.757 12.8443 141.368 12.7076 140.915C12.5742 140.463 12.5074 139.961 12.5074 139.411C12.5074 138.682 12.6279 138.042 12.8687 137.492C13.1096 136.942 13.4742 136.514 13.9625 136.208C14.454 135.902 15.0693 135.749 15.8082 135.749C16.5146 135.749 17.1087 135.9 17.5904 136.203C18.0755 136.506 18.4417 136.932 18.6891 137.482C18.9397 138.029 19.065 138.675 19.065 139.421ZM13.3814 139.421C13.3814 140.026 13.4677 140.55 13.6402 140.993C13.8128 141.436 14.0764 141.778 14.4312 142.019C14.7893 142.259 15.2434 142.38 15.7936 142.38C16.3469 142.38 16.7994 142.259 17.151 142.019C17.5058 141.778 17.7678 141.436 17.9371 140.993C18.1064 140.55 18.191 140.026 18.191 139.421C18.191 138.5 17.9973 137.78 17.61 137.263C17.2258 136.742 16.6253 136.481 15.8082 136.481C15.2548 136.481 14.7991 136.6 14.441 136.838C14.0829 137.076 13.816 137.414 13.6402 137.854C13.4677 138.29 13.3814 138.812 13.3814 139.421ZM23.391 143H22.6V137.941C22.6 137.749 22.6 137.585 22.6 137.448C22.6033 137.308 22.6065 137.181 22.6098 137.067C22.6163 136.95 22.6244 136.831 22.6342 136.711C22.5333 136.815 22.4389 136.905 22.351 136.979C22.2631 137.051 22.154 137.141 22.0238 137.248L21.2084 137.902L20.7836 137.351L22.7172 135.861H23.391V143Z" fill="black"/>
<path d="M79.8368 140.727H80.8027L81.6124 141.793L81.8254 142.077L83.0328 143.682H82.0669L81.2714 142.616L81.0726 142.347L79.8368 140.727ZM83.3311 139.364C83.3311 140.131 83.1926 140.794 82.9156 141.352C82.6386 141.911 82.2587 142.342 81.7757 142.645C81.2928 142.948 80.7411 143.099 80.1209 143.099C79.5006 143.099 78.949 142.948 78.4661 142.645C77.9831 142.342 77.6031 141.911 77.3261 141.352C77.0491 140.794 76.9107 140.131 76.9107 139.364C76.9107 138.597 77.0491 137.934 77.3261 137.375C77.6031 136.816 77.9831 136.385 78.4661 136.082C78.949 135.779 79.5006 135.628 80.1209 135.628C80.7411 135.628 81.2928 135.779 81.7757 136.082C82.2587 136.385 82.6386 136.816 82.9156 137.375C83.1926 137.934 83.3311 138.597 83.3311 139.364ZM82.4788 139.364C82.4788 138.734 82.3735 138.202 82.1628 137.769C81.9545 137.336 81.6715 137.008 81.3141 136.786C80.9589 136.563 80.5612 136.452 80.1209 136.452C79.6805 136.452 79.2816 136.563 78.9241 136.786C78.569 137.008 78.2861 137.336 78.0754 137.769C77.8671 138.202 77.7629 138.734 77.7629 139.364C77.7629 139.993 77.8671 140.525 78.0754 140.958C78.2861 141.391 78.569 141.719 78.9241 141.942C79.2816 142.164 79.6805 142.276 80.1209 142.276C80.5612 142.276 80.9589 142.164 81.3141 141.942C81.6715 141.719 81.9545 141.391 82.1628 140.958C82.3735 140.525 82.4788 139.993 82.4788 139.364ZM84.8841 143V142.361L87.2847 139.733C87.5664 139.425 87.7984 139.158 87.9807 138.93C88.163 138.701 88.2979 138.485 88.3855 138.284C88.4755 138.08 88.5205 137.867 88.5205 137.645C88.5205 137.389 88.4589 137.168 88.3358 136.981C88.2151 136.794 88.0493 136.649 87.8386 136.548C87.6279 136.446 87.3912 136.395 87.1284 136.395C86.8491 136.395 86.6052 136.453 86.3969 136.569C86.1909 136.683 86.0311 136.842 85.9175 137.048C85.8062 137.254 85.7506 137.496 85.7506 137.773H84.9125C84.9125 137.347 85.0107 136.973 85.2072 136.651C85.4037 136.329 85.6713 136.078 86.0098 135.898C86.3507 135.718 86.733 135.628 87.1568 135.628C87.583 135.628 87.9606 135.718 88.2896 135.898C88.6187 136.078 88.8768 136.32 89.0638 136.626C89.2508 136.931 89.3443 137.271 89.3443 137.645C89.3443 137.912 89.2958 138.174 89.1987 138.43C89.104 138.683 88.9383 138.966 88.7016 139.278C88.4672 139.589 88.1417 139.967 87.725 140.415L86.0915 142.162V142.219H89.4722V143H84.8841Z" fill="black"/>
<path d="M144.181 140.727H145.146L145.956 141.793L146.169 142.077L147.377 143.682H146.411L145.615 142.616L145.416 142.347L144.181 140.727ZM147.675 139.364C147.675 140.131 147.536 140.794 147.259 141.352C146.982 141.911 146.602 142.342 146.119 142.645C145.637 142.948 145.085 143.099 144.465 143.099C143.844 143.099 143.293 142.948 142.81 142.645C142.327 142.342 141.947 141.911 141.67 141.352C141.393 140.794 141.254 140.131 141.254 139.364C141.254 138.597 141.393 137.934 141.67 137.375C141.947 136.816 142.327 136.385 142.81 136.082C143.293 135.779 143.844 135.628 144.465 135.628C145.085 135.628 145.637 135.779 146.119 136.082C146.602 136.385 146.982 136.816 147.259 137.375C147.536 137.934 147.675 138.597 147.675 139.364ZM146.823 139.364C146.823 138.734 146.717 138.202 146.507 137.769C146.298 137.336 146.015 137.008 145.658 136.786C145.303 136.563 144.905 136.452 144.465 136.452C144.024 136.452 143.625 136.563 143.268 136.786C142.913 137.008 142.63 137.336 142.419 137.769C142.211 138.202 142.107 138.734 142.107 139.364C142.107 139.993 142.211 140.525 142.419 140.958C142.63 141.391 142.913 141.719 143.268 141.942C143.625 142.164 144.024 142.276 144.465 142.276C144.905 142.276 145.303 142.164 145.658 141.942C146.015 141.719 146.298 141.391 146.507 140.958C146.717 140.525 146.823 139.993 146.823 139.364ZM151.685 143.099C151.216 143.099 150.799 143.019 150.432 142.858C150.067 142.697 149.777 142.473 149.562 142.187C149.349 141.898 149.233 141.563 149.214 141.182H150.109C150.127 141.416 150.208 141.619 150.35 141.789C150.492 141.957 150.678 142.087 150.908 142.18C151.137 142.272 151.392 142.318 151.671 142.318C151.984 142.318 152.261 142.264 152.502 142.155C152.743 142.046 152.933 141.894 153.07 141.7C153.207 141.506 153.276 141.281 153.276 141.026C153.276 140.758 153.21 140.522 153.077 140.319C152.945 140.113 152.751 139.952 152.495 139.836C152.239 139.72 151.927 139.662 151.557 139.662H150.975V138.881H151.557C151.846 138.881 152.1 138.829 152.317 138.724C152.537 138.62 152.709 138.473 152.832 138.284C152.958 138.095 153.02 137.872 153.02 137.616C153.02 137.37 152.966 137.156 152.857 136.974C152.748 136.791 152.594 136.649 152.395 136.548C152.199 136.446 151.967 136.395 151.699 136.395C151.448 136.395 151.212 136.441 150.989 136.533C150.769 136.623 150.589 136.755 150.449 136.928C150.31 137.098 150.234 137.304 150.222 137.545H149.37C149.384 137.164 149.499 136.83 149.714 136.544C149.93 136.255 150.212 136.03 150.56 135.869C150.91 135.708 151.295 135.628 151.714 135.628C152.163 135.628 152.549 135.719 152.871 135.901C153.193 136.081 153.441 136.319 153.613 136.615C153.786 136.911 153.873 137.231 153.873 137.574C153.873 137.983 153.765 138.333 153.55 138.621C153.337 138.91 153.046 139.11 152.68 139.222V139.278C153.139 139.354 153.497 139.549 153.756 139.864C154.014 140.177 154.143 140.564 154.143 141.026C154.143 141.421 154.035 141.776 153.819 142.091C153.606 142.403 153.315 142.65 152.946 142.83C152.577 143.009 152.156 143.099 151.685 143.099Z" fill="black"/>
<path d="M208.656 140.727H209.622L210.432 141.793L210.645 142.077L211.852 143.682H210.886L210.091 142.616L209.892 142.347L208.656 140.727ZM212.15 139.364C212.15 140.131 212.012 140.794 211.735 141.352C211.458 141.911 211.078 142.342 210.595 142.645C210.112 142.948 209.56 143.099 208.94 143.099C208.32 143.099 207.768 142.948 207.285 142.645C206.802 142.342 206.422 141.911 206.145 141.352C205.868 140.794 205.73 140.131 205.73 139.364C205.73 138.597 205.868 137.934 206.145 137.375C206.422 136.816 206.802 136.385 207.285 136.082C207.768 135.779 208.32 135.628 208.94 135.628C209.56 135.628 210.112 135.779 210.595 136.082C211.078 136.385 211.458 136.816 211.735 137.375C212.012 137.934 212.15 138.597 212.15 139.364ZM211.298 139.364C211.298 138.734 211.193 138.202 210.982 137.769C210.774 137.336 210.491 137.008 210.133 136.786C209.778 136.563 209.381 136.452 208.94 136.452C208.5 136.452 208.101 136.563 207.743 136.786C207.388 137.008 207.105 137.336 206.895 137.769C206.686 138.202 206.582 138.734 206.582 139.364C206.582 139.993 206.686 140.525 206.895 140.958C207.105 141.391 207.388 141.719 207.743 141.942C208.101 142.164 208.5 142.276 208.94 142.276C209.381 142.276 209.778 142.164 210.133 141.942C210.491 141.719 210.774 141.391 210.982 140.958C211.193 140.525 211.298 139.993 211.298 139.364ZM213.533 141.509V140.784L216.729 135.727H217.255V136.849H216.899L214.485 140.67V140.727H218.789V141.509H213.533ZM216.956 143V141.288V140.951V135.727H217.794V143H216.956Z" fill="black"/>
<path d="M273.322 140.727H274.288L275.098 141.793L275.311 142.077L276.518 143.682H275.552L274.757 142.616L274.558 142.347L273.322 140.727ZM276.816 139.364C276.816 140.131 276.678 140.794 276.401 141.352C276.124 141.911 275.744 142.342 275.261 142.645C274.778 142.948 274.226 143.099 273.606 143.099C272.986 143.099 272.434 142.948 271.951 142.645C271.468 142.342 271.088 141.911 270.811 141.352C270.534 140.794 270.396 140.131 270.396 139.364C270.396 138.597 270.534 137.934 270.811 137.375C271.088 136.816 271.468 136.385 271.951 136.082C272.434 135.779 272.986 135.628 273.606 135.628C274.226 135.628 274.778 135.779 275.261 136.082C275.744 136.385 276.124 136.816 276.401 137.375C276.678 137.934 276.816 138.597 276.816 139.364ZM275.964 139.364C275.964 138.734 275.859 138.202 275.648 137.769C275.44 137.336 275.157 137.008 274.799 136.786C274.444 136.563 274.047 136.452 273.606 136.452C273.166 136.452 272.767 136.563 272.409 136.786C272.054 137.008 271.771 137.336 271.561 137.769C271.352 138.202 271.248 138.734 271.248 139.364C271.248 139.993 271.352 140.525 271.561 140.958C271.771 141.391 272.054 141.719 272.409 141.942C272.767 142.164 273.166 142.276 273.606 142.276C274.047 142.276 274.444 142.164 274.799 141.942C275.157 141.719 275.44 141.391 275.648 140.958C275.859 140.525 275.964 139.993 275.964 139.364ZM280.642 143.099C280.226 143.099 279.85 143.017 279.516 142.851C279.183 142.685 278.915 142.458 278.714 142.169C278.513 141.88 278.403 141.551 278.384 141.182H279.236C279.269 141.511 279.418 141.783 279.683 141.999C279.951 142.212 280.27 142.318 280.642 142.318C280.94 142.318 281.206 142.248 281.438 142.109C281.672 141.969 281.855 141.777 281.988 141.533C282.123 141.287 282.19 141.009 282.19 140.699C282.19 140.382 282.121 140.099 281.981 139.85C281.844 139.599 281.654 139.402 281.413 139.257C281.171 139.113 280.895 139.039 280.585 139.037C280.363 139.035 280.134 139.069 279.9 139.14C279.666 139.209 279.473 139.297 279.321 139.406L278.497 139.307L278.938 135.727H282.716V136.509H279.676L279.421 138.653H279.463C279.612 138.535 279.799 138.437 280.024 138.359C280.249 138.281 280.484 138.241 280.727 138.241C281.172 138.241 281.569 138.348 281.917 138.561C282.267 138.772 282.542 139.061 282.741 139.428C282.942 139.795 283.043 140.214 283.043 140.685C283.043 141.149 282.939 141.563 282.73 141.928C282.524 142.29 282.24 142.576 281.878 142.787C281.516 142.995 281.104 143.099 280.642 143.099Z" fill="black"/>
<path d="M337.744 140.727H338.71L339.52 141.793L339.733 142.077L340.94 143.682H339.974L339.179 142.616L338.98 142.347L337.744 140.727ZM341.238 139.364C341.238 140.131 341.1 140.794 340.823 141.352C340.546 141.911 340.166 142.342 339.683 142.645C339.2 142.948 338.648 143.099 338.028 143.099C337.408 143.099 336.856 142.948 336.373 142.645C335.89 142.342 335.51 141.911 335.233 141.352C334.956 140.794 334.818 140.131 334.818 139.364C334.818 138.597 334.956 137.934 335.233 137.375C335.51 136.816 335.89 136.385 336.373 136.082C336.856 135.779 337.408 135.628 338.028 135.628C338.648 135.628 339.2 135.779 339.683 136.082C340.166 136.385 340.546 136.816 340.823 137.375C341.1 137.934 341.238 138.597 341.238 139.364ZM340.386 139.364C340.386 138.734 340.281 138.202 340.07 137.769C339.862 137.336 339.579 137.008 339.221 136.786C338.866 136.563 338.468 136.452 338.028 136.452C337.588 136.452 337.189 136.563 336.831 136.786C336.476 137.008 336.193 137.336 335.983 137.769C335.774 138.202 335.67 138.734 335.67 139.364C335.67 139.993 335.774 140.525 335.983 140.958C336.193 141.391 336.476 141.719 336.831 141.942C337.189 142.164 337.588 142.276 338.028 142.276C338.468 142.276 338.866 142.164 339.221 141.942C339.579 141.719 339.862 141.391 340.07 140.958C340.281 140.525 340.386 139.993 340.386 139.364ZM345.206 143.099C344.908 143.095 344.609 143.038 344.311 142.929C344.013 142.82 343.741 142.637 343.494 142.379C343.248 142.118 343.051 141.767 342.901 141.324C342.752 140.879 342.678 140.32 342.678 139.648C342.678 139.004 342.738 138.433 342.859 137.936C342.98 137.437 343.155 137.016 343.384 136.675C343.614 136.332 343.891 136.072 344.215 135.894C344.542 135.717 344.91 135.628 345.32 135.628C345.727 135.628 346.089 135.71 346.406 135.873C346.726 136.034 346.986 136.259 347.188 136.548C347.389 136.836 347.519 137.169 347.578 137.545H346.712C346.631 137.219 346.475 136.948 346.243 136.732C346.011 136.517 345.703 136.409 345.32 136.409C344.756 136.409 344.312 136.654 343.988 137.144C343.666 137.634 343.504 138.322 343.502 139.207H343.558C343.691 139.006 343.848 138.835 344.031 138.692C344.215 138.548 344.419 138.437 344.641 138.359C344.864 138.281 345.1 138.241 345.348 138.241C345.765 138.241 346.146 138.346 346.492 138.554C346.837 138.76 347.114 139.045 347.323 139.41C347.531 139.772 347.635 140.188 347.635 140.656C347.635 141.106 347.534 141.518 347.333 141.892C347.132 142.264 346.849 142.56 346.484 142.78C346.122 142.998 345.696 143.104 345.206 143.099ZM345.206 142.318C345.504 142.318 345.772 142.244 346.009 142.094C346.248 141.945 346.436 141.745 346.573 141.494C346.713 141.243 346.783 140.964 346.783 140.656C346.783 140.356 346.715 140.082 346.58 139.836C346.448 139.587 346.264 139.39 346.03 139.243C345.798 139.096 345.533 139.023 345.234 139.023C345.01 139.023 344.8 139.068 344.606 139.158C344.412 139.245 344.241 139.366 344.095 139.52C343.95 139.674 343.837 139.85 343.754 140.049C343.671 140.246 343.629 140.453 343.629 140.67C343.629 140.959 343.697 141.229 343.832 141.48C343.969 141.731 344.156 141.933 344.393 142.087C344.632 142.241 344.903 142.318 345.206 142.318Z" fill="black"/>
</g>
<defs>
<linearGradient id="paint0_linear_68_3507" x1="175.642" y1="23.3801" x2="175.642" y2="129.337" gradientUnits="userSpaceOnUse">
<stop stop-color="#00B4D8" stop-opacity="0.96"/>
<stop offset="1" stop-color="white" stop-opacity="0"/>
</linearGradient>
<linearGradient id="paint1_linear_68_3507" x1="359.003" y1="5.09892e-05" x2="-2.9449" y2="91.2409" gradientUnits="userSpaceOnUse">
<stop stop-color="#126CB7"/>
<stop offset="1" stop-color="#1F90CF"/>
</linearGradient>
<clipPath id="clip0_68_3507">
<rect width="360" height="194.5" fill="white"/>
</clipPath>
</defs>
</svg>
