<svg width="23" height="23" viewBox="0 0 23 23" fill="none" xmlns="http://www.w3.org/2000/svg">
<path d="M19.776 0H3.264C1.44 0 0 1.44 0 3.264V19.68C0 21.504 1.44 22.944 3.264 22.944H19.68C21.504 22.944 22.944 21.504 22.944 19.68V3.264C23.04 1.44 21.6 0 19.776 0ZM7.968 2.88C9.504 2.88 10.656 4.128 10.656 5.568C10.656 7.104 9.408 8.256 7.968 8.256C6.528 8.256 5.28 7.104 5.28 5.568C5.28 4.128 6.528 2.88 7.968 2.88ZM5.28 19.296H4.608C4.128 19.296 3.648 18.816 3.648 18.336C3.648 17.856 4.128 17.376 4.608 17.376H5.28C5.76 17.376 6.24 17.856 6.24 18.336C6.24 18.816 5.76 19.296 5.28 19.296ZM9.696 19.296H9.024C8.544 19.296 8.064 18.816 8.064 18.336C8.064 17.856 8.544 17.376 9.024 17.376H9.696C10.272 17.376 10.656 17.856 10.656 18.336C10.656 18.816 10.176 19.296 9.696 19.296ZM4.128 14.592C3.456 14.592 2.976 13.92 3.168 13.248C3.552 11.712 4.8 10.368 6.336 9.888C6.816 10.08 7.392 10.176 7.968 10.176C8.544 10.176 9.12 10.08 9.6 9.888C10.368 10.08 10.944 10.56 11.52 11.04C12.096 11.616 12.576 12.384 12.768 13.248C12.96 13.92 12.48 14.592 11.808 14.592H4.128ZM14.016 19.296H13.344C12.864 19.296 12.384 18.816 12.384 18.336C12.384 17.856 12.864 17.376 13.344 17.376H14.016C14.496 17.376 14.976 17.856 14.976 18.336C14.976 18.816 14.592 19.296 14.016 19.296ZM18.432 19.296H17.76C17.28 19.296 16.8 18.816 16.8 18.336C16.8 17.856 17.28 17.376 17.76 17.376H18.432C18.912 17.376 19.392 17.856 19.392 18.336C19.392 18.816 19.008 19.296 18.432 19.296ZM19.392 11.136H15.552C15.072 11.136 14.592 10.656 14.592 10.176C14.592 9.6 15.072 9.216 15.552 9.216H19.392C19.968 9.216 20.352 9.6 20.352 10.176C20.352 10.656 19.872 11.136 19.392 11.136ZM19.392 7.296H15.552C15.072 7.296 14.592 6.912 14.592 6.336C14.592 5.856 15.072 5.376 15.552 5.376H19.392C19.968 5.376 20.352 5.856 20.352 6.336C20.352 6.912 19.872 7.296 19.392 7.296Z" fill="#3498DB"/>
</svg>
