<svg width="24" height="24" viewBox="0 0 24 24" fill="none" xmlns="http://www.w3.org/2000/svg">
<g clip-path="url(#clip0_1717_1363)">
<path d="M21.1875 16.9462V16.1719C21.1875 15.0087 20.2413 14.0625 19.0781 14.0625H12.7031V12.6144C13.4047 12.5318 14.0686 12.3291 14.6838 12.0392C14.9049 11.2078 14.7975 10.3652 14.3325 9.67758C13.8073 8.901 12.9352 8.4375 12 8.4375C10.8183 8.4375 9.75469 9.18389 9.35367 10.2949C9.14981 10.8592 9.14105 11.4459 9.29592 12.0281C9.91683 12.3235 10.5876 12.5301 11.2969 12.614V14.0625H4.96875C3.80559 14.0625 2.85938 15.0087 2.85938 16.1719V16.9462C1.25667 17.2728 0 18.7399 0 20.4375C0 22.3759 1.62408 24 3.5625 24C5.50092 24 7.07812 22.3759 7.07812 20.4375C7.07812 18.7399 5.86833 17.2728 4.26562 16.9462V16.1719C4.26562 15.7839 4.58081 15.4688 4.96875 15.4688H11.2969V16.9462C9.69417 17.2728 8.48438 18.7399 8.48438 20.4375C8.48438 22.3759 10.0616 24 12 24C13.9384 24 15.5156 22.3759 15.5156 20.4375C15.5156 18.7399 14.3058 17.2728 12.7031 16.9462V15.4688H19.0781C19.4661 15.4688 19.7812 15.7839 19.7812 16.1719V16.9462C18.1785 17.2728 16.9688 18.7399 16.9688 20.4375C16.9688 22.3759 18.546 24 20.4844 24C22.4228 24 24 22.3759 24 20.4375C24 18.7399 22.7902 17.2728 21.1875 16.9462Z" fill="#3498DB"/>
<path d="M12 4.21875C11.2248 4.21875 10.5938 4.84978 10.5938 5.625C10.5938 6.40022 11.2248 7.03125 12 7.03125C12.7752 7.03125 13.4062 6.40022 13.4062 5.625C13.4062 4.84978 12.7752 4.21875 12 4.21875Z" fill="#3498DB"/>
<path d="M12 0C8.50505 0 5.67188 2.83317 5.67188 6.32812C5.67188 8.20308 6.50306 9.86958 7.79859 11.0283C7.82039 10.6208 7.88723 10.2149 8.03053 9.81764C8.38561 8.83392 9.09202 8.04891 9.97177 7.56398C9.48858 7.05881 9.1875 6.37781 9.1875 5.625C9.1875 4.07386 10.4489 2.8125 12 2.8125C13.5511 2.8125 14.8125 4.07386 14.8125 5.625C14.8125 6.37612 14.5125 7.05553 14.0313 7.56037C14.6085 7.87842 15.1158 8.32608 15.4971 8.88998C15.9352 9.53756 16.157 10.2738 16.1949 11.0336C17.4941 9.87473 18.3281 8.20608 18.3281 6.32812C18.3281 2.83317 15.495 0 12 0Z" fill="#3498DB"/>
</g>
<defs>
<clipPath id="clip0_1717_1363">
<rect width="24" height="24" fill="white"/>
</clipPath>
</defs>
</svg>
