<svg width="24" height="24" viewBox="0 0 24 24" fill="none" xmlns="http://www.w3.org/2000/svg">
<path d="M14.25 15.375C14.25 15.4745 14.2105 15.5698 14.1402 15.6402C14.0698 15.7105 13.9745 15.75 13.875 15.75H10.125C10.0255 15.75 9.93016 15.7105 9.85983 15.6402C9.78951 15.5698 9.75 15.4745 9.75 15.375C9.75 15.2755 9.78951 15.1802 9.85983 15.1098C9.93016 15.0395 10.0255 15 10.125 15H13.875C13.9745 15 14.0698 15.0395 14.1402 15.1098C14.2105 15.1802 14.25 15.2755 14.25 15.375ZM19.875 7.04314V21.375C19.8747 21.6733 19.756 21.9592 19.5451 22.1701C19.3342 22.381 19.0483 22.4997 18.75 22.5H5.25C4.95173 22.4997 4.66577 22.381 4.45487 22.1701C4.24396 21.9592 4.12533 21.6733 4.125 21.375V2.625C4.12533 2.32673 4.24396 2.04077 4.45487 1.82987C4.66577 1.61896 4.95173 1.50033 5.25 1.5H14.6717C14.827 1.50019 14.9806 1.53244 15.1228 1.59473C15.2651 1.65701 15.3929 1.748 15.4984 1.86199L19.5767 6.28016C19.7687 6.48783 19.8753 6.76032 19.875 7.04314ZM15.375 6.375H18.6436L15.375 2.83403V6.375ZM19.125 21.375V7.125H15.375C15.1761 7.1248 14.9855 7.04572 14.8449 6.90511C14.7043 6.7645 14.6252 6.57385 14.625 6.375V2.25H5.25C5.15058 2.25013 5.05528 2.28968 4.98498 2.35998C4.91468 2.43028 4.87513 2.52558 4.875 2.625V21.375C4.87513 21.4744 4.91468 21.5697 4.98498 21.64C5.05528 21.7103 5.15058 21.7499 5.25 21.75H18.75C18.8494 21.7499 18.9447 21.7103 19.015 21.64C19.0853 21.5697 19.1249 21.4744 19.125 21.375ZM6.375 4.875H10.125C10.2245 4.875 10.3198 4.83549 10.3902 4.76516C10.4605 4.69484 10.5 4.59946 10.5 4.5C10.5 4.40054 10.4605 4.30516 10.3902 4.23484C10.3198 4.16451 10.2245 4.125 10.125 4.125H6.375C6.27554 4.125 6.18016 4.16451 6.10983 4.23484C6.03951 4.30516 6 4.40054 6 4.5C6 4.59946 6.03951 4.69484 6.10983 4.76516C6.18016 4.83549 6.27554 4.875 6.375 4.875ZM6.375 7.125H13.125C13.2245 7.125 13.3198 7.08549 13.3902 7.01517C13.4605 6.94484 13.5 6.84946 13.5 6.75C13.5 6.65054 13.4605 6.55516 13.3902 6.48483C13.3198 6.41451 13.2245 6.375 13.125 6.375H6.375C6.27554 6.375 6.18016 6.41451 6.10983 6.48483C6.03951 6.55516 6 6.65054 6 6.75C6 6.84946 6.03951 6.94484 6.10983 7.01517C6.18016 7.08549 6.27554 7.125 6.375 7.125ZM17.625 8.625H6.375C6.27554 8.625 6.18016 8.66451 6.10983 8.73483C6.03951 8.80516 6 8.90054 6 9C6 9.09946 6.03951 9.19484 6.10983 9.26517C6.18016 9.33549 6.27554 9.375 6.375 9.375H17.625C17.7245 9.375 17.8198 9.33549 17.8902 9.26517C17.9605 9.19484 18 9.09946 18 9C18 8.90054 17.9605 8.80516 17.8902 8.73483C17.8198 8.66451 17.7245 8.625 17.625 8.625ZM13.125 4.875C13.1992 4.875 13.2717 4.85301 13.3333 4.8118C13.395 4.7706 13.4431 4.71203 13.4715 4.64351C13.4998 4.57498 13.5073 4.49958 13.4928 4.42684C13.4783 4.3541 13.4426 4.28728 13.3902 4.23484C13.3377 4.18239 13.2709 4.14667 13.1982 4.13221C13.1254 4.11774 13.05 4.12516 12.9815 4.15355C12.913 4.18193 12.8544 4.22999 12.8132 4.29166C12.772 4.35333 12.75 4.42583 12.75 4.5C12.75 4.59946 12.7895 4.69484 12.8598 4.76516C12.9302 4.83549 13.0255 4.875 13.125 4.875ZM11.625 4.875C11.6992 4.875 11.7717 4.85301 11.8333 4.8118C11.895 4.7706 11.9431 4.71203 11.9715 4.64351C11.9998 4.57498 12.0073 4.49958 11.9928 4.42684C11.9783 4.3541 11.9426 4.28728 11.8902 4.23484C11.8377 4.18239 11.7709 4.14667 11.6982 4.13221C11.6254 4.11774 11.55 4.12516 11.4815 4.15355C11.413 4.18193 11.3544 4.22999 11.3132 4.29166C11.272 4.35333 11.25 4.42583 11.25 4.5C11.25 4.59946 11.2895 4.69484 11.3598 4.76516C11.4302 4.83549 11.5255 4.875 11.625 4.875ZM18 11.25V19.5C17.9998 19.6989 17.9207 19.8895 17.7801 20.0301C17.6395 20.1707 17.4489 20.2498 17.25 20.25H6.75C6.55115 20.2498 6.3605 20.1707 6.21989 20.0301C6.07928 19.8895 6.0002 19.6989 6 19.5V11.25C6.0002 11.0511 6.07928 10.8605 6.21989 10.7199C6.3605 10.5793 6.55115 10.5002 6.75 10.5H17.25C17.4489 10.5002 17.6395 10.5793 17.7801 10.7199C17.9207 10.8605 17.9998 11.0511 18 11.25ZM17.2506 19.5L17.25 11.25H6.75V19.5H17.2506Z" fill="#3498DB"/>
</svg>
