<svg width="538" height="132" viewBox="0 0 538 132" fill="none" xmlns="http://www.w3.org/2000/svg">
<g clip-path="url(#clip0_375_4537)">
<rect width="538" height="132" fill="#2090CF"/>
<rect x="-66" width="132" height="132" rx="63" fill="#1F74BB"/>
<circle cx="458.576" cy="106.234" r="26.1522" transform="rotate(90 458.576 106.234)" fill="white" fill-opacity="0.1"/>
<circle cx="511.705" cy="53.2231" r="26.2978" transform="rotate(90 511.705 53.2231)" fill="white" fill-opacity="0.1"/>
<path opacity="0.1" d="M432.428 0.627471C432.428 4.08095 433.108 7.50062 434.43 10.6912C435.751 13.8818 437.688 16.7809 440.13 19.2229C442.572 21.6648 445.471 23.6019 448.662 24.9235C451.852 26.2451 455.272 26.9253 458.726 26.9253C462.179 26.9253 465.599 26.2451 468.789 24.9235C471.98 23.6019 474.879 21.6648 477.321 19.2228C479.763 16.7809 481.7 13.8818 483.022 10.6912C484.343 7.50061 485.023 4.08094 485.023 0.627462L458.726 0.62747L432.428 0.627471Z" fill="white"/>
<path opacity="0.1" d="M406 79.5621C409.467 79.5621 412.9 78.8792 416.103 77.5525C419.306 76.2257 422.216 74.2811 424.668 71.8296C427.119 69.3781 429.064 66.4677 430.391 63.2646C431.718 60.0616 432.4 56.6286 432.4 53.1616C432.4 49.6946 431.718 46.2616 430.391 43.0586C429.064 39.8555 427.119 36.9451 424.668 34.4936C422.216 32.0421 419.306 30.0975 416.103 28.7707C412.9 27.444 409.467 26.7611 406 26.7611L406 53.1616L406 79.5621Z" fill="white"/>
<rect opacity="0.2" x="485.212" y="26.7831" width="52.7833" height="52.784" transform="rotate(90 485.212 26.7831)" fill="white"/>
<path d="M537.992 79.5612L509.872 106.912L485.209 132.344L485.209 79.5612L537.992 79.5612Z" fill="white" fill-opacity="0.15"/>
<path d="M485.212 26.7831L513.332 -0.567338L537.995 -26.0002L537.995 26.7831L485.212 26.7831Z" fill="white" fill-opacity="0.15"/>
</g>
<defs>
<clipPath id="clip0_375_4537">
<rect width="538" height="132" fill="white"/>
</clipPath>
</defs>
</svg>
