<svg width="120" height="99" viewBox="0 0 120 99" fill="none" xmlns="http://www.w3.org/2000/svg">
<g opacity="0.4" clip-path="url(#clip0_109_2053)">
<path d="M16.0827 22.7813C12.8725 22.7826 11.4935 27.4308 8.352 28.0913C6.94892 28.3863 5.51735 27.7991 4.0838 27.7736C2.65026 27.7482 0.935538 28.7891 1.23846 30.1905L28.5684 29.7785C25.7435 29.4852 23.1012 28.244 21.0719 26.257C19.5906 24.7839 18.1717 22.7804 16.0827 22.7813Z" fill="#F0F0F0"/>
<path d="M78.7678 71.5492C74.7743 71.5488 70.9103 70.1322 67.8629 67.5513C64.8155 64.9703 62.7821 61.3923 62.1243 57.4533L62.119 57.4208L62.14 57.3955C63.2195 56.1028 64.0921 54.6507 64.7267 53.0907C63.9715 54.0586 63.0592 54.893 62.0279 55.559L61.9222 55.6295L61.916 55.5025C61.9025 55.223 61.8957 54.9453 61.8957 54.6771C61.8863 51.8081 62.6129 48.9846 64.0059 46.4765C65.399 43.9684 67.412 41.8594 69.8526 40.3512C65.5816 35.9191 63.2007 30.0002 63.213 23.8451C63.213 10.6969 73.912 2.38177e-05 87.0629 2.38177e-05C92.0769 -0.00706588 96.9652 1.56878 101.031 4.50295C105.097 7.43712 108.133 11.5799 109.706 16.3407L109.727 16.4048L109.665 16.4301C108.041 17.0876 106.547 17.4034 105.117 17.388C106.746 17.8493 108.437 18.0538 110.129 17.994L110.187 17.992L110.202 18.0485C110.674 19.9445 110.913 21.8912 110.913 23.8451C110.913 23.9156 110.912 23.9861 110.912 24.0565C110.907 25.5758 111.223 27.0791 111.838 28.4682C112.453 29.8574 113.355 31.1013 114.483 32.1189C116.285 33.7587 117.711 35.7696 118.662 38.0131C119.613 40.2566 120.067 42.6795 119.992 45.1151C119.917 47.5508 119.316 49.9413 118.229 52.1222C117.142 54.3031 115.595 56.2227 113.696 57.7488L113.661 57.7766L113.621 57.7583C111.126 56.6265 109.389 55.3631 108.206 53.812C109.006 55.7651 110.172 57.5471 111.642 59.0618L111.706 59.1278L111.627 59.1742C109.105 60.643 106.246 61.4333 103.328 61.468C100.411 61.5027 97.5335 60.7807 94.9778 59.3723C93.9513 62.8792 91.8181 65.96 88.8965 68.1547C85.9749 70.3494 82.4219 71.5401 78.7678 71.5492Z" fill="#1F90CF"/>
<path d="M72.7569 98.4243C72.6832 98.4242 72.6119 98.3975 72.5563 98.3491C72.5006 98.3008 72.4642 98.234 72.4538 98.1609C72.4408 98.0694 71.1651 88.8691 72.3108 76.6415C73.3689 65.349 76.7667 49.0838 86.9454 35.7255C86.9698 35.6934 87.0003 35.6665 87.0351 35.6462C87.0699 35.6259 87.1083 35.6127 87.1482 35.6073C87.1882 35.6019 87.2287 35.6044 87.2677 35.6147C87.3066 35.6249 87.3432 35.6428 87.3752 35.6672C87.4072 35.6916 87.4342 35.7221 87.4544 35.7569C87.4747 35.7918 87.4878 35.8302 87.4932 35.8702C87.4986 35.9101 87.496 35.9507 87.4857 35.9896C87.4754 36.0285 87.4575 36.065 87.4331 36.0971C77.3423 49.34 73.9719 65.4859 72.9213 76.6987C71.7822 88.8551 73.0479 97.9837 73.0608 98.0745C73.067 98.118 73.0637 98.1623 73.0512 98.2044C73.0388 98.2466 73.0174 98.2855 72.9886 98.3187C72.9598 98.3518 72.9242 98.3784 72.8842 98.3967C72.8443 98.4149 72.8009 98.4243 72.7569 98.4243Z" fill="#3F3D56"/>
<path d="M77.8452 53.3889C77.7804 53.389 77.7173 53.3685 77.6649 53.3305C77.6125 53.2924 77.5735 53.2388 77.5534 53.1772C77.5334 53.1156 77.5334 53.0493 77.5534 52.9877C77.5734 52.9261 77.6123 52.8724 77.6647 52.8344C77.7017 52.8075 81.4253 50.1245 86.9921 48.0862C92.1382 46.2022 99.9636 44.4942 108.02 47.0582C108.058 47.0704 108.094 47.09 108.125 47.1159C108.155 47.1419 108.181 47.1737 108.199 47.2094C108.218 47.2452 108.229 47.2843 108.232 47.3244C108.236 47.3645 108.231 47.405 108.219 47.4433C108.207 47.4817 108.187 47.5173 108.161 47.5481C108.135 47.5789 108.103 47.6042 108.068 47.6227C108.032 47.6412 107.993 47.6525 107.953 47.6558C107.913 47.6592 107.872 47.6546 107.834 47.6424C99.9427 45.1311 92.2592 46.8108 87.2029 48.662C81.7156 50.6711 78.0614 53.304 78.0252 53.3303C77.9729 53.3684 77.9099 53.3889 77.8452 53.3889Z" fill="#3F3D56"/>
<path d="M16.0092 90.0702L17.045 90.3944L23.9957 68.1836C23.7115 68.1112 23.4103 68.1505 23.1541 68.2933C22.8979 68.4361 22.7062 68.6715 22.6182 68.9513L16.0092 90.0702Z" fill="#3F3D56"/>
<path d="M38.8532 61.0975H34.271V47.629H38.8532C39.7298 47.63 40.5703 47.9787 41.1902 48.5986C41.8101 49.2185 42.1587 50.0589 42.1597 50.9356V57.791C42.1587 58.6676 41.8101 59.5081 41.1902 60.128C40.5703 60.7479 39.7298 61.0966 38.8532 61.0975Z" fill="#2F2E41"/>
<path d="M38.2153 53.8823C38.0623 53.8821 37.9156 53.8213 37.8074 53.7131C37.6992 53.6048 37.6383 53.4581 37.6381 53.3051V48.3025H38.7926V53.3051C38.7924 53.4581 38.7315 53.6048 38.6233 53.7131C38.5151 53.8213 38.3684 53.8821 38.2153 53.8823Z" fill="#3F3D56"/>
<path d="M39.6031 60.0393H36.2504C36.0571 60.0391 35.8719 59.9622 35.7353 59.8256C35.5987 59.689 35.5219 59.5038 35.5216 59.3106V57.3047C35.5219 57.1115 35.5987 56.9263 35.7353 56.7897C35.8719 56.6531 36.0571 56.5762 36.2504 56.576H39.6031C39.7963 56.5762 39.9815 56.6531 40.1181 56.7897C40.2548 56.9263 40.3316 57.1115 40.3318 57.3047V59.3106C40.3316 59.5038 40.2548 59.689 40.1181 59.8256C39.9815 59.9622 39.7963 60.0391 39.6031 60.0393Z" fill="#3F3D56"/>
<path d="M29.8273 46.2277C29.7485 46.2277 29.6721 46.2005 29.6111 46.1506C29.5734 46.1198 29.5424 46.0816 29.5201 46.0382C29.4978 45.9949 29.4847 45.9475 29.4816 45.8988C29.3735 44.1728 29.6733 42.4456 30.3568 40.857C30.82 39.7846 31.3528 39.0937 32.0337 38.6824C32.9419 38.1339 34.1882 38.09 35.4529 38.5622C36.1757 38.8321 36.6969 39.1848 37.0464 39.6405C37.5128 40.2485 37.659 41.0286 37.7476 41.781C37.8813 42.9194 37.9127 44.0674 37.8415 45.2114C37.8382 45.2705 37.8194 45.3277 37.7868 45.3772C37.7542 45.4266 37.7091 45.4665 37.6561 45.4928C37.5987 45.5208 37.535 45.5334 37.4713 45.5292C37.4076 45.525 37.3461 45.5042 37.2929 45.4689C37.2715 45.4548 37.2493 45.4419 37.2266 45.4301C37.1114 45.3723 36.984 45.343 36.8551 45.3447C36.7263 45.3463 36.5997 45.3788 36.486 45.4395C36.4025 45.4889 36.3236 45.5455 36.2501 45.6088L35.7954 45.9769C35.7393 46.0214 35.6708 46.0477 35.5993 46.0522C35.5278 46.0568 35.4567 46.0393 35.3954 46.0022C35.0656 45.8148 34.6971 45.706 34.3184 45.6842C33.8156 45.6654 33.3123 45.702 32.8175 45.7931L29.8786 46.2239C29.8616 46.2264 29.8445 46.2277 29.8273 46.2277Z" fill="#2F2E41"/>
<path d="M29.4349 95.2449H27.8654L27.1188 89.1912H29.4352L29.4349 95.2449Z" fill="#FFB6B6"/>
<path d="M30.2792 98.2249H29.1656L28.9668 97.1734L28.4577 98.2249H25.5039C25.3624 98.2249 25.2245 98.1796 25.1104 98.0957C24.9964 98.0118 24.9122 97.8937 24.87 97.7585C24.8279 97.6233 24.8301 97.4782 24.8762 97.3444C24.9224 97.2105 25.0101 97.095 25.1267 97.0145L27.4854 95.3855V94.3225L29.9664 94.4706L30.2792 98.2249Z" fill="#2F2E41"/>
<path d="M47.4971 93.9022L46.0502 94.5105L43.0155 89.2194L45.1509 88.3218L47.4971 93.9022Z" fill="#FFB6B6"/>
<path d="M49.4304 96.3221L48.4037 96.7537L47.8129 95.8615L47.7512 97.0281L45.0284 98.173C44.8979 98.2279 44.7532 98.2396 44.6156 98.2065C44.4779 98.1734 44.3545 98.0971 44.2632 97.9888C44.172 97.8805 44.1178 97.746 44.1084 97.6047C44.0991 97.4634 44.1352 97.3228 44.2114 97.2035L45.7543 94.7876L45.3423 93.8077L47.6868 92.9825L49.4304 96.3221Z" fill="#2F2E41"/>
<path d="M28.7016 54.0159L28.2518 60.0413L25.2689 69.0396L24.071 68.3433L25.6962 59.1919L26.2481 53.9125L28.7016 54.0159Z" fill="#FFB6B6"/>
<path d="M24.5728 70.3511C25.2659 70.3511 25.8278 69.7893 25.8278 69.0962C25.8278 68.4031 25.2659 67.8412 24.5728 67.8412C23.8797 67.8412 23.3178 68.4031 23.3178 69.0962C23.3178 69.7893 23.8797 70.3511 24.5728 70.3511Z" fill="#FFB6B6"/>
<path d="M36.3555 60.9556V62.6177C36.3555 62.6177 38.9281 67.1512 37.8806 69.0967L41.743 79.662C41.743 79.662 46.9807 84.8998 46.5318 88.6411L46.8311 89.8383L43.3891 91.3348L42.6409 90.2872L36.8045 80.2606L31.866 71.1319L30.9681 81.9068C30.9681 81.9068 31.5667 90.2872 29.9205 91.1851L29.7709 92.532H26.2776V91.2517C26.2776 91.2517 24.982 86.6956 25.7303 83.2536L25.431 68.7374C25.431 68.7374 26.7778 62.6017 28.424 61.5542L29.0226 60.0577L36.3555 60.9556Z" fill="#2F2E41"/>
<path d="M39.1043 49.4348L35.8422 47.9075L34.9007 46.2667L31.7345 46.4462L30.7764 48.0101L27.9582 48.5811L28.3724 58.767C28.1879 59.0864 28.1221 59.4607 28.1867 59.8239C28.2856 60.4623 28.7877 59.9601 28.2856 60.4623C27.7834 60.9644 27.4049 60.7121 27.6569 61.1521C27.9089 61.5921 27.2891 62.2782 27.2891 62.2782C27.2891 62.2782 35.3059 66.3614 37.5706 61.1521C37.5706 61.1521 38.0171 59.6283 37.2628 56.436C36.5085 53.2436 39.1043 49.4348 39.1043 49.4348Z" fill="#E4E4E4"/>
<path d="M28.8844 49.2297L27.9582 48.5811C27.9582 48.5811 26.6771 49.1069 26.6339 50.1709C26.5907 51.2349 25.8544 54.419 25.8544 54.419L28.7788 55.9912L28.8844 49.2297Z" fill="#E4E4E4"/>
<path d="M39.8746 54.5181L39.425 60.5434L34.4334 68.0354L33.2356 67.3391L36.8694 59.6942L37.4213 54.4148L39.8746 54.5181Z" fill="#FFB6B6"/>
<path d="M37.5784 49.7754L39.1042 49.4348C39.1042 49.4348 40.0237 49.7284 40.1492 51.1094C40.2747 52.4903 40.38 54.8938 40.38 54.8938L37.178 57.2485L36.383 53.8713L37.5784 49.7754Z" fill="#E4E4E4"/>
<path d="M33.6118 69.3468C34.3049 69.3468 34.8667 68.7849 34.8667 68.0918C34.8667 67.3987 34.3049 66.8369 33.6118 66.8369C32.9187 66.8369 32.3568 67.3987 32.3568 68.0918C32.3568 68.7849 32.9187 69.3468 33.6118 69.3468Z" fill="#FFB6B6"/>
<path d="M33.0313 45.7288C34.6468 45.7288 35.9565 44.4192 35.9565 42.8037C35.9565 41.1882 34.6468 39.8785 33.0313 39.8785C31.4158 39.8785 30.1062 41.1882 30.1062 42.8037C30.1062 44.4192 31.4158 45.7288 33.0313 45.7288Z" fill="#FFB7B7"/>
<path d="M30.6488 42.3627H30.6486C30.276 42.3625 29.9029 42.362 29.5293 42.3612C29.4848 42.361 29.4408 42.3519 29.3998 42.3345C29.3589 42.317 29.3219 42.2915 29.2909 42.2595C29.2604 42.2283 29.2366 42.1911 29.2209 42.1504C29.2051 42.1096 29.1978 42.0661 29.1994 42.0224C29.2269 41.4026 29.4041 40.7986 29.7157 40.262C30.0272 39.7255 30.464 39.2723 30.9887 38.9411C31.5404 38.6047 32.17 38.4171 32.8158 38.3966C33.4617 38.3762 34.1018 38.5237 34.6737 38.8246C35.2455 39.1255 35.7296 39.5696 36.0785 40.1135C36.4274 40.6574 36.6292 41.2826 36.6643 41.9278C36.6668 41.9714 36.6606 42.015 36.646 42.0562C36.6314 42.0973 36.6088 42.1352 36.5795 42.1675C36.5502 42.1999 36.5147 42.226 36.4752 42.2445C36.4356 42.263 36.3928 42.2735 36.3492 42.2753C35.0547 42.33 33.6187 42.3566 31.6931 42.3616H31.6921C31.6266 42.3618 31.5625 42.3424 31.5081 42.3059C31.4537 42.2693 31.4115 42.2174 31.3868 42.1566L31.3558 42.0808C31.3395 42.0409 31.311 42.0072 31.2743 41.9845C31.2376 41.9618 31.1947 41.9514 31.1517 41.9546C31.1087 41.9579 31.0678 41.9747 31.035 42.0027C31.0021 42.0306 30.979 42.0683 30.9689 42.1102C30.9518 42.1822 30.9109 42.2463 30.8528 42.2922C30.7946 42.338 30.7228 42.3628 30.6488 42.3627Z" fill="#2F2E41"/>
<path d="M37.1963 57.1146C36.4101 56.3748 36.0722 55.3014 36.0668 54.2414C36.0606 53.0307 36.4988 51.8808 37.0656 50.8282C37.4083 50.1915 37.7989 49.5823 38.1896 48.9745C38.3211 48.7701 37.9952 48.581 37.8644 48.7845C36.5423 50.8409 35.0863 53.2767 35.9389 55.804C36.1346 56.4031 36.475 56.9447 36.93 57.3809C37.1064 57.5469 37.3732 57.2811 37.1963 57.1146Z" fill="#3F3D56"/>
<path d="M16.0293 79.5886C15.3815 79.3843 14.6892 79.3669 14.032 79.5385C14.0305 79.5393 14.0293 79.5389 14.0279 79.5397C13.5185 79.6721 13.0437 79.9127 12.6358 80.2451C12.6121 80.2642 12.5896 80.2837 12.567 80.3032C12.0501 80.7465 11.6685 81.3265 11.4659 81.9766L8.67102 90.9075C8.46311 91.5686 8.4489 92.2754 8.63008 92.9443C8.64103 92.9818 8.65201 93.0194 8.663 93.0569C8.79866 93.5001 9.017 93.9136 9.30648 94.2755C9.3083 94.2773 9.30975 94.2795 9.31078 94.2819C9.76266 94.8429 10.3712 95.2568 11.059 95.4709L16.3301 97.1204L21.3003 81.2381L16.0293 79.5886Z" fill="#1F90CF"/>
<path d="M24.341 68.2916L17.5524 89.9845C17.531 90.0525 17.5233 90.1241 17.5296 90.1951C17.5359 90.2661 17.5562 90.3352 17.5892 90.3984C17.6222 90.4616 17.6674 90.5177 17.7221 90.5634C17.7768 90.6091 17.84 90.6436 17.9081 90.6649C17.9761 90.6862 18.0477 90.6939 18.1187 90.6875C18.1897 90.6811 18.2588 90.6608 18.3219 90.6277C18.3851 90.5946 18.4411 90.5494 18.4868 90.4947C18.5325 90.4399 18.5669 90.3767 18.5882 90.3086L25.0351 69.7077C25.1223 69.4276 25.099 69.1248 24.9699 68.8615C24.8408 68.5981 24.6157 68.3942 24.341 68.2916Z" fill="#3F3D56"/>
<path d="M15.874 98.3097C16.4106 98.3097 16.8456 97.8747 16.8456 97.3381C16.8456 96.8016 16.4106 96.3666 15.874 96.3666C15.3374 96.3666 14.9024 96.8016 14.9024 97.3381C14.9024 97.8747 15.3374 98.3097 15.874 98.3097Z" fill="#3F3D56"/>
<path d="M9.54411 96.3288C10.0807 96.3288 10.5157 95.8938 10.5157 95.3572C10.5157 94.8207 10.0807 94.3857 9.54411 94.3857C9.00753 94.3857 8.57254 94.8207 8.57254 95.3572C8.57254 95.8938 9.00753 96.3288 9.54411 96.3288Z" fill="#3F3D56"/>
<path d="M14.0321 79.5385C13.0255 82.6946 10.3885 90.9471 9.31083 94.2819C9.3098 94.2795 9.30835 94.2774 9.30653 94.2755C9.01705 93.9136 8.79871 93.5001 8.66305 93.0569C8.65209 93.0194 8.64112 92.9818 8.63013 92.9443C9.78563 89.3205 11.7209 83.2088 12.567 80.3032C12.5896 80.2837 12.6121 80.2643 12.6358 80.2451C13.0437 79.9127 13.5186 79.6721 14.0279 79.5397C14.0294 79.5389 14.0305 79.5393 14.0321 79.5385Z" fill="#3F3D56"/>
<path d="M93.4513 98.3739H0.171578C0.126157 98.3738 0.0826418 98.3557 0.0505705 98.3235C0.0184991 98.2913 0.000488281 98.2478 0.000488281 98.2023C0.000488281 98.1569 0.0184991 98.1134 0.0505705 98.0812C0.0826418 98.049 0.126157 98.0309 0.171578 98.0308H93.4513C93.4968 98.0309 93.5403 98.049 93.5723 98.0812C93.6044 98.1134 93.6224 98.1569 93.6224 98.2023C93.6224 98.2478 93.6044 98.2913 93.5723 98.3235C93.5403 98.3557 93.4968 98.3738 93.4513 98.3739Z" fill="#CACACA" fill-opacity="0.5"/>
<path d="M45.2819 8.38771C43.8007 6.91458 42.3818 4.91113 40.2928 4.91199C37.0826 4.9133 35.7036 9.56148 32.562 10.222C31.159 10.517 29.7274 9.92973 28.2939 9.90432C26.8603 9.87892 25.1456 10.9198 25.4485 12.3212L52.7784 11.9092C49.9536 11.6159 47.3112 10.3747 45.2819 8.38771Z" fill="#F0F0F0"/>
<path d="M106.15 2.24097C102.94 2.24228 101.561 6.89046 98.419 7.55099C97.016 7.846 95.5844 7.25871 94.1508 7.2333C92.7173 7.2079 91.0026 8.2488 91.3055 9.65021L118.635 9.23818C115.811 8.94487 113.168 7.70363 111.139 5.71668C109.658 4.24355 108.239 2.24011 106.15 2.24097Z" fill="#F0F0F0"/>
</g>
<defs>
<clipPath id="clip0_109_2053">
<rect width="120" height="98.4243" fill="white"/>
</clipPath>
</defs>
</svg>
