<svg width="24" height="24" viewBox="0 0 24 24" fill="none" xmlns="http://www.w3.org/2000/svg">
<g clip-path="url(#clip0_1784_2697)">
<path d="M23.2002 9.5138C23.0411 9.5138 22.8885 9.57701 22.7759 9.68953C22.6634 9.80205 22.6002 9.95467 22.6002 10.1138V16.0666H17.6002C17.1936 16.067 16.8038 16.2287 16.5162 16.5162C16.2287 16.8038 16.067 17.1936 16.0666 17.6002V22.6002H5.4674C4.38988 22.5968 3.35746 22.1673 2.59546 21.4055C1.83347 20.6437 1.40378 19.6113 1.4002 18.5338V5.4674C1.40357 4.38988 1.83305 3.35746 2.5949 2.59546C3.35674 1.83347 4.38908 1.40378 5.4666 1.4002H13.9058C14.0649 1.4002 14.2175 1.33698 14.3301 1.22446C14.4426 1.11194 14.5058 0.959325 14.5058 0.800195C14.5058 0.641065 14.4426 0.488453 14.3301 0.375931C14.2175 0.263409 14.0649 0.200195 13.9058 0.200195H5.4666C4.07096 0.203786 2.73352 0.75979 1.74665 1.74665C0.75979 2.73352 0.203786 4.07096 0.200195 5.4666V18.5338C0.203786 19.9294 0.75979 21.2669 1.74665 22.2537C2.73352 23.2406 4.07096 23.7966 5.4666 23.8002H16.0666C16.2859 23.8001 16.5051 23.786 16.7226 23.7578C16.7387 23.7568 16.7548 23.7547 16.7706 23.7514C17.9091 23.5942 18.9652 23.0698 19.7786 22.2578L22.2586 19.7778C23.2466 18.7899 23.802 17.4502 23.8026 16.053V10.1138C23.8026 10.0348 23.787 9.95658 23.7567 9.88363C23.7264 9.81068 23.682 9.74443 23.626 9.68868C23.57 9.63293 23.5036 9.58879 23.4305 9.55878C23.3575 9.52877 23.2792 9.51348 23.2002 9.5138ZM21.4082 18.929L18.9282 21.409C18.4638 21.8738 17.8932 22.2187 17.2658 22.4138V17.6002C17.266 17.5116 17.3013 17.4268 17.364 17.3643C17.4267 17.3017 17.5116 17.2666 17.6002 17.2666H22.4154C22.2193 17.8942 21.8737 18.4647 21.4082 18.929Z" fill="#3498DB"/>
<path d="M17.2958 1.73567L6.41021 12.6213C5.42237 13.6089 4.86703 14.9484 4.86621 16.3453V17.5997C4.86663 18.0063 5.02835 18.3961 5.31586 18.6836C5.60337 18.9711 5.9932 19.1328 6.39981 19.1333H7.66621C9.0582 19.1295 10.3921 18.5749 11.3766 17.5909L22.2638 6.70367L22.7542 6.21327C23.4116 5.55129 23.7797 4.65565 23.7777 3.72272C23.7758 2.78978 23.404 1.89568 22.7438 1.23647C22.0761 0.596738 21.1866 0.240404 20.2619 0.242194C19.3372 0.243984 18.4491 0.603758 17.7838 1.24607L17.2942 1.73567H17.2958ZM10.527 16.7437C9.76761 17.5029 8.73847 17.9306 7.66461 17.9333H6.39981C6.31146 17.9328 6.22686 17.8976 6.16438 17.8351C6.10191 17.7726 6.06663 17.688 6.06621 17.5997V16.3445C6.06664 15.2673 6.49449 14.2344 7.25581 13.4725L17.7206 3.00687L20.9918 6.27807L10.527 16.7437ZM21.907 2.09167C22.3391 2.52635 22.5816 3.11436 22.5816 3.72727C22.5816 4.34018 22.3391 4.92818 21.907 5.36287L21.8398 5.43007L18.5694 2.15967L18.627 2.10207C19.0672 1.67836 19.6539 1.44081 20.2649 1.43887C20.8759 1.43694 21.4641 1.67077 21.907 2.09167Z" fill="#3498DB"/>
</g>
<defs>
<clipPath id="clip0_1784_2697">
<rect width="24" height="24" fill="white"/>
</clipPath>
</defs>
</svg>
