<svg width="161" height="113" viewBox="0 0 161 113" fill="none" xmlns="http://www.w3.org/2000/svg">
<g clip-path="url(#clip0_136_2089)">
<path d="M66.9749 15.1294C67.5381 13.9168 68.4402 12.9103 68.9913 11.6913C69.5424 10.4723 69.6498 8.84068 68.7314 7.90759C67.9516 7.11541 66.73 7.10424 65.7975 6.53029C63.4215 5.06836 63.4241 0.424605 60.7088 0.0233588C59.388 -0.17168 58.1928 0.885994 57.3945 2.0268C56.5962 3.1676 55.96 4.49829 54.8528 5.29176C53.5993 6.19005 51.979 6.22914 50.5871 6.85314C47.9187 8.04936 46.5196 11.1255 45.3498 13.9527C44.5961 15.7738 43.8254 17.7381 44.175 19.6939C43.4149 20.1989 43.7536 21.5573 44.5123 22.0646C45.2709 22.572 46.2235 22.5608 47.0946 22.7806C48.9249 23.2424 50.4246 24.7997 51.1354 26.6592C51.6893 28.1091 51.8026 29.701 51.9096 31.2626L52.4659 39.3923C52.5484 40.598 52.6566 41.8793 53.3439 42.8399C54.0311 43.8004 55.5191 44.203 56.2915 43.3195C57.0297 42.4751 56.6972 41.1382 56.6823 39.983C56.6674 38.8278 57.6451 37.3895 58.5671 37.9938L58.8924 37.2059C60.9983 36.4006 62.8423 34.9644 64.2037 33.069C65.565 31.1735 66.3861 28.8993 66.5686 26.5185C66.8034 22.683 65.3741 18.5711 66.9749 15.1294Z" fill="#E6E6E6"/>
<path d="M69.1264 39.4467C69.3299 39.2419 69.4743 38.9793 69.5425 38.6898C69.6108 38.4004 69.6001 38.096 69.5117 37.8128C69.4234 37.5296 69.261 37.2793 69.0437 37.0914C68.8265 36.9035 68.5635 36.7859 68.2857 36.7524L68.2891 36.8826C67.8927 37.1298 67.4407 37.2566 66.9817 37.2495C66.5244 37.2418 66.0693 37.3187 65.6365 37.477C65.4214 37.5605 65.2351 37.7117 65.1019 37.9105C64.9687 38.1093 64.8951 38.3465 64.8905 38.5909C64.9156 38.7783 64.9827 38.9564 65.0861 39.1101C65.1895 39.2638 65.3261 39.3887 65.4843 39.474C65.8019 39.641 66.1428 39.7516 66.4938 39.8013C67.3989 39.9832 68.4572 40.1207 69.1264 39.4467Z" fill="#E6E6E6"/>
<path d="M86.7623 15.1936C87.1414 14.9186 87.4632 14.563 87.7076 14.149C87.826 13.9396 87.8823 13.6969 87.8692 13.4527C87.856 13.2085 87.7741 12.9743 87.634 12.7808C87.3488 12.5165 86.9819 12.375 86.6044 12.3836C85.5795 12.3019 84.5494 12.4316 83.5703 12.7657L86.5861 15.6191L86.7623 15.1936Z" fill="#E6E6E6"/>
<path d="M81.735 17.6675C82.1413 18.1465 82.0117 18.8895 81.8959 19.524C81.78 20.1585 81.7661 20.9513 82.278 21.2976C82.7205 21.5983 83.3426 21.3528 83.6659 20.9123C83.9553 20.4427 84.1318 19.9041 84.1796 19.3442C84.3388 18.53 84.4107 17.6991 84.394 16.8676C84.3747 16.0299 84.0979 15.2223 83.6063 14.5692C83.2574 14.1444 82.7927 13.8468 82.2775 13.7182C81.7622 13.5897 81.2222 13.6366 80.7331 13.8524L81.2002 13.8277C80.8606 14.2933 80.6031 14.8209 80.4403 15.3848C80.3623 15.6681 80.3568 15.9686 80.4244 16.2549C80.4919 16.5413 80.63 16.8031 80.8242 17.0132C81.1022 17.269 81.4882 17.3766 81.735 17.6675Z" fill="#E6E6E6"/>
<path d="M104.652 9.63462L104.735 9.36139C104.387 9.57584 104.119 9.9113 103.976 10.3115C103.833 10.7118 103.822 11.1525 103.947 11.5599C104.214 11.3349 104.42 11.0379 104.544 10.6994C104.668 10.361 104.705 9.99346 104.652 9.63462Z" fill="#E6E6E6"/>
<path d="M100.137 13.5436C100.579 13.2761 100.957 12.9017 101.239 12.4503C101.522 11.999 101.701 11.4832 101.763 10.9445C101.811 10.6096 101.775 10.2671 101.658 9.95211C101.598 9.79568 101.503 9.65751 101.38 9.54989C101.258 9.44226 101.113 9.36851 100.958 9.33521L100.769 9.65311C100.498 9.40373 100.042 9.6602 99.9282 10.0226C99.8546 10.3987 99.8852 10.7896 100.016 11.1475C100.147 11.5075 100.141 11.9079 99.9998 12.2634C99.8473 12.4724 99.6759 12.6648 99.4879 12.8377C99.396 12.927 99.3361 13.0476 99.3182 13.1788C99.3004 13.3101 99.3258 13.4439 99.3901 13.5573C99.5673 13.7747 99.9008 13.6836 100.137 13.5436Z" fill="#E6E6E6"/>
<path d="M98.2125 11.7669C98.3748 11.4559 98.4515 11.1022 98.4338 10.7466L98.02 10.6081C97.7555 10.7225 97.5208 10.9037 97.3362 11.1361C97.2801 11.1961 97.2371 11.2686 97.2103 11.3484C97.1836 11.4283 97.1737 11.5134 97.1814 11.5978C97.189 11.6822 97.2141 11.7637 97.2547 11.8366C97.2953 11.9094 97.3506 11.9718 97.4164 12.0191C97.4822 12.0665 97.5571 12.0978 97.6356 12.1106C97.714 12.1235 97.7942 12.1177 97.8703 12.0936C97.9465 12.0695 98.0166 12.0277 98.0759 11.9712C98.1351 11.9147 98.1819 11.845 98.2129 11.7669H98.2125Z" fill="#E6E6E6"/>
<path d="M118.43 9.53192C118.467 9.56537 118.505 9.59967 118.542 9.63333C118.575 9.62604 118.606 9.61189 118.64 9.60825L118.43 9.53192Z" fill="#E6E6E6"/>
<path d="M117.767 13.4088L118.907 12.4246C119.108 12.2721 119.28 12.0791 119.413 11.8563C119.503 11.6453 119.542 11.4134 119.526 11.182C119.51 10.9506 119.44 10.7273 119.321 10.5329C119.111 10.1883 118.848 9.88432 118.542 9.63373C118.207 9.71842 117.912 9.93158 117.714 10.2328C117.516 10.534 117.428 10.9024 117.467 11.2681C117.536 11.7334 117.809 12.2307 117.586 12.6368C117.499 12.7949 117.35 12.9026 117.25 13.0514C117.15 13.2003 117.117 13.438 117.255 13.547C117.408 13.6685 117.619 13.5369 117.767 13.4088Z" fill="#E6E6E6"/>
<path d="M118.598 15.4173C118.739 15.4254 118.88 15.401 119.012 15.3457C119.143 15.2904 119.262 15.2055 119.361 15.0968C119.868 14.6526 120.312 14.1316 120.679 13.5502L118.116 14.417L118.383 14.7497C118.145 14.9146 118.32 15.3604 118.598 15.4173Z" fill="#E6E6E6"/>
<path d="M120.993 17.2956C121.045 17.4379 121.139 17.5581 121.262 17.6377C121.384 17.7173 121.527 17.7521 121.669 17.7366C121.811 17.7165 121.947 17.6633 122.067 17.581C122.188 17.4986 122.29 17.389 122.367 17.26C122.496 17.0554 122.573 16.8175 122.588 16.5709C122.603 16.3242 122.556 16.0778 122.452 15.857C122.347 15.6363 122.19 15.4493 121.995 15.3153C121.801 15.1814 121.576 15.1054 121.345 15.0952L121.581 15.4801C121.641 16.1372 120.805 16.6667 120.993 17.2956Z" fill="#E6E6E6"/>
<path d="M137.589 24.4919C137.82 24.676 138.1 24.7752 138.389 24.7744C138.677 24.7737 138.957 24.6731 139.188 24.4878C139.337 24.3516 139.458 24.1839 139.544 23.9953C139.63 23.8067 139.678 23.6012 139.686 23.3917C139.694 23.1821 139.662 22.9731 139.591 22.7776C139.519 22.5822 139.411 22.4045 139.273 22.2558L138.836 22.5159C138.594 22.3498 138.301 22.2904 138.019 22.3503C137.737 22.4101 137.488 22.5846 137.323 22.8368C137.176 23.1013 137.122 23.4132 137.17 23.7166C137.219 24.0199 137.367 24.2948 137.589 24.4919Z" fill="#E6E6E6"/>
<path d="M142.663 25.1054C142.876 25.0395 143.069 24.9164 143.224 24.7479C143.379 24.5795 143.492 24.3713 143.55 24.1433L142.701 24.0243C142.465 23.8339 142.191 23.7058 141.899 23.6503C141.753 23.6269 141.604 23.6579 141.477 23.7379C141.35 23.818 141.252 23.9423 141.201 24.09C141.183 24.2156 141.195 24.3441 141.237 24.4632C141.279 24.5823 141.348 24.688 141.439 24.7703C141.599 24.9334 141.796 25.0499 142.01 25.1086C142.224 25.1673 142.449 25.1663 142.663 25.1056V25.1054Z" fill="#E6E6E6"/>
<path d="M139.16 26.9176C139.175 27.065 139.228 27.2049 139.315 27.3208C139.402 27.4367 139.517 27.5238 139.649 27.5721C139.792 27.6448 139.952 27.6698 140.109 27.6438C140.266 27.6179 140.412 27.5423 140.528 27.4267C140.58 27.3649 140.616 27.291 140.635 27.2111C140.654 27.1312 140.655 27.0475 140.638 26.9671C140.621 26.8867 140.586 26.8118 140.536 26.7487C140.487 26.6856 140.423 26.6361 140.352 26.6042L139.716 26.4807C139.47 26.3437 139.156 26.6212 139.16 26.9176Z" fill="#E6E6E6"/>
<path d="M102.24 31.6936L101.749 31.2142C101.88 31.4089 102.047 31.5722 102.24 31.6936Z" fill="#E6E6E6"/>
<path d="M98.4798 28.8669C98.7829 30.3705 100.299 31.5949 101.676 31.1438L101.749 31.2147C101.31 30.574 101.236 29.6252 101.339 28.8019C101.529 27.3894 102.049 26.0508 102.851 24.9096C103.653 23.7684 104.711 22.8613 105.928 22.2719C106.262 22.1608 106.56 21.9534 106.789 21.6727C106.986 21.3663 106.912 20.8407 106.574 20.7542C106.391 20.7315 106.206 20.777 106.05 20.883L103.491 22.2277C102.199 22.9069 100.881 23.6056 99.8662 24.6968C98.8513 25.788 98.1767 27.3633 98.4798 28.8669Z" fill="#E6E6E6"/>
<path d="M57.1819 80.5703C54.7982 78.7479 52.1873 77.2908 49.4254 76.2415C47.7278 75.5971 45.9037 75.1052 44.1355 75.4712C43.1656 75.6855 42.2566 76.1411 41.4825 76.8011C40.7084 77.461 40.091 78.3066 39.6804 79.2693C39.2848 80.2389 39.0988 81.2912 39.1362 82.3481C39.1735 83.405 39.4332 84.4393 39.896 85.3743C40.7116 87.0068 42.1242 88.3068 42.5964 90.0868C42.9148 91.2869 42.764 92.5648 42.6107 93.8014L41.6714 101.383C41.3864 103.683 41.1082 106.078 41.7907 108.281C42.4731 110.485 44.4191 112.427 46.5813 112.193L47.0097 112.159C45.5795 111.12 45.1794 108.97 45.6044 107.18C46.0294 105.39 47.1111 103.872 48.1663 102.408L57.561 89.3799C58.8282 87.6229 60.1681 85.4512 59.4919 83.3544C59.1076 82.1622 58.1417 81.3043 57.1819 80.5703Z" fill="#E6E6E6"/>
<path d="M35.8401 69.5924C35.5229 69.4777 35.1881 69.7326 35.0016 70.0297C34.8509 70.3487 34.6738 70.6527 34.4724 70.9381C33.9847 71.4751 33.0957 71.3677 32.5695 70.8736C32.0433 70.3796 31.8154 69.6156 31.7133 68.876C31.5908 67.9878 31.6437 66.9969 32.1926 66.3171C32.7575 65.6171 33.6864 65.4293 34.541 65.2839C35.4238 65.1335 36.4128 65.0085 37.1356 65.5696C37.5912 65.9229 37.8567 66.4932 38.2787 66.8913C38.7007 67.2893 39.4513 67.4401 39.7689 66.9437C39.852 66.7677 39.894 66.5728 39.8914 66.3758C39.8887 66.1787 39.8414 65.9852 39.7536 65.8119C39.5751 65.4665 39.4677 65.0845 39.4386 64.6913C39.4599 64.1455 39.8703 63.7118 40.2902 63.3997C40.7102 63.0876 41.1843 62.8184 41.4598 62.3583C41.7987 61.7921 41.7627 61.0629 41.9729 60.4296C42.4816 58.8968 44.2974 58.2151 44.8262 56.69C44.9536 56.3692 44.9679 56.0099 44.8664 55.6787C44.6452 55.0712 44.0466 55.1905 44.01 54.4481C43.9748 53.738 44.5295 53.0414 45.0933 52.745C45.8705 52.3368 46.7764 52.3693 47.6425 52.3444C48.5086 52.3194 49.4414 52.1966 50.0762 51.5679C50.2819 51.3414 50.4405 51.0711 50.5417 50.7747C50.6428 50.4783 50.6842 50.1624 50.6632 49.8477C50.6421 49.533 50.5591 49.2266 50.4195 48.9486C50.2799 48.6705 50.0869 48.4271 49.8532 48.2342C49.3795 47.8849 48.7809 47.7633 48.3201 47.3952C47.7461 46.9366 47.4754 46.1725 47.0274 45.5741C46.6556 45.1184 46.2301 44.716 45.7615 44.377L44.6108 43.4652C43.9173 42.9157 43.1958 42.3523 42.3521 42.1564C41.5083 41.9605 40.5034 42.2376 40.0809 43.0418C39.9142 43.4002 39.8231 43.7933 39.8141 44.1933C39.7757 45.1352 39.8125 46.0789 39.9242 47.0141L40.1331 49.2725C40.1955 49.9474 40.1285 50.8371 39.5151 51.0124C38.1542 51.401 38.6134 49.251 38.3117 48.5937C37.8491 47.5861 35.7271 47.1022 34.8196 46.682C34.2528 46.4198 33.6548 46.1302 33.3127 45.5812C32.8867 44.8977 32.9742 43.9676 33.3083 43.2283C33.6423 42.4889 34.1864 41.887 34.6808 41.2583C35.1846 40.6176 35.6436 39.9379 36.102 39.2592L37.6968 36.8975C38.3787 35.8879 39.0953 34.6556 38.7081 33.4821C38.6242 33.3251 38.4987 33.1979 38.3475 33.1166C38.1962 33.0354 38.0258 33.0035 37.8577 33.0252C37.6896 33.0468 37.5312 33.121 37.4024 33.2383C37.2735 33.3557 37.18 33.511 37.1334 33.6849C36.9637 34.3188 37.4164 35.1279 36.9834 35.5977C36.8349 35.7253 36.6492 35.793 36.4587 35.7891C36.2682 35.7852 36.085 35.7098 35.9413 35.5762C35.6605 35.2996 35.4466 34.9546 35.3178 34.5705C34.793 33.3247 34.2817 32.0718 33.7429 30.833C33.5725 30.4414 33.395 29.771 32.878 29.837C32.4301 29.8943 32.1881 30.5916 32.2036 30.9969C32.2264 31.5859 32.5311 32.1121 32.764 32.6466C32.9969 33.181 33.1598 33.8226 32.9048 34.345C32.581 35.0064 31.7605 35.155 31.062 35.1331C29.7453 35.0905 28.4551 34.727 27.2901 34.0703C27.2597 34.7613 27.2292 35.4525 27.1988 36.1437L24.4171 34.9002L23.8769 34.6588C23.0947 34.3091 22.3116 33.9592 21.5063 33.6752C21.0491 33.5141 20.5857 33.3745 20.1225 33.2351L19.2777 32.9808C18.722 32.7705 18.1326 32.6806 17.544 32.7166C16.9255 32.7995 16.374 33.1544 15.8019 33.4194C14.5259 34.011 12.8754 33.4158 11.5079 33.4052C10.9655 32.5596 10.2331 31.8726 9.37792 31.4072C8.52269 30.9419 7.57185 30.7129 6.61237 30.7413C5.65289 30.7697 4.71539 31.0545 3.88561 31.5698C3.05583 32.085 2.36026 32.8142 1.86251 33.6907C1.62211 34.1348 1.40801 34.5945 1.2215 35.0671L0.664755 36.3989C0.39262 37.0504 0.114451 37.7367 0.167953 38.4477C0.221455 39.1587 0.731128 39.8851 1.3997 39.8787C-0.175385 40.6401 -0.50303 43.3049 0.834312 44.4754C1.2046 44.7993 1.65896 45.0113 1.99204 45.3775C2.24363 45.655 2.41188 46.0064 2.47523 46.3867C2.53858 46.7669 2.49413 47.1587 2.34759 47.5118C2.20104 47.8649 1.95909 48.1632 1.65274 48.3685C1.34639 48.5738 0.989614 48.6767 0.62815 48.664C1.56126 49.0491 2.58907 49.0849 3.54371 48.7656C4.49834 48.4463 5.32336 47.7906 5.88399 46.9058C6.45582 45.9498 6.70422 44.7553 7.48221 43.9826C8.51242 42.9595 10.214 43.0388 11.4021 43.8434C12.5902 44.6481 13.3419 46.0179 13.859 47.4151C14.5364 49.2463 14.97 51.3387 16.4134 52.5635C17.1113 53.1557 17.9951 53.4888 18.6122 54.176C19.4907 55.1546 19.6426 56.6318 19.6229 57.9874C19.6032 59.343 19.4664 60.7495 19.9288 62.0121C20.3912 63.2747 21.7167 64.3132 22.9056 63.8379C22.565 64.917 22.5756 66.0874 22.9355 67.1593C23.2954 68.2313 23.9837 69.1421 24.8888 69.7442L24.2391 65.4407C25.3184 65.7653 26.0181 66.8833 26.422 68.0003C26.8259 69.1172 27.0395 70.3255 27.6252 71.3466C28.5474 72.9546 30.2174 73.6476 31.9162 73.6416C33.7514 73.6349 34.4481 72.7005 35.6573 71.3243C35.9003 71.0895 36.0847 70.7938 36.1939 70.4638C36.2432 70.2974 36.2346 70.1176 36.1696 69.9575C36.1046 69.7973 35.9876 69.6677 35.8401 69.5924Z" fill="#E6E6E6"/>
<path d="M41.0366 69.5209L37.9593 69.0054L39.5726 70.0411C40.0208 70.3598 40.5081 70.6106 41.0207 70.7865C41.2779 70.8728 41.549 70.9018 41.8171 70.8717C42.0852 70.8415 42.3446 70.7529 42.5793 70.6112L42.448 70.3431C42.2416 69.7836 41.5922 69.6141 41.0366 69.5209Z" fill="#E6E6E6"/>
<path d="M40.3397 75.61L40.3467 75.5909C40.2847 75.481 40.1933 75.3934 40.0843 75.3395C39.9753 75.2855 39.8537 75.2676 39.7351 75.288C39.4988 75.3331 39.2572 75.3373 39.0196 75.3005C38.8688 75.2375 38.7342 75.1368 38.6272 75.0069C38.5202 74.877 38.4438 74.7217 38.4046 74.5538C38.3026 74.2262 38.2724 73.8757 38.1564 73.5535C38.0725 73.2987 37.9244 73.0735 37.7284 72.9028C37.5324 72.7321 37.2961 72.6224 37.0455 72.5858C36.794 72.5642 36.5447 72.6493 36.3515 72.8225C36.1582 72.9957 36.0366 73.2432 36.0129 73.5114C36.0326 73.7876 36.1147 74.0545 36.2522 74.2894L36.5841 74.9712C36.6776 75.1749 36.7852 75.3709 36.9059 75.5576C37.1018 75.8458 37.3579 76.0812 37.6539 76.2452C37.9498 76.4092 38.2775 76.4972 38.611 76.5023C38.9444 76.5074 39.2743 76.4293 39.5745 76.2744C39.8748 76.1195 40.137 75.8919 40.3405 75.6098L40.3397 75.61Z" fill="#E6E6E6"/>
<path d="M34.3489 17.3143C35.1299 17.806 36.108 18.1449 36.4791 19.0284L36.6933 19.1023L35.9928 20.032C35.7042 20.4149 35.4007 20.8418 35.4075 21.3332C35.4168 22.0103 36.0266 22.5208 36.6427 22.6804C37.3001 22.8249 37.9843 22.7033 38.5626 22.3393C39.1408 21.9754 39.5718 21.3949 39.7719 20.7107C39.8451 20.4253 39.8755 20.1293 39.9397 19.8416C40.127 19.159 40.4096 18.5104 40.7782 17.9179L47.0005 6.73864C47.2587 6.27445 47.525 5.71941 47.3307 5.22086C47.2271 5.01004 47.0667 4.8372 46.8702 4.72461C46.6737 4.61201 46.4501 4.56483 46.2283 4.58914C45.7856 4.64667 45.3586 4.80017 44.9735 5.04021C44.8024 4.71919 44.5609 4.44732 44.2697 4.24794C43.9785 4.04856 43.6464 3.92763 43.3018 3.89555C42.6128 3.83874 41.9197 3.90317 41.2502 4.08629C39.7378 4.33003 38.2794 4.86512 36.946 5.6655C36.2165 6.05923 35.4137 6.54618 35.2021 7.38884C34.9419 8.42589 35.7808 9.48292 36.7467 9.78106C37.7125 10.0792 38.7435 9.82875 39.7212 9.57786C39.8317 10.084 39.7857 10.6147 39.59 11.0905C39.3942 11.5664 39.0594 11.9616 38.6356 12.2171C38.2118 12.4725 37.7219 12.5745 37.2393 12.5076C36.7567 12.4406 36.3075 12.2085 35.9588 11.8459C35.2581 11.1173 34.9149 9.85216 33.9527 9.66421C32.9937 9.47669 32.2314 10.5692 32.0196 11.5856C31.8125 12.6803 31.9249 13.8166 32.3414 14.841C32.7579 15.8655 33.4586 16.7289 34.3489 17.3147V17.3143Z" fill="#E6E6E6"/>
<path d="M46.3784 35.2454C45.9163 33.8551 45.3091 32.5249 44.5682 31.2798C44.007 30.295 43.3143 29.4029 42.512 28.6317C41.7785 27.9553 40.9353 27.4279 40.0241 27.0755C39.1391 26.7339 38.155 26.5651 37.2609 26.8766C36.3669 27.188 35.6062 28.0758 35.6243 29.08C35.6444 30.1903 36.554 31.0587 37.5021 31.515C38.4503 31.9712 39.5048 32.1697 40.3984 32.7361C41.0066 33.13 41.5149 33.6774 41.8786 34.3302C42.2423 34.9831 42.4503 35.7213 42.4842 36.4801L42.7095 36.8779C42.1992 37.0582 41.7232 37.3346 41.3041 37.6941C41.0966 37.877 40.938 38.1151 40.8443 38.3845C40.7505 38.6538 40.725 38.9448 40.7703 39.228C40.9266 39.9003 41.5694 40.2861 42.1507 40.5937L45.3731 42.2981C44.8262 40.5565 46.6167 38.9359 46.7159 37.1021C46.7197 36.4648 46.6048 35.8331 46.3778 35.2437L46.3784 35.2454Z" fill="#E6E6E6"/>
<path d="M19.3705 30.5432C20.0221 31.0836 21.0238 30.8308 21.6208 30.2227C22.2177 29.6146 22.5084 28.7492 22.7795 27.9171C22.6805 28.7407 22.6899 29.575 22.8074 30.3959C22.8687 30.8063 23.009 31.1987 23.2196 31.5482C23.4301 31.8977 23.7064 32.1968 24.0307 32.4264C24.3253 32.5986 24.6428 32.7217 24.9723 32.7915C26.5039 33.1638 28.1045 33.0417 29.571 32.4408L29.5841 31.9053C28.8473 31.995 28.29 31.132 28.2413 30.3419C28.1926 29.5519 28.4611 28.7769 28.4849 27.9854C28.5086 27.1938 28.1514 26.2691 27.4217 26.1284C27.5493 26.4023 27.5959 26.7113 27.5551 27.0141C27.5143 27.317 27.3882 27.5994 27.1934 27.8238C26.9986 28.0482 26.7445 28.2039 26.4648 28.2703C26.1851 28.3366 25.8932 28.3105 25.6278 28.1952C24.783 27.8286 24.4765 26.7297 23.8238 26.0498C23.4205 25.6667 22.9201 25.4195 22.3857 25.3393C21.8512 25.259 21.3064 25.3493 20.8198 25.5987C20.3394 25.8605 19.918 26.2306 19.5846 26.6833C19.2512 27.1361 19.0139 27.6607 18.8889 28.221C18.6904 29.0349 18.7492 30.0279 19.3705 30.5432Z" fill="#E6E6E6"/>
<path d="M39.4794 24.9038L39.5096 24.8514C39.3286 24.2904 38.7638 23.9615 38.2135 23.8782C37.6587 23.839 37.1017 23.8587 36.5505 23.9368C35.9943 24.0136 35.4305 23.881 34.9559 23.5618C34.5772 23.2593 34.3614 22.7835 34.0585 22.3954C33.7556 22.0073 33.2654 21.6883 32.8255 21.8739C32.3492 22.0747 32.2221 22.7876 32.4532 23.2757C32.7253 23.7439 33.1358 24.102 33.6198 24.2932C35.4535 25.1921 37.5168 25.4071 39.4786 24.9038H39.4794Z" fill="#E6E6E6"/>
<path d="M33.2201 26.5853C33.0681 26.7046 32.9652 26.882 32.9328 27.0805C32.9003 27.279 32.941 27.4831 33.0461 27.6504C33.1513 27.8176 33.3129 27.935 33.4972 27.978C33.6815 28.021 33.8742 27.9863 34.0351 27.8812L34.196 28.0507C34.4098 27.6426 34.4977 27.0944 34.2246 26.7286C34.1031 26.5769 33.9334 26.4783 33.7481 26.4519C33.5628 26.4255 33.3748 26.4731 33.2203 26.5855L33.2201 26.5853Z" fill="#E6E6E6"/>
<path d="M31.3399 28.0514C31.3423 27.9053 31.3032 27.762 31.2278 27.6401C31.1524 27.5183 31.0443 27.4237 30.9175 27.3687C30.8313 27.3529 30.7429 27.3559 30.6578 27.3776C30.5727 27.3992 30.4925 27.439 30.4222 27.4946C30.3519 27.5502 30.2928 27.6204 30.2485 27.7011C30.2043 27.7817 30.1758 27.871 30.1647 27.9637C30.1514 28.1526 30.1747 28.3424 30.233 28.5213C30.2913 28.7001 30.3834 28.8643 30.5036 29.0036C30.5735 29.1157 30.6649 29.2108 30.7718 29.2825C30.8787 29.3542 30.9985 29.4008 31.1235 29.4194C31.3753 29.4282 31.6322 29.1471 31.53 28.9011L31.1454 28.8932C31.2639 28.6299 31.3302 28.3433 31.3401 28.0514H31.3399Z" fill="#E6E6E6"/>
<path d="M23.8206 23.846L24.2442 24.2126C24.4887 24.4385 24.753 24.6388 25.0332 24.811C25.5234 25.1011 26.0999 25.1765 26.6411 25.0213C26.9083 24.94 27.152 24.7881 27.3498 24.5797C27.5476 24.3713 27.6931 24.113 27.7729 23.8288C27.9416 23.1494 27.6663 22.4437 27.3967 21.8026C27.3352 21.619 27.2337 21.4537 27.1007 21.3203C27.0325 21.2557 26.9456 21.2183 26.8545 21.2144C26.7635 21.2105 26.674 21.2403 26.6012 21.2989C26.5485 21.369 26.5134 21.4524 26.4993 21.541C26.4852 21.6297 26.4926 21.7208 26.5208 21.8056C26.5788 21.9745 26.6053 22.1539 26.5988 22.3338C26.5719 22.5112 26.3977 22.6787 26.2442 22.6053L26.2197 23.2089C25.4866 22.8125 25.0988 21.7581 24.2828 21.6541C24.0996 21.6308 23.914 21.6616 23.7462 21.7433C23.5783 21.8249 23.4347 21.9542 23.3309 22.117C23.2272 22.2799 23.1673 22.47 23.1578 22.6667C23.1483 22.8634 23.1896 23.0591 23.2771 23.2325C23.4186 23.473 23.6032 23.6813 23.8202 23.8455L23.8206 23.846Z" fill="#E6E6E6"/>
<path d="M22.0741 21.2398C22.2437 21.1156 22.3779 20.9438 22.4619 20.7433C22.5459 20.5429 22.5765 20.3215 22.5502 20.1037C22.5299 19.9982 22.4881 19.8988 22.4277 19.8125C22.3674 19.7262 22.29 19.6552 22.201 19.6045C22.112 19.5538 22.0137 19.5246 21.913 19.5191C21.8123 19.5136 21.7117 19.5318 21.6183 19.5725C21.4089 19.7398 21.2617 19.981 21.203 20.2532L20.6233 21.9995L20.9481 21.7471C21.35 21.6548 21.7321 21.4827 22.0745 21.2398H22.0741Z" fill="#E6E6E6"/>
<path d="M25.8373 17.6675C25.8953 17.5894 25.9366 17.4986 25.9582 17.4016C25.9799 17.3046 25.9813 17.2037 25.9625 17.106C25.9437 17.0084 25.9051 16.9163 25.8494 16.8363C25.7936 16.7562 25.7222 16.6902 25.64 16.6429L25.2339 16.6023C25.1416 16.6272 25.056 16.675 24.984 16.7416C24.912 16.8083 24.8557 16.892 24.8195 16.9861C24.7834 17.0802 24.7684 17.1821 24.7757 17.2835C24.7831 17.3849 24.8126 17.4831 24.8619 17.5702C24.9112 17.6572 24.9789 17.7307 25.0596 17.7847C25.1403 17.8388 25.2318 17.8718 25.3266 17.8813C25.4215 17.8908 25.5171 17.8763 25.6058 17.8392C25.6945 17.8021 25.7738 17.7433 25.8373 17.6675Z" fill="#E6E6E6"/>
<path d="M29.574 18.3368C29.953 18.5301 30.4327 18.7149 30.7623 18.4369C30.86 18.3425 30.9326 18.2223 30.9729 18.0884C31.0132 17.9545 31.0197 17.8116 30.9918 17.6741C30.9326 17.3999 30.8183 17.1427 30.6567 16.9204C30.1525 16.1474 29.512 15.4869 28.7709 14.9758L28.5877 15.2302C28.3318 15.939 28.0848 16.7683 28.4416 17.4265C28.6824 17.8698 29.141 18.1162 29.574 18.3368Z" fill="#E6E6E6"/>
<path d="M32.3969 18.9685L33.1055 19.3109C33.0361 19.1815 32.9303 19.0787 32.8031 19.0173C32.6759 18.9558 32.5337 18.9387 32.3969 18.9685Z" fill="#E6E6E6"/>
<path d="M30.4874 21.3496L30.1525 21.4675C29.8677 21.9672 29.9916 22.606 30.1237 23.1737C30.2074 23.5326 30.388 23.974 30.7339 23.9577C31.0706 23.9418 31.2195 23.5066 31.284 23.1529C31.3849 22.7692 31.3958 22.365 31.3158 21.9758C31.2702 21.7831 31.1617 21.6142 31.0098 21.4994C30.8579 21.3846 30.6727 21.3315 30.4874 21.3496Z" fill="#E6E6E6"/>
<path d="M25.1476 19.6679L25.3954 19.7753C25.4535 19.7666 25.5073 19.7377 25.5484 19.693C25.5896 19.6483 25.6158 19.5904 25.623 19.5282C25.6302 19.466 25.618 19.403 25.5882 19.349C25.5585 19.295 25.513 19.2529 25.4586 19.2293C25.4042 19.2058 25.3441 19.202 25.2875 19.2186C25.2309 19.2353 25.1811 19.2714 25.1457 19.3213C25.1102 19.3713 25.0912 19.4323 25.0916 19.495C25.0919 19.5576 25.1116 19.6184 25.1476 19.6679Z" fill="#E6E6E6"/>
<path d="M37.6385 39.9004C37.5185 39.9033 37.4008 39.9367 37.2954 39.998C37.19 40.0593 37.0998 40.1466 37.0323 40.2527C36.9649 40.3587 36.9222 40.4804 36.9078 40.6077C36.8933 40.735 36.9076 40.8641 36.9494 40.9843C37.1928 41.5427 38.0307 41.5462 38.403 41.0745C38.4984 40.9405 38.5668 40.7869 38.6038 40.6232C38.6408 40.4596 38.6456 40.2896 38.618 40.1239C38.5903 39.9582 38.5308 39.8004 38.4432 39.6605C38.3556 39.5205 38.2418 39.4015 38.1089 39.311L37.6385 39.9004Z" fill="#E6E6E6"/>
<path d="M49.7071 53.1548C49.6097 53.1825 49.5185 53.2308 49.4389 53.2968C49.3593 53.3629 49.2929 53.4452 49.2436 53.5391C49.1944 53.633 49.1632 53.7365 49.152 53.8435C49.1408 53.9505 49.1499 54.0588 49.1785 54.162L49.8743 54.2135L50.581 53.8346C50.5668 53.728 50.5327 53.6256 50.4808 53.5334C50.4289 53.4411 50.3601 53.3609 50.2787 53.2975C50.1972 53.2341 50.1047 53.1888 50.0066 53.1642C49.9084 53.1397 49.8067 53.1364 49.7073 53.1546L49.7071 53.1548Z" fill="#E6E6E6"/>
<path d="M46.8798 54.0736C46.6806 54.2245 46.5207 54.4271 46.4151 54.6622C46.3095 54.8974 46.2618 55.1573 46.2764 55.4176C46.299 55.6772 46.3984 55.9224 46.5602 56.1176C46.722 56.3129 46.9377 56.4481 47.1762 56.5037C47.417 56.5439 47.663 56.485 47.8646 56.3389C48.0663 56.1928 48.2084 55.9704 48.2624 55.7166C48.38 54.9483 47.6067 54.3849 47.3287 53.6655L46.8798 54.0736Z" fill="#E6E6E6"/>
<path d="M73.8986 48.9984C73.972 49.5754 73.4852 50.0806 73.4671 50.6625C73.4456 51.3528 74.1494 51.89 74.793 51.8224C75.1125 51.7633 75.4148 51.6258 75.6761 51.4208C75.9375 51.2158 76.1507 50.9489 76.2991 50.641L76.313 50.5765L75.3725 49.4411C74.9875 48.9763 74.5792 48.4472 74.5943 47.8269C74.6017 47.521 74.715 47.2255 74.7081 46.9189C74.6931 46.6989 74.6471 46.4825 74.5718 46.2771C74.4869 46.0065 74.3706 45.7017 74.1182 45.6112C73.8014 45.497 73.4816 45.7968 73.3304 46.1154C73.1943 46.4092 73.1282 46.7343 73.1379 47.062C73.1475 47.3896 73.2326 47.7097 73.3857 47.9938C73.5687 48.3248 73.8499 48.6167 73.8986 48.9984Z" fill="#E6E6E6"/>
<path d="M70.9429 51.0283C71.0115 51.0678 71.0872 51.0911 71.165 51.0964C71.2428 51.1017 71.3207 51.089 71.3934 51.0592C71.6728 51.0084 71.9413 50.9042 72.1861 50.7516C72.3073 50.6733 72.4069 50.5621 72.4747 50.4292C72.5426 50.2964 72.5761 50.1467 72.5721 49.9955C72.5298 49.8051 72.4356 49.6324 72.3013 49.4992C72.167 49.366 71.9988 49.2785 71.8178 49.2476C71.6922 49.2004 71.5577 49.1869 71.4261 49.2084C71.2945 49.2298 71.1698 49.2856 71.0632 49.3707C70.8296 49.6048 70.8574 50.002 70.9023 50.3405L70.853 50.4288C70.8107 50.6378 70.782 50.8977 70.9429 51.0283Z" fill="#E6E6E6"/>
<path d="M120.292 75.6817L120.088 75.1415C119.995 75.3859 120.03 75.6362 120.292 75.6817Z" fill="#E6E6E6"/>
<path d="M161 37.8009C160.13 36.7926 159.597 36.2114 159.047 34.9614C158.748 34.2721 158.294 33.6726 157.725 33.2164C157.156 32.7603 156.491 32.4616 155.787 32.3471C153.982 32.0294 152.137 32.5325 150.31 32.4317C147.383 32.2702 144.744 30.5937 141.941 29.6793C140.371 29.21 138.773 28.8583 137.158 28.6268L134.366 28.1542C131.315 27.6387 128.244 27.1232 125.156 27.1906C124.266 27.2104 123.024 26.9245 123.097 25.9764C123.185 24.7988 125.168 24.9533 125.55 23.8445C125.787 23.1586 125.222 22.4384 124.602 22.1282C123.982 21.818 123.267 21.7248 122.705 21.3083C122.142 20.8918 121.834 19.9265 122.351 19.4475L118.053 21.8004C116.862 22.4526 115.531 23.3008 115.321 24.7125C114.603 24.915 113.975 25.3809 113.547 26.0285C112.741 26.0331 112.108 26.8592 111.975 27.7081C111.842 28.557 112.083 29.4159 112.322 30.2378C112.03 29.6398 111.719 29.0192 111.205 28.6289C110.69 28.2386 109.905 28.1645 109.466 28.6491C109.015 29.1464 109.121 29.9809 109.439 30.5836C109.758 31.1863 110.248 31.6726 110.549 32.2857C111.489 34.2004 109.786 36.8961 107.772 36.6828C107.907 34.7057 108.042 32.7285 108.177 30.7514C108.262 30.1431 108.214 29.5221 108.036 28.9372C107.816 28.3712 107.254 27.9061 106.694 28.0399C105.687 28.2803 105.773 29.8552 106.191 30.862C106.609 31.8687 107.027 33.2688 106.172 33.8855C105.62 34.2837 104.872 34.0378 104.276 33.7199C103.68 33.402 103.042 33.0111 102.391 33.1588C101.739 33.3066 101.329 34.3709 101.905 34.729L99.0413 34.1976C98.9941 34.4977 98.8883 34.7839 98.731 35.0376C98.5737 35.2913 98.3683 35.507 98.1281 35.6707C97.8879 35.8343 97.6182 35.9424 97.3364 35.9878C97.0547 36.0332 96.7671 36.0149 96.4924 35.9343L96.2108 34.6899L95.7918 34.5653C96.2303 34.6957 95.5442 36.6704 94.9291 38.1791C94.1023 38.0756 92.8941 38.0556 92.7569 37.8026C92.0968 36.5909 92.175 33.7049 91.0271 33.0231C90.4519 32.6813 89.8619 32.3698 89.2572 32.0887C88.9396 31.9273 88.6041 31.8096 88.2587 31.7386C87.5548 31.62 86.8441 31.8533 86.1643 32.084C85.3612 32.3563 84.5391 32.639 83.8742 33.1917C83.3063 33.7178 82.8195 34.336 82.4317 35.0237L78.4924 41.2499C78.1013 41.8041 77.7934 42.4201 77.5801 43.0757C77.4796 43.4017 77.4462 43.747 77.4821 44.088C77.518 44.4291 77.6223 44.7578 77.7881 45.0519C77.9627 45.3401 78.2231 45.5573 78.5274 45.6683C78.8316 45.7793 79.162 45.7777 79.4653 45.6638C79.8459 45.4879 80.227 45.0892 80.6042 45.2733C80.8898 45.4127 80.9612 45.8138 80.9312 46.1476C80.8586 46.4745 80.8529 46.8143 80.9145 47.1438C81.0863 47.6636 81.7468 47.8443 82.2179 47.6194C82.6761 47.3523 83.0193 46.9056 83.1752 46.3735C83.6292 45.1303 83.583 43.7545 83.696 42.4253C83.809 41.0961 84.1491 39.6748 85.1303 38.8482C85.4239 38.6008 85.8556 38.4225 86.1579 38.6577C86.2711 38.7675 86.3494 38.9124 86.3819 39.072C86.4143 39.2317 86.3993 39.3982 86.3389 39.5483C86.2125 39.8452 86.0477 40.1217 85.8493 40.3697C85.5141 40.8733 85.2795 41.4453 85.1601 42.05C85.0408 42.6547 85.0392 43.2791 85.1556 43.8844L85.3568 44.017C86.1211 43.805 87.1456 44.1845 88.1614 44.5484C87.4241 44.7825 86.775 45.2593 86.3065 45.9109C85.1325 47.6701 84.2827 49.3348 81.9602 49.3139C81.4093 49.309 80.863 49.1926 80.3119 49.1913C79.7557 49.1546 79.2078 49.3494 78.7833 49.7349C78.3655 50.1718 78.2364 50.8369 77.8782 51.3309C77.4083 51.9807 76.6229 52.2449 75.9057 52.5398C75.3815 52.7546 74.829 53.0463 74.588 53.5882C74.4367 54.0327 74.402 54.5129 74.4875 54.9769C74.5679 55.7977 74.7111 56.7312 75.3632 57.1741C75.607 57.3099 75.8737 57.3926 76.1477 57.4174C76.4218 57.4421 76.6977 57.4084 76.9594 57.3182C77.6376 57.1421 78.3008 56.8102 78.9973 56.8599C80.0909 56.9376 80.9913 58.0587 81.0024 59.2289C81.008 59.8213 80.8461 60.5007 81.2138 60.9445C81.5593 61.3614 82.2446 61.2871 82.6016 60.8824C82.768 60.6672 82.8824 60.4118 82.935 60.1385C82.9876 59.8651 82.9767 59.5822 82.9033 59.3144C82.7513 58.7808 82.5175 58.2778 82.2114 57.8258C82.5753 57.7251 82.9606 57.762 83.3018 57.9304C83.6431 58.0988 83.9192 58.3882 84.0832 58.7494C84.3261 59.3258 84.2477 59.9906 84.3245 60.6182C84.4014 61.2459 84.7592 61.9409 85.3503 61.9772C85.5435 61.983 85.7325 61.9164 85.8845 61.789C86.0365 61.6616 86.142 61.4813 86.1826 61.2796C86.1887 60.9616 86.1724 60.6436 86.1339 60.3282C86.1541 60.0178 86.2847 59.7273 86.499 59.5164C86.7133 59.3055 86.9951 59.1902 87.2864 59.1941C87.1066 59.5489 87.048 59.9594 87.1207 60.3553C87.1935 60.7512 87.393 61.1077 87.6851 61.3636C88.1346 61.7352 88.729 61.8181 89.2891 61.922C89.8493 62.026 90.4467 62.1901 90.8081 62.6586C91.4103 63.439 90.6735 63.7906 90.5587 64.4515C90.4179 65.263 91.0525 66.4612 91.2963 67.2375L94.657 72.2584C94.9071 72.6654 95.202 73.0389 95.5356 73.3707C96.6418 74.3849 98.4645 74.2848 99.5251 73.2169C100.039 72.6613 100.373 71.9442 100.478 71.171C100.582 70.3978 100.452 69.6091 100.106 68.9209C99.4506 67.6469 98.1519 66.8588 97.5113 65.5756C98.5786 66.5191 99.889 67.0946 101.269 67.2259C103.711 67.7558 106.031 68.7949 108.096 70.2836C108.193 72.5879 109.021 74.7886 110.444 76.5241C110.7 74.5575 111.558 72.7367 112.885 71.3462C113.748 70.4472 114.928 69.7225 116.112 69.9644C117.296 70.2062 118.194 71.8185 117.478 72.8543L119.278 72.9973L120.085 75.141C120.133 74.9909 120.225 74.8611 120.347 74.7706C120.469 74.6802 120.615 74.6338 120.763 74.6384C121.325 74.7291 121.719 75.2871 122.254 75.4933C123.261 75.8819 124.338 74.806 124.468 73.6703C124.598 72.5347 124.093 71.439 123.601 70.4227C124.687 70.6375 125.807 70.5096 126.826 70.0547C127.844 69.5999 128.716 68.8378 129.335 67.8617C129.954 66.8857 130.293 65.7381 130.311 64.5594C130.328 63.3807 130.024 62.2221 129.434 61.2254C130.602 59.9155 131.977 58.835 133.495 58.0331C134.9 57.2918 136.436 56.7832 137.664 55.7433C138.892 54.7035 139.753 52.8981 139.162 51.3481C138.745 50.2526 137.699 49.5098 137.386 48.3759C136.932 46.7344 138.309 45.0366 139.865 44.6266C141.421 44.2165 143.046 44.7206 144.578 45.2207C144.343 43.5367 146.171 41.9579 147.663 42.5559L149.539 41.7448C148.815 43.4514 147.244 44.5372 146.089 45.9478C144.934 47.3584 144.246 49.6559 145.453 51.0171L150.64 45.9961L156.066 40.7441L155.807 39.9313C157.521 39.237 159.363 38.6629 161 37.8009Z" fill="#E6E6E6"/>
<path d="M71.1899 60.3259C71.1201 60.4333 71.083 60.561 71.0836 60.6917C71.0842 60.8223 71.1225 60.9496 71.1933 61.0562C71.2862 61.1405 71.4036 61.1876 71.5255 61.1893C71.6473 61.1911 71.7659 61.1474 71.8609 61.0659C72.0464 60.8966 72.1912 60.6822 72.2833 60.4408C72.3731 60.6264 72.5142 60.7779 72.6875 60.8748C72.8607 60.9718 73.0577 61.0094 73.2517 60.9826C73.6392 60.9202 74.0062 60.7568 74.3204 60.5068C74.5695 60.3507 74.7895 60.1468 74.9692 59.9053C75.0581 59.7838 75.1191 59.6417 75.1475 59.4904C75.1758 59.3391 75.1706 59.1829 75.1323 59.0341C75.0389 58.8059 74.8937 58.6062 74.7099 58.4529L73.3374 57.0996L73.1823 57.05C73.1016 56.9583 73.0044 56.8849 72.8965 56.8344C72.7886 56.7838 72.6723 56.757 72.5544 56.7557C72.4366 56.7543 72.3197 56.7784 72.2109 56.8265C72.102 56.8746 72.0033 56.9458 71.9208 57.0356C71.6366 57.3752 71.6354 57.8828 71.6795 58.3358C71.7235 58.7888 71.7905 59.2715 71.6016 59.6798C71.494 59.9135 71.3106 60.0989 71.1899 60.3259Z" fill="#E6E6E6"/>
<path d="M97.7356 75.7434C95.9576 75.3207 94.3301 74.3632 93.0453 72.9842C91.7606 71.6051 90.8724 69.8621 90.4857 67.9612C90.3172 67.0642 90.2407 66.0841 89.6812 65.3905C89.1401 64.719 88.2563 64.4767 87.4269 64.4767C86.5974 64.4767 85.7798 64.6806 84.9529 64.7358C83.5047 64.8322 81.9719 64.4239 80.9371 63.3396C80.4469 62.826 80.076 62.1736 79.5036 61.7683C78.7342 61.2238 77.7135 61.2242 76.8377 61.532C75.8614 61.8757 75.0798 62.8161 74.0122 62.6866C72.9019 62.5519 71.6151 62.1328 71.1798 63.6942C71.0545 64.1438 71.0972 64.6367 70.9385 65.0741C70.6939 65.7481 70.0444 66.1281 69.5305 66.5992C68.4959 67.5475 67.946 68.9884 67.7605 70.431C67.5751 71.8736 67.7187 73.3387 67.8611 74.7867C67.9385 75.5677 68.0403 76.4082 68.5427 76.9819C69.2431 77.7816 70.4181 77.7507 71.4391 77.6605L74.9992 77.3465C75.639 77.29 76.3681 77.2661 76.8237 77.7492C77.0966 78.0388 77.212 78.458 77.4522 78.7787C77.6677 79.0519 77.9635 79.2391 78.2914 79.3097C78.6193 79.3803 78.96 79.3302 79.2578 79.1675C79.0168 79.6267 78.8856 80.1422 78.8758 80.6685C78.866 81.1947 78.9778 81.7154 79.2014 82.1845C79.4251 82.6535 79.7536 83.0564 80.1579 83.3575C80.5621 83.6586 81.0297 83.8485 81.5191 83.9105L81.6107 83.9722C80.8508 85.3619 80.0619 86.9224 80.3775 88.4963C80.6476 89.8457 81.6941 90.9276 81.8659 92.2952C82.023 93.5501 81.4097 94.8335 81.681 96.0661C81.9558 97.314 83.1361 98.1842 84.3334 98.2772C85.5308 98.3702 86.7068 97.8029 87.6346 96.9884C88.5625 96.1739 89.2793 95.1259 89.9859 94.0886C90.4221 93.4487 90.8697 92.7826 91.0195 92.0072C91.179 91.1821 90.9942 90.2673 91.3699 89.5271C91.8031 88.6729 92.8315 88.3526 93.3505 87.5548C94.0226 86.5216 93.6266 85.1149 93.7752 83.8669C94.1455 80.78 97.8191 78.8552 97.7356 75.7434Z" fill="#E6E6E6"/>
<path d="M97.2048 86.2868C97.1042 86.769 96.6818 87.0865 96.2796 87.3292C95.8773 87.572 95.4336 87.8168 95.2283 88.2595C95.0181 88.713 95.114 89.2534 95.224 89.7455C95.4528 90.7694 95.7222 91.7815 96.0324 92.7819C96.6336 91.5687 97.1585 90.3141 97.6036 89.0264C97.7921 88.547 97.9085 88.0388 97.9484 87.5206C97.9668 87.2612 97.9342 87.0006 97.8525 86.7556C97.7708 86.5105 97.642 86.2864 97.4743 86.0978L97.2048 86.2868Z" fill="#E6E6E6"/>
<path d="M121.931 80.9155L120.416 79.0483C120.071 78.6225 119.677 78.1676 119.154 78.0969L118.939 78.2439L120.252 81.5833C120.407 82.0916 120.68 82.5497 121.045 82.9151C121.437 83.244 122.072 83.3071 122.399 82.9052C122.504 82.7546 122.571 82.577 122.592 82.3903C122.612 82.2036 122.587 82.0144 122.518 81.8415C122.375 81.498 122.176 81.1843 121.931 80.9153L121.931 80.9155Z" fill="#E6E6E6"/>
<path d="M126.823 82.1074C127.014 82.0367 127.189 81.9241 127.337 81.777C127.484 81.6299 127.602 81.4515 127.681 81.2532C127.838 80.8559 127.941 80.4371 127.988 80.009L128.247 78.337L128.134 78.3061C128.025 78.2499 127.9 78.2381 127.782 78.2728C127.665 78.3076 127.564 78.3865 127.497 78.4949C127.37 78.7163 127.273 78.9563 127.211 79.2074C127.179 79.3328 127.121 79.4489 127.041 79.547C126.961 79.6451 126.862 79.7226 126.75 79.7738C126.345 79.9044 125.961 79.4458 125.538 79.4637C125.367 79.4869 125.208 79.5713 125.088 79.703C124.968 79.8348 124.893 80.0062 124.876 80.1893C124.851 80.5588 124.949 80.9258 125.153 81.2259C125.513 81.8237 126.183 82.3042 126.823 82.1074Z" fill="#E6E6E6"/>
<path d="M129.615 83.1642L130.778 79.8915C130.307 80.2567 129.946 80.7609 129.739 81.3423C129.532 81.9238 129.489 82.557 129.615 83.1642Z" fill="#E6E6E6"/>
<path d="M135.552 80.527L135.317 80.5377C135.212 80.7598 135.156 81.0049 135.154 81.2538C135.152 81.5027 135.203 81.7488 135.304 81.973C135.511 82.42 135.811 82.81 136.182 83.1125C136.757 83.6193 137.413 84.0105 138.118 84.2673C139.153 84.5896 140.223 84.7656 141.3 84.7908L143.148 84.9196C143.442 84.9411 143.821 84.9003 143.903 84.5987C143.97 84.3496 143.771 84.1154 143.586 83.9481C141.956 82.4835 139.98 81.526 137.875 81.1802C137.076 81.0496 136.23 80.9963 135.552 80.527Z" fill="#E6E6E6"/>
<path d="M142.127 89.2113L140.798 87.8351C140.367 87.3889 139.722 86.9161 139.228 87.2805C138.944 87.4899 138.857 87.8982 138.616 88.1622C138.47 88.3025 138.293 88.4015 138.102 88.4503C137.91 88.499 137.711 88.496 137.521 88.4414C137.142 88.3279 136.785 88.1468 136.463 87.9059L135.364 87.1776L134.226 86.4234L133.37 87.3118C133.407 86.8747 132.861 86.5905 132.483 86.7634C132.304 86.871 132.149 87.0205 132.031 87.2007C131.913 87.3809 131.834 87.5873 131.801 87.8043C131.738 88.2383 131.629 88.663 131.474 89.0699C131.039 89.9586 129.984 90.2217 129.056 90.3706C128.127 90.5194 127.076 90.7291 126.579 91.5797C126.165 92.2885 126.289 93.1978 126.427 94.0196L126.95 97.1288C126.975 97.5055 127.116 97.8627 127.352 98.144C127.812 98.5772 128.524 98.3139 129.085 98.0497C130.258 97.4474 131.516 97.0579 132.809 96.8973C134.113 96.7415 135.425 97.1006 136.498 97.9068C137.163 98.4479 137.67 99.1967 138.375 99.6772C138.861 99.9893 139.407 100.179 139.972 100.231C140.536 100.284 141.105 100.198 141.634 99.9807C142.694 99.5299 143.571 98.6945 144.111 97.6213C144.591 96.675 144.832 95.6116 144.81 94.5358C144.788 93.4599 144.504 92.4087 143.986 91.4856C143.457 90.648 142.833 89.884 142.127 89.2113Z" fill="#E6E6E6"/>
<path d="M140.821 101.879C140.715 102.017 140.653 102.187 140.644 102.366C140.635 102.544 140.679 102.721 140.771 102.87C140.964 103.165 141.259 103.367 141.59 103.433C141.919 103.496 142.254 103.512 142.586 103.482L142.596 103.216C142.508 102.751 142.307 102.318 142.013 101.961C141.692 101.635 141.125 101.535 140.821 101.879Z" fill="#E6E6E6"/>
<path d="M152.228 102.164L152.069 102.101L150.935 103.927C150.732 104.255 150.52 104.648 150.644 105.018C150.791 105.455 151.333 105.584 151.755 105.469C152.077 105.375 152.367 105.186 152.591 104.922C152.816 104.659 152.965 104.333 153.022 103.982C153.069 103.629 153.019 103.27 152.878 102.947C152.737 102.624 152.511 102.352 152.228 102.164Z" fill="#E6E6E6"/>
<path d="M155.111 100.232L154.067 99.3458C154.054 99.7567 154.04 100.168 154.025 100.579H153.986C154.227 100.804 154.454 101.045 154.666 101.301C154.911 101.523 155.32 101.623 155.529 101.366C155.592 101.273 155.627 101.162 155.631 101.047C155.635 100.933 155.607 100.82 155.552 100.722C155.437 100.529 155.287 100.362 155.111 100.232Z" fill="#E6E6E6"/>
<path d="M136.257 61.6877C135.82 61.6731 135.335 61.6447 134.996 61.9405C134.884 62.0471 134.786 62.169 134.704 62.3031L134.585 62.482C134.406 62.7323 134.249 63.0004 134.118 63.2826C134.05 63.4148 134.009 63.5612 133.998 63.7119C133.987 63.8626 134.006 64.014 134.055 64.1559C134.083 64.2238 134.125 64.2843 134.177 64.333C134.229 64.3818 134.291 64.4177 134.358 64.4382C134.425 64.4587 134.495 64.4633 134.563 64.4516C134.632 64.44 134.697 64.4124 134.755 64.3707C134.942 64.1856 134.898 63.8498 135.04 63.623C135.102 63.5376 135.182 63.4688 135.274 63.4221C135.365 63.3754 135.465 63.3521 135.567 63.3539C135.769 63.3593 135.97 63.3836 136.168 63.4265C136.717 63.5068 137.276 63.4176 137.779 63.1696C138.282 62.9215 138.708 62.5249 139.007 62.0265C139.306 61.5282 139.465 60.949 139.465 60.3573C139.465 59.7656 139.307 59.1861 139.009 58.6873L138.974 58.5724C138.671 58.56 138.373 58.6616 138.133 58.8594C137.893 59.0572 137.725 59.3388 137.659 59.655C137.561 60.2 137.769 60.8328 137.459 61.2785C137.199 61.6535 136.695 61.7023 136.257 61.6877Z" fill="#E6E6E6"/>
<path d="M140.177 55.9113L140.11 55.905C139.719 55.9814 139.343 56.131 139 56.3469C138.887 56.4027 138.797 56.5 138.747 56.621C138.732 56.6851 138.732 56.7523 138.747 56.8163C138.763 56.8804 138.793 56.9393 138.835 56.9878C138.92 57.0837 139.02 57.1636 139.129 57.2241C139.293 57.3408 139.474 57.4272 139.665 57.4797C139.76 57.505 139.86 57.5045 139.955 57.4782C140.051 57.452 140.139 57.4008 140.211 57.3294C140.279 57.23 140.325 57.1159 140.347 56.9952C140.369 56.8746 140.367 56.7502 140.339 56.6308C140.308 56.3858 140.253 56.1447 140.177 55.9113H140.177Z" fill="#E6E6E6"/>
<path d="M133.428 61.8265C133.533 61.6474 133.607 61.4501 133.648 61.2435L133.77 60.7624L133.334 60.4792C133.125 60.5952 132.933 60.7416 132.762 60.9142C132.678 61.0013 132.611 61.1061 132.566 61.2221C132.521 61.3382 132.499 61.4629 132.501 61.5885C132.507 61.714 132.552 61.8336 132.63 61.9279C132.708 62.0222 132.813 62.0857 132.929 62.1079C133.028 62.111 133.126 62.0868 133.214 62.0375C133.301 61.9883 133.375 61.9156 133.428 61.8267L133.428 61.8265Z" fill="#E6E6E6"/>
<path d="M85.8785 18.4803C85.706 18.5952 85.7546 18.873 85.8246 19.0768L86.066 19.7792L86.1784 19.3247C86.2772 19.1484 86.3207 18.9431 86.3027 18.7385C86.2639 18.5385 86.0409 18.3729 85.8785 18.4803Z" fill="#E6E6E6"/>
<path d="M139.675 94.7402C145.229 94.7402 149.731 89.9318 149.731 84.0002C149.731 78.0687 145.229 73.2603 139.675 73.2603C134.12 73.2603 129.618 78.0687 129.618 84.0002C129.618 89.9318 134.12 94.7402 139.675 94.7402Z" fill="#3498DB"/>
<mask id="mask0_136_2089" style="mask-type:luminance" maskUnits="userSpaceOnUse" x="129" y="73" width="21" height="22">
<path d="M139.675 94.7402C145.229 94.7402 149.731 89.9318 149.731 84.0002C149.731 78.0687 145.229 73.2603 139.675 73.2603C134.12 73.2603 129.618 78.0687 129.618 84.0002C129.618 89.9318 134.12 94.7402 139.675 94.7402Z" fill="white"/>
</mask>
<g mask="url(#mask0_136_2089)">
<path d="M142.313 83.5423C142.447 83.0739 142.457 82.5749 142.342 82.1007C142.227 81.6264 141.991 81.1955 141.661 80.8558C141.33 80.5161 140.918 80.2808 140.47 80.1762C140.022 80.0715 139.555 80.1016 139.122 80.263C138.689 80.4244 138.306 80.7108 138.016 81.0905C137.726 81.4701 137.541 81.9282 137.48 82.4138C137.419 82.8993 137.485 83.3934 137.672 83.8411C137.858 84.2889 138.157 84.6727 138.535 84.9501L137.02 89.0049L144.462 88.3315C144.462 88.3315 140.691 86.1702 140.643 85.3067C141.036 85.1829 141.395 84.9569 141.686 84.649C141.977 84.3411 142.193 83.9609 142.313 83.5423Z" fill="#ED9DA0"/>
<path d="M144.472 88.0759L145.106 87.7627C145.335 87.8093 145.546 87.9262 145.713 88.0989C145.88 88.2716 145.997 88.4927 146.048 88.7351C146.264 89.6087 147.251 94.289 147.251 94.289C147.419 94.4796 147.532 94.7179 147.575 94.9752C147.619 95.2325 147.592 95.4978 147.498 95.7393C147.498 95.7393 147.614 96.6704 147.251 96.8105C146.889 96.9505 144.461 98.9523 144.461 98.9523L144.472 88.0759Z" fill="#090814"/>
<path d="M142.56 86.8565L140.92 85.7896C140.542 87.8001 138.59 87.9105 138.211 85.9002L137.005 86.8567L134.458 87.7631L134.828 98.3064L139.998 98.2905V98.3064H144.736L145.106 87.7631L142.56 86.8565Z" fill="#090814"/>
<path d="M135.093 88.0759L134.459 87.7627C134.23 87.8093 134.02 87.9262 133.852 88.0989C133.685 88.2716 133.569 88.4927 133.518 88.7351C133.301 89.6087 133.703 94.6599 133.703 94.6599C133.535 94.8505 133.423 95.0888 133.379 95.3461C133.335 95.6034 133.362 95.8688 133.456 96.1102C133.456 96.1102 133.34 97.0414 133.703 97.1815C134.065 97.3215 135.094 97.3838 135.094 97.3838L135.093 88.0759Z" fill="#090814"/>
<path d="M137.599 81.6403L137.41 83.6929C137.41 83.6929 135.434 79.5962 137.891 78.8386C137.891 78.8386 137.652 78.4924 137.999 78.3773C138.347 78.2621 141.641 77.7097 141.904 79.4319C141.904 79.4319 143.625 80.5704 143.104 81.7896L142.49 83.2223L141.935 83.2551C141.935 83.2551 141.919 80.5272 141.07 80.6183C140.221 80.7093 137.599 81.6403 137.599 81.6403Z" fill="#090814"/>
</g>
<path d="M85.4688 67.4606C91.0785 67.4606 95.6261 62.6522 95.6261 56.7206C95.6261 50.7891 91.0785 45.9807 85.4688 45.9807C79.8591 45.9807 75.3115 50.7891 75.3115 56.7206C75.3115 62.6522 79.8591 67.4606 85.4688 67.4606Z" fill="#3498DB"/>
<mask id="mask1_136_2089" style="mask-type:luminance" maskUnits="userSpaceOnUse" x="75" y="45" width="21" height="23">
<path d="M85.4688 67.4606C91.0785 67.4606 95.6261 62.6522 95.6261 56.7206C95.6261 50.7891 91.0785 45.9807 85.4688 45.9807C79.8591 45.9807 75.3115 50.7891 75.3115 56.7206C75.3115 62.6522 79.8591 67.4606 85.4688 67.4606Z" fill="white"/>
</mask>
<g mask="url(#mask1_136_2089)">
<path d="M84.1688 57.8976L84.0683 59.6487L87.1301 59.8145L86.182 57.5073L84.1688 57.8976Z" fill="#ED9DA0"/>
<path d="M83.9896 59.3868C84.8102 59.8474 86.123 59.7215 87.61 59.3868L87.8425 72.3543C87.8425 72.3543 82.9952 74.0315 81.3948 71.8603L82.4316 60.7652L83.9894 59.3879L83.9896 59.3868Z" fill="#D6D6E3"/>
<path d="M86.6766 58.7125L88.8838 60.1087C89.2903 60.3656 89.605 60.7598 89.7784 61.229C89.9517 61.6983 89.9737 62.2158 89.841 62.6999L88.1352 68.922C88.1352 68.922 90.9131 74.0187 90.0106 74.4683C87.9821 75.4779 84.9553 75.2328 84.9553 75.2328L85.6317 63.03L86.6776 58.7125H86.6766Z" fill="#3F3D58"/>
<path d="M84.0856 59.3406L81.5897 60.3761L81.0002 68.066L79.3492 74.2604C82.145 75.3503 81.8835 74.8425 81.8835 74.8425L82.3461 64.1542L84.0841 59.3427L84.0856 59.3406Z" fill="#3F3D58"/>
<path d="M80.4402 74.1285L80.4487 74.0855L82.9999 61.4839C83.0297 61.3452 83.0337 61.2016 83.0115 61.0613C82.9894 60.921 82.9416 60.7867 82.8709 60.6661C82.8002 60.5455 82.7079 60.441 82.5994 60.3585C82.4908 60.276 82.3681 60.2172 82.2383 60.1853C82.1084 60.1534 81.974 60.1492 81.8426 60.1728C81.7112 60.1965 81.5855 60.2475 81.4725 60.323C81.3596 60.3985 81.2618 60.4971 81.1845 60.613C81.1073 60.7289 81.0521 60.86 81.0223 60.9986L78.2197 73.3019L80.4396 74.1293L80.4402 74.1285Z" fill="#3F3D58"/>
<path d="M85.4971 58.3626C86.869 58.3626 87.9811 57.1749 87.9811 55.7098C87.9811 54.2448 86.869 53.0571 85.4971 53.0571C84.1252 53.0571 83.0131 54.2448 83.0131 55.7098C83.0131 57.1749 84.1252 58.3626 85.4971 58.3626Z" fill="#ED9DA0"/>
<path d="M84.3155 52.2729C83.7684 52.4782 83.4552 52.5951 83.169 52.8908C82.6847 53.3892 82.6046 54.0553 82.5304 54.6737C82.4194 55.2839 82.4652 55.9148 82.663 56.4995C82.7535 56.7435 83.1932 57.8312 84.0343 57.9683C84.1994 57.9953 84.5874 58.0024 84.4756 57.9141C83.4409 57.0979 82.9995 56.606 83.0357 55.3488C83.0582 54.5676 84.1759 53.7243 84.8394 53.5726C84.9989 53.5378 85.1635 53.5403 85.322 53.5797C85.4805 53.6191 85.6292 53.6947 85.7578 53.8012C86.3156 54.2903 86.2918 56.3124 86.8799 56.7351C87.1213 56.9091 86.9604 55.6852 87.1312 55.8836C87.4675 56.2752 87.2518 56.8745 87.1915 57.1033C86.9049 58.1865 86.6046 57.3855 86.3248 58.3104C86.0231 59.3091 88.6737 59.9816 88.7638 60.2046C88.9207 60.5925 86.6788 62.4331 87.2943 62.7523C88.0753 63.1576 88.691 62.6299 89.054 63.0822C89.2569 63.335 89.1471 63.6031 89.5138 64.3899C89.6335 64.6477 89.6936 64.7753 89.7463 64.7708C89.9969 64.7493 90.403 62.606 89.7463 60.6103C89.4708 59.7726 89.2008 58.9523 88.4778 58.3104C88.0956 57.9711 87.7738 57.8491 87.6831 57.453C87.5525 56.8868 88.0944 56.6453 88.2028 55.7524C88.277 55.1417 88.3291 54.2681 88.127 53.7084C87.9363 53.1795 87.7708 52.7203 87.3375 52.3046C87.2333 52.2048 86.3934 51.5253 85.5028 51.506C85.0929 51.4972 84.7914 52.0941 84.3161 52.2726L84.3155 52.2729Z" fill="#090814"/>
<path d="M88.1602 60.1876C88.5398 60.1303 88.9256 60.2292 89.2395 60.4643C89.5534 60.6993 89.7719 61.0529 89.8509 61.4536C90.4221 64.3534 91.4473 70.5332 89.8372 70.6363C88.4511 70.6992 87.0633 70.5632 85.711 70.2318L86.2162 67.1293L87.8583 66.9495L86.8928 62.1246C86.8494 61.9079 86.8482 61.6839 86.8894 61.4666C86.9305 61.2494 87.0131 61.0435 87.1319 60.8618C87.2508 60.6801 87.4034 60.5265 87.5803 60.4105C87.7571 60.2945 87.9545 60.2186 88.16 60.1876H88.1602Z" fill="#3F3D58"/>
</g>
<path d="M29.7627 43.0457C31.7549 43.0457 33.7024 43.6766 35.3588 44.8586C37.0153 46.0406 38.3064 47.7206 39.0687 49.6862C39.8311 51.6519 40.0306 53.8148 39.6419 55.9015C39.2533 57.9881 38.2939 59.9049 36.8852 61.4093C35.4765 62.9137 33.6817 63.9382 31.7278 64.3533C29.7739 64.7684 27.7486 64.5554 25.908 63.7412C24.0674 62.927 22.4943 61.5482 21.3875 59.7792C20.2806 58.0102 19.6899 55.9304 19.6899 53.8028C19.6899 50.9499 20.7511 48.2137 22.6401 46.1964C24.5292 44.179 27.0912 43.0457 29.7627 43.0457Z" fill="#3498DB"/>
<mask id="mask2_136_2089" style="mask-type:luminance" maskUnits="userSpaceOnUse" x="19" y="43" width="21" height="22">
<path d="M29.7428 64.5175C35.2948 64.5175 39.7957 59.7108 39.7957 53.7816C39.7957 47.8523 35.2948 43.0457 29.7428 43.0457C24.1907 43.0457 19.6899 47.8523 19.6899 53.7816C19.6899 59.7108 24.1907 64.5175 29.7428 64.5175Z" fill="white"/>
</mask>
<g mask="url(#mask2_136_2089)">
<path d="M30.3562 51.7319C31.3175 51.7319 32.0968 50.8997 32.0968 49.873C32.0968 48.8464 31.3175 48.0142 30.3562 48.0142C29.3949 48.0142 28.6156 48.8464 28.6156 49.873C28.6156 50.8997 29.3949 51.7319 30.3562 51.7319Z" fill="#FFB9B9"/>
<path d="M28.8529 50.2956C28.8529 50.2956 28.7737 52.9151 28.3783 53.253C27.9828 53.5908 29.8025 55.0274 29.8025 55.0274L30.9892 52.9995V51.1406L28.8529 50.2956Z" fill="#FFB9B9"/>
<path d="M29.6442 53.8448L28.6836 52.2957L28.1405 53.0842L27.3493 55.4502L27.9822 64.6604L31.701 64.745L32.1757 54.1827L30.989 52.6617L29.6442 53.8448Z" fill="#F2F2F2"/>
<path d="M33.6794 54.4361L34.3123 54.3517C34.3123 54.3517 34.4704 54.4361 34.5497 55.0277C34.6289 55.6192 35.5779 60.8582 35.5779 60.8582L34.3119 67.2807L32.8877 65.2528L33.7584 61.7041L32.8879 58.1539L33.6794 54.4361Z" fill="#090814"/>
<path d="M25.6089 54.3517H25.1342L23.9475 61.1961L25.0551 66.5197L26.163 64.5762L25.8464 62.4636L26.0043 60.6047L26.5582 59.5062L25.6089 54.3517Z" fill="#090814"/>
<path d="M29.3278 49.8737L29.6444 49.7891C29.6444 49.7891 29.8818 48.3523 30.4357 48.5218C30.9896 48.6913 32.4138 48.8599 32.4138 48.1837C32.4138 47.5075 31.0685 46.9164 30.2776 47.0006C29.4867 47.0848 28.1411 47.3391 28.2202 48.6064C28.2966 49.4671 28.4955 50.3103 28.8099 51.1069L28.8515 50.3551L29.3278 49.8737Z" fill="#090814"/>
<path d="M34.2335 54.3517L31.7016 53.2532L31.1083 52.7884L29.328 61.1961L28.1414 57.3941L28.4974 52.5356L25.2138 54.3524L26.3221 60.0987L26.4804 62.2957L26.0057 64.0701C26.0057 64.0701 24.3441 65.3374 24.8981 66.6896C25.452 68.0418 26.0848 68.1264 26.0848 68.1264C26.0848 68.1264 28.7749 65.4225 28.9334 64.7465C29.0919 64.0706 29.3291 62.8876 29.3291 62.8876C29.3291 62.8876 30.6744 68.2957 32.2566 68.211C33.8387 68.1264 33.8391 66.3522 33.8391 66.3522L33.4435 64.4933L32.8097 62.5474L33.1263 59.3366L34.2335 54.3517Z" fill="#090814"/>
</g>
</g>
<defs>
<clipPath id="clip0_136_2089">
<rect width="161" height="112.212" fill="white"/>
</clipPath>
</defs>
</svg>
