<svg width="220" height="285" viewBox="0 0 220 285" fill="none" xmlns="http://www.w3.org/2000/svg">
<g clip-path="url(#clip0_317_168)">
<path d="M64.7644 106.962L3.47053 93.7404L2.67396 93.5689C2.26831 93.4808 1.84604 93.509 1.45569 93.6502C1.06534 93.7914 0.722776 94.0399 0.467388 94.3672C0.212 94.6944 0.0541533 95.0871 0.0120119 95.5001C-0.0301295 95.913 0.0451488 96.3295 0.229172 96.7016L24.5653 146.123C24.7228 146.44 24.9543 146.715 25.2403 146.925C25.5263 147.134 25.8584 147.272 26.2086 147.326C26.56 147.38 26.9194 147.349 27.2557 147.233C27.5921 147.118 27.8953 146.923 28.1392 146.664L45.0425 128.841C45.1628 128.711 45.3086 128.607 45.4709 128.536C45.6331 128.465 45.8083 128.429 45.9854 128.429C46.2261 128.426 46.4632 128.488 46.6713 128.609C46.8794 128.73 47.0506 128.905 47.1668 129.116L50.629 135.52C50.8501 135.947 51.2076 136.288 51.6447 136.488C52.0818 136.688 52.5733 136.736 53.041 136.625L53.0583 136.621C53.5317 136.521 53.9577 136.264 54.2677 135.893C54.5777 135.521 54.7537 135.056 54.7675 134.573L55.4611 119.79C55.4694 119.605 55.5154 119.424 55.5965 119.259C55.6834 119.094 55.8015 118.949 55.944 118.829L65.6956 110.825C66.0162 110.561 66.2561 110.213 66.3879 109.82C66.5197 109.427 66.538 109.005 66.4408 108.602C66.3436 108.198 66.1348 107.831 65.8383 107.541C65.5418 107.251 65.1696 107.051 64.7644 106.962ZM65.1388 110.144L55.3871 118.149C55.2601 118.251 55.1449 118.368 55.0439 118.496L3.35975 95.0561C3.31416 95.0349 3.26661 95.0183 3.21777 95.0063C3.01841 94.955 2.80737 94.9749 2.62114 95.0626C2.4349 95.1504 2.28519 95.3004 2.19789 95.4869C2.11059 95.6733 2.09119 95.8844 2.14305 96.0836C2.19491 96.2828 2.31477 96.4577 2.48189 96.5779L44.9778 127.794C44.7621 127.906 44.5674 128.055 44.4023 128.233L27.4991 146.056C27.3525 146.21 27.1707 146.327 26.9693 146.396C26.7679 146.465 26.5528 146.484 26.3423 146.453C26.1317 146.421 25.932 146.338 25.7601 146.213C25.5881 146.087 25.4491 145.922 25.3546 145.731L1.0185 96.3102C0.909707 96.0869 0.865814 95.8376 0.891833 95.5905C0.917852 95.3435 1.01273 95.1088 1.16566 94.913C1.31859 94.7173 1.52343 94.5685 1.75683 94.4835C1.99023 94.3985 2.24281 94.3807 2.48579 94.4323L3.30127 94.6085L64.576 107.826C64.8193 107.879 65.0428 107.999 65.221 108.172C65.3992 108.346 65.5249 108.567 65.5836 108.809C65.6423 109.051 65.6318 109.304 65.5531 109.54C65.4744 109.776 65.3308 109.986 65.1388 110.144Z" fill="#3498DB"/>
<path d="M77.6105 283.698C72.0941 282.505 65.3807 277.545 66.8179 270.727C67.5308 267.345 70.2666 265.157 73.1034 263.741C77.0273 261.783 81.4961 261.046 85.8026 260.859C90.77 260.644 95.7318 261.186 100.662 261.76C105.529 262.326 110.397 262.832 115.286 263.142C134.416 264.343 153.663 263.199 172.362 259.749C176.977 258.897 181.565 257.897 186.125 256.749C190.445 255.731 194.67 254.467 198.766 252.967C204.187 250.883 213.003 246.829 212.284 239.321C211.903 235.34 208.974 232.16 206.02 229.945C202.448 227.267 198.315 225.505 194.266 223.793C175.436 215.833 156.569 207.968 137.721 200.055C133.322 198.209 128.893 196.412 124.624 194.248C120.627 192.222 116.648 189.868 113.432 186.614C110.622 183.772 108.112 179.956 108.2 175.691C108.274 172.154 110.285 169.152 112.748 166.909C118.845 161.354 127.471 159.103 135.267 157.923C144.952 156.457 154.778 156.465 164.47 155.05C172.296 153.907 180.657 151.701 187.022 146.532C189.714 144.43 191.618 141.767 192.519 138.844C193.332 135.782 192.937 132.594 191.389 129.72C189.665 126.424 186.915 123.798 184.023 121.648C180.701 119.212 176.934 117.197 172.851 115.673C164.256 112.394 155.217 110.687 146.412 108.171C142.094 106.937 137.732 105.584 133.723 103.464C130.326 101.668 126.625 99.2479 124.735 95.6484C120.836 88.2218 130.138 83.7956 135.409 82.1191C138.992 81.0313 142.683 80.1857 146.442 79.591C147.236 79.4544 146.899 78.1844 146.108 78.3203C142.151 78.9379 138.273 79.8442 134.523 81.0282C131.344 82.0853 128.065 83.4746 125.568 85.8654C124.431 86.9448 123.591 88.2035 123.101 89.5598C122.611 90.9161 122.483 92.3396 122.726 93.7381C123.387 97.3014 126.262 100.047 128.962 102.036C132.532 104.666 136.603 106.383 140.73 107.783C145.077 109.258 149.516 110.407 153.954 111.534C162.821 113.786 172.086 115.794 180.091 120.586C185.69 123.939 193.297 130.225 191.435 138.017C190.608 141.476 188.097 144.18 185.387 146.169C182.206 148.436 178.536 150.222 174.557 151.44C156.819 157.155 137.296 153.068 120.015 160.83C114.139 163.469 107.002 168.273 106.945 175.833C106.915 179.76 108.881 183.362 111.313 186.209C114.225 189.619 117.995 192.14 121.832 194.247C125.872 196.385 130.066 198.329 134.393 200.069C139.121 202.057 143.849 204.042 148.578 206.024L177.278 218.072L191.538 224.057C195.89 225.884 200.354 227.637 204.311 230.319C207.551 232.515 211.379 236.117 211.049 240.59C210.786 244.143 207.838 246.707 205.144 248.421C201.656 250.64 197.737 252.076 193.838 253.268C189.34 254.644 184.769 255.786 180.189 256.812C170.807 258.911 161.232 260.411 151.554 261.299C141.9 262.188 132.174 262.478 122.464 262.166C117.558 262.008 112.659 261.694 107.769 261.224C102.727 260.738 97.7071 259.989 92.6526 259.657C88.0808 259.356 83.4648 259.426 78.9624 260.392C75.203 261.198 71.2313 262.636 68.3776 265.441C66.2742 267.582 65.221 270.265 65.4159 272.984C65.6092 275.698 66.8179 278.303 68.8851 280.459C70.9848 282.662 73.9352 284.247 77.2771 284.969C78.0651 285.139 78.4021 283.869 77.6105 283.698Z" fill="#122E44"/>
<path d="M219.591 284.012H76.7386V285H219.591V284.012Z" fill="#3F3D56"/>
<path d="M208.146 237.478C213.3 237.478 217.478 233.3 217.478 228.146C217.478 222.992 213.3 218.813 208.146 218.813C202.992 218.813 198.814 222.992 198.814 228.146C198.814 233.3 202.992 237.478 208.146 237.478Z" fill="#122E44"/>
<path d="M191.12 105.946C196.274 105.946 200.453 101.768 200.453 96.6135C200.453 91.4595 196.274 87.2814 191.12 87.2814C185.966 87.2814 181.788 91.4595 181.788 96.6135C181.788 101.768 185.966 105.946 191.12 105.946Z" fill="#122E44"/>
<path d="M170.021 49.6369L144.109 60.9016C142.964 61.4007 142.065 62.3333 141.607 63.4949C141.149 64.6565 141.171 65.9523 141.668 67.0978L149.714 85.6066C150.213 86.7511 151.146 87.6508 152.307 88.1085C153.469 88.5662 154.764 88.5444 155.91 88.0479L181.822 76.7832C182.967 76.2841 183.867 75.3515 184.324 74.1899C184.782 73.0283 184.76 71.7326 184.264 70.587L176.217 52.0782C175.718 50.9338 174.786 50.034 173.624 49.5763C172.463 49.1187 171.167 49.1405 170.021 49.6369ZM171.094 52.1048C171.249 52.0381 171.412 51.9913 171.578 51.9653L162.818 68.4941L144.824 63.5701C144.936 63.4913 145.056 63.4241 145.182 63.3695L171.094 52.1048ZM180.75 74.3153L154.837 85.5801C154.346 85.7928 153.791 85.8022 153.293 85.606C152.795 85.4099 152.396 85.0243 152.182 84.5338L144.208 66.1912L163.147 71.3741C163.442 71.4548 163.755 71.4326 164.036 71.3113C164.317 71.1899 164.548 70.9766 164.691 70.7064L173.86 53.4059L181.796 71.6598C182.009 72.1508 182.018 72.7061 181.822 73.2039C181.626 73.7018 181.24 74.1015 180.75 74.3153Z" fill="#122E44"/>
<path d="M140.957 160.939C153.988 160.939 164.552 150.375 164.552 137.344C164.552 124.313 153.988 113.75 140.957 113.75C127.926 113.75 117.363 124.313 117.363 137.344C117.363 150.375 127.926 160.939 140.957 160.939Z" fill="#3498DB"/>
<path d="M137.24 284.303H130.733C129.973 284.302 129.244 284 128.707 283.462C128.17 282.925 127.868 282.197 127.867 281.437V227.205C127.868 226.446 128.17 225.717 128.707 225.18C129.244 224.643 129.973 224.341 130.733 224.34H137.24C137.999 224.341 138.728 224.643 139.265 225.18C139.802 225.717 140.104 226.446 140.105 227.205V281.437C140.104 282.197 139.802 282.925 139.265 283.462C138.728 284 137.999 284.302 137.24 284.303Z" fill="#122E44"/>
<path d="M150.109 284.303H143.602C142.843 284.302 142.114 284 141.577 283.462C141.04 282.925 140.738 282.197 140.737 281.437V227.205C140.738 226.446 141.04 225.717 141.577 225.18C142.114 224.643 142.843 224.341 143.602 224.34H150.109C150.869 224.341 151.597 224.643 152.135 225.18C152.672 225.717 152.974 226.446 152.975 227.205V281.437C152.974 282.197 152.672 282.925 152.135 283.462C151.597 284 150.869 284.302 150.109 284.303Z" fill="#122E44"/>
<path d="M177.074 221.534C176.788 221.534 176.504 221.491 176.23 221.407C175.87 221.298 175.535 221.118 175.245 220.878C174.955 220.639 174.715 220.344 174.539 220.011L149.117 172.107C148.941 171.774 148.831 171.41 148.796 171.036C148.76 170.661 148.798 170.283 148.908 169.923C149.019 169.564 149.199 169.229 149.438 168.939C149.678 168.649 149.972 168.409 150.305 168.232L156.052 165.182C156.385 165.005 156.749 164.896 157.123 164.86C157.498 164.824 157.876 164.863 158.236 164.973C158.596 165.083 158.93 165.264 159.22 165.503C159.511 165.743 159.751 166.037 159.927 166.37L185.349 214.274C185.525 214.606 185.635 214.97 185.67 215.345C185.706 215.72 185.668 216.098 185.558 216.457C185.447 216.817 185.267 217.152 185.028 217.442C184.788 217.732 184.493 217.972 184.161 218.148L178.413 221.199C178.001 221.419 177.541 221.534 177.074 221.534Z" fill="#3498DB"/>
<path d="M124.152 177.379C123.808 177.379 123.467 177.317 123.145 177.195L72.4116 158.03C72.0597 157.897 71.7374 157.695 71.4633 157.438C71.1891 157.18 70.9685 156.871 70.8139 156.528C70.6593 156.185 70.5739 155.815 70.5624 155.439C70.551 155.063 70.6137 154.688 70.7471 154.337L73.0423 148.249C73.3132 147.539 73.8542 146.966 74.5471 146.653C75.2399 146.341 76.0282 146.316 76.7394 146.584L127.471 165.745C128.181 166.016 128.755 166.555 129.068 167.247C129.38 167.939 129.407 168.727 129.141 169.438L126.841 175.526C126.633 176.071 126.265 176.54 125.785 176.871C125.304 177.202 124.735 177.379 124.152 177.379Z" fill="#3498DB"/>
<path d="M155.472 165.038H125.907C124.446 165.038 123.262 166.222 123.262 167.683V230.495C123.262 231.956 124.446 233.14 125.907 233.14H155.472C156.933 233.14 158.117 231.956 158.117 230.495V167.683C158.117 166.222 156.933 165.038 155.472 165.038Z" fill="#122E44"/>
<path d="M158.385 114.238C159.771 117.281 161.098 120.957 159.606 124.212C159.059 125.526 158.032 126.584 156.733 127.169C155.195 127.782 153.519 127.432 152.094 126.691C149.093 125.129 147.159 122.228 144.48 120.24C143.261 119.29 141.818 118.668 140.29 118.434C138.53 118.205 136.782 118.62 135.06 118.94C133.229 119.281 131.337 119.461 129.642 118.533C128.151 117.661 126.984 116.328 126.317 114.735C125.968 113.96 124.828 114.631 125.175 115.402C126.617 118.601 129.597 120.781 133.178 120.529C135.073 120.396 136.903 119.784 138.801 119.696C140.532 119.639 142.231 120.182 143.608 121.233C146.549 123.33 148.546 126.55 151.92 128.073C153.512 128.791 155.335 129.091 157.014 128.472C158.462 127.909 159.668 126.858 160.425 125.501C162.64 121.688 161.217 117.28 159.527 113.571C159.174 112.797 158.034 113.469 158.385 114.238Z" fill="#122E44"/>
<path d="M143.566 145.222C142.108 145.181 140.294 145.131 138.897 144.11C138.481 143.793 138.139 143.39 137.895 142.927C137.652 142.465 137.512 141.955 137.486 141.433C137.461 141.062 137.522 140.69 137.664 140.346C137.806 140.003 138.026 139.697 138.306 139.452C139.036 138.835 140.101 138.69 141.251 139.028L140.06 130.332L140.934 130.212L142.333 140.436L141.604 140.101C140.759 139.713 139.597 139.516 138.876 140.125C138.698 140.285 138.561 140.483 138.472 140.704C138.384 140.925 138.348 141.164 138.368 141.402C138.389 141.79 138.494 142.17 138.675 142.514C138.856 142.859 139.109 143.16 139.417 143.398C140.505 144.192 141.95 144.295 143.591 144.341L143.566 145.222Z" fill="#122E44"/>
<path d="M135.74 131.082H130.992V131.964H135.74V131.082Z" fill="#122E44"/>
<path d="M150.73 131.082H145.981V131.964H150.73V131.082Z" fill="#122E44"/>
<path d="M123.222 176.989L102.373 170.632C101.722 170.433 101.173 169.992 100.84 169.4C100.506 168.808 100.413 168.11 100.58 167.451L103.014 157.86C103.11 157.481 103.289 157.129 103.538 156.827C103.787 156.526 104.099 156.283 104.453 156.117C104.807 155.951 105.193 155.865 105.584 155.866C105.975 155.867 106.361 155.954 106.714 156.122L127.394 165.952C128.049 166.201 128.579 166.699 128.868 167.338C129.157 167.976 129.181 168.703 128.934 169.36L126.635 175.448C126.386 176.105 125.887 176.636 125.247 176.925C124.608 177.214 123.879 177.237 123.222 176.989Z" fill="#122E44"/>
<path d="M149.492 171.564L158.433 191.443C158.712 192.063 159.219 192.552 159.849 192.808C160.479 193.064 161.183 193.068 161.815 192.819L171.021 189.192C171.385 189.049 171.712 188.827 171.98 188.542C172.248 188.257 172.449 187.917 172.569 187.545C172.689 187.173 172.725 186.779 172.675 186.391C172.625 186.004 172.489 185.632 172.278 185.303L159.914 166.031C159.584 165.413 159.023 164.95 158.353 164.744C157.682 164.538 156.958 164.606 156.338 164.933L150.589 167.984C149.97 168.314 149.506 168.876 149.3 169.547C149.094 170.218 149.163 170.944 149.492 171.564Z" fill="#122E44"/>
<path d="M64.7644 106.962L3.47053 93.7404L2.67396 93.5689C2.26831 93.4808 1.84604 93.509 1.45569 93.6502C1.06534 93.7914 0.722776 94.0399 0.467388 94.3672C0.212 94.6944 0.0541533 95.0871 0.0120119 95.5001C-0.0301295 95.913 0.0451488 96.3295 0.229172 96.7016L24.5653 146.123C24.7228 146.44 24.9543 146.715 25.2403 146.925C25.5263 147.134 25.8584 147.272 26.2086 147.326C26.56 147.38 26.9194 147.349 27.2557 147.233C27.5921 147.118 27.8953 146.923 28.1392 146.664L45.0425 128.841C45.1628 128.711 45.3086 128.607 45.4709 128.536C45.6331 128.465 45.8083 128.429 45.9854 128.429C46.2261 128.426 46.4632 128.488 46.6713 128.609C46.8794 128.73 47.0506 128.905 47.1668 129.116L50.629 135.52C50.8501 135.947 51.2076 136.288 51.6447 136.488C52.0818 136.688 52.5733 136.736 53.041 136.625L53.0583 136.621C53.5317 136.521 53.9577 136.264 54.2677 135.893C54.5777 135.521 54.7537 135.056 54.7675 134.573L55.4611 119.79C55.4694 119.605 55.5154 119.424 55.5965 119.259C55.6834 119.094 55.8015 118.949 55.944 118.829L65.6956 110.825C66.0162 110.561 66.2561 110.213 66.3879 109.82C66.5197 109.427 66.538 109.005 66.4408 108.602C66.3436 108.198 66.1348 107.831 65.8383 107.541C65.5418 107.251 65.1696 107.051 64.7644 106.962ZM65.1388 110.144L55.3871 118.149C55.2601 118.251 55.1449 118.368 55.0439 118.496C54.9527 118.61 54.8741 118.733 54.8091 118.864C54.7411 118.998 54.6875 119.138 54.6492 119.283L54.6502 119.287C54.6098 119.438 54.5865 119.593 54.5807 119.75L53.8874 134.532C53.8816 134.823 53.777 135.103 53.5909 135.326C53.4048 135.55 53.1482 135.703 52.8634 135.761L52.8548 135.763C52.5741 135.833 52.2781 135.806 52.0148 135.686C51.7514 135.567 51.5362 135.362 51.404 135.104L47.9408 128.696C47.7624 128.367 47.5027 128.088 47.1863 127.887C46.87 127.686 46.5076 127.569 46.1334 127.547L46.1292 127.548C46.0788 127.546 46.0287 127.543 45.9795 127.545C45.6303 127.545 45.2865 127.631 44.9778 127.794C44.7622 127.906 44.5675 128.055 44.4023 128.233L27.4991 146.056C27.3525 146.21 27.1707 146.327 26.9693 146.396C26.7679 146.465 26.5528 146.484 26.3423 146.453C26.1317 146.421 25.932 146.338 25.7601 146.213C25.5882 146.087 25.4491 145.922 25.3547 145.731L1.0185 96.3102C0.909707 96.0869 0.865814 95.8376 0.891833 95.5905C0.917852 95.3435 1.01273 95.1088 1.16566 94.913C1.31859 94.7173 1.52343 94.5685 1.75683 94.4835C1.99023 94.3985 2.24281 94.3807 2.48579 94.4323L3.30127 94.6085L64.576 107.826C64.8193 107.879 65.0428 107.999 65.221 108.172C65.3992 108.346 65.5249 108.567 65.5836 108.809C65.6423 109.051 65.6318 109.304 65.5531 109.54C65.4744 109.776 65.3308 109.986 65.1388 110.144Z" fill="#3F3D56"/>
<path d="M55.2394 118.584L54.8752 119.387L54.6502 119.287L54.6492 119.283L3.00606 95.866L46.1292 127.548L46.1334 127.547L46.2476 127.635L45.7276 128.346L44.9778 127.794L2.48189 96.5779C2.31477 96.4577 2.19491 96.2828 2.14306 96.0836C2.0912 95.8844 2.11059 95.6733 2.19789 95.4869C2.28519 95.3004 2.43491 95.1503 2.62114 95.0626C2.80737 94.9749 3.01842 94.955 3.21777 95.0063C3.26661 95.0183 3.31417 95.0349 3.35975 95.0562L55.0439 118.496L55.2394 118.584Z" fill="#3F3D56"/>
</g>
<defs>
<clipPath id="clip0_317_168">
<rect width="219.591" height="285" fill="white"/>
</clipPath>
</defs>
</svg>
