<svg width="120" height="103" viewBox="0 0 120 103" fill="none" xmlns="http://www.w3.org/2000/svg">
<g opacity="0.4" clip-path="url(#clip0_136_2061)">
<path d="M0 99.7592C0 99.9209 0.088246 100.053 0.197768 100.053H119.801C119.911 100.053 120 99.9214 120 99.7592C120 99.5969 119.911 99.4653 119.801 99.4653H0.198966C0.0894439 99.4653 0.000299651 99.5956 0 99.7575V99.7592Z" fill="#E6E6E6"/>
<path d="M111.304 66.3791L113.013 73.4486C113.033 73.5274 113.03 73.6099 113.005 73.6871L105.251 97.9812C105.22 98.0773 105.158 98.16 105.073 98.2154C104.989 98.2708 104.889 98.2956 104.789 98.2857C104.688 98.2758 104.595 98.2317 104.523 98.1609C104.451 98.0901 104.406 97.9968 104.394 97.8965L103.322 88.433C103.314 88.3701 103.321 88.3064 103.34 88.2462L110.457 66.3468C110.487 66.2555 110.546 66.1764 110.624 66.1215C110.703 66.0666 110.797 66.0388 110.893 66.0426C110.989 66.0463 111.081 66.0812 111.155 66.1421C111.229 66.2029 111.281 66.2864 111.304 66.3797L111.304 66.3791Z" fill="#2F2E41"/>
<path d="M110.675 66.9755L112.254 73.0408L105.415 95.1929L103.837 88.3365L110.675 66.9755Z" fill="#1F90CF"/>
<path d="M76.2184 99.9406C76.4815 100.732 103.574 99.6769 103.837 99.4132C104.066 99.0829 104.26 98.7294 104.415 98.3584C104.663 97.8309 104.889 97.3035 104.889 97.3035L103.837 88.7644L77.0076 87.8098C77.0076 87.8098 76.3368 95.0461 76.2 98.3584C76.1534 98.8851 76.1596 99.4151 76.2184 99.9406Z" fill="#2F2E41"/>
<path opacity="0.1" d="M100.417 89.9187L100.943 97.3027H89.1069V89.9187H100.417Z" fill="black"/>
<path opacity="0.1" d="M85.1614 92.2921L85.2321 92.2781L84.8986 95.4565H78.3228V92.2921H85.1614Z" fill="black"/>
<path opacity="0.1" d="M76.2184 99.9406C76.4815 100.732 103.574 99.677 103.837 99.4132C104.066 99.083 104.26 98.7294 104.415 98.3584H76.2C76.1534 98.8851 76.1596 99.4151 76.2184 99.9406Z" fill="black"/>
<path d="M34.3965 72.251H41.7613L59.9104 65.1308C59.9104 65.1308 72.799 59.8565 71.7466 69.8776C70.6942 79.8987 68.8533 93.3482 68.8533 93.3482C68.8533 93.3482 63.0666 90.7111 59.9103 91.5022C56.7539 92.2934 58.8576 75.415 58.8576 75.415C58.8576 75.415 33.0806 87.8095 30.7133 86.2273C28.3461 84.6451 27.82 73.569 27.82 73.569L34.3965 72.251Z" fill="#090814"/>
<path d="M45.9999 49.1265L54.9128 61.9656L75.6923 79.3708C75.6923 79.3708 92.0171 84.9871 89.3863 88.1517C86.7555 91.3163 73.5875 83.8539 73.5875 83.8539C73.5875 83.8539 49.6523 66.4488 48.8639 65.1302C48.0755 63.8116 39.395 51.4171 39.395 51.4171L45.9999 49.1265Z" fill="#ED9DA0"/>
<path opacity="0.058" d="M45.9999 49.1265L54.9128 61.9656L75.6923 79.3707C75.6923 79.3707 92.8163 85.7758 90.1861 88.9403C87.5559 92.1049 73.5881 83.8539 73.5881 83.8539C73.5881 83.8539 49.6523 66.4488 48.8639 65.1302C48.0755 63.8116 39.395 51.4171 39.395 51.4171L45.9999 49.1265Z" fill="black"/>
<path d="M43.8656 33.7482C43.8656 33.7482 39.9201 40.6048 39.1311 44.2967C38.3421 47.9887 27.2949 36.9128 27.2949 36.9128L25.8482 33.0889C25.8482 33.0889 36.2378 28.2102 35.4488 24.2545C34.6599 20.2987 43.8656 33.7482 43.8656 33.7482Z" fill="#ED9DA0"/>
<path d="M44.6544 35.0668C51.1915 35.0668 56.4908 29.7537 56.4908 23.1997C56.4908 16.6456 51.1915 11.3325 44.6544 11.3325C38.1174 11.3325 32.8181 16.6456 32.8181 23.1997C32.8181 29.7537 38.1174 35.0668 44.6544 35.0668Z" fill="#ED9DA0"/>
<path d="M45.9699 54.3179L56.7542 68.5583L82.531 87.8097C82.531 87.8097 96.6746 91.3799 92.4661 94.2807C88.2577 97.1815 80.6898 92.0291 80.6898 92.0291C80.6898 92.0291 54.6502 78.0522 49.1261 72.2504C43.602 66.4487 33.3444 56.6915 33.3444 56.6915L45.9699 54.3179Z" fill="#ED9DA0"/>
<path d="M31.5032 76.4699L34.6596 81.4807L53.4971 75.5389C55.5378 74.8776 57.6973 74.6685 59.8265 74.9261C61.9556 75.1836 64.0036 75.9016 65.8288 77.0305C69.1167 79.1073 71.221 82.4037 66.4864 87.2824C57.0174 97.0398 50.7045 91.7656 50.7045 91.7656C50.7045 91.7656 18.8779 106.797 13.617 99.4132C8.35621 92.0292 8.09341 88.3372 8.09341 88.3372C8.09341 88.3372 28.3468 75.6789 31.5032 76.4699Z" fill="#2F2E41"/>
<path d="M70.9579 93.8752C70.9579 93.8752 79.3748 99.4132 69.3797 102.05C59.3845 104.688 52.0197 100.996 52.0197 100.996C52.0197 100.996 43.3397 100.996 43.3397 96.5124C43.3397 92.0292 46.233 91.5018 46.233 91.5018L55.1761 92.8204C55.1761 92.8204 65.9604 89.9195 70.9579 93.8752Z" fill="#D6D6E3"/>
<path d="M40.7092 38.7586L46.4959 50.0983C46.4959 50.0983 45.1808 55.6363 43.0766 56.1637C40.9725 56.6911 32.0292 49.3073 32.0292 49.3073L40.7092 38.7586Z" fill="#1F90CF"/>
<path d="M24.9083 31.8381C25.4408 31.6956 26.0014 31.6971 26.5332 31.8423C28.2216 32.2967 32.0068 33.4997 32.8182 35.3306C33.8703 37.704 37.5527 41.3959 37.5527 41.3959C37.5527 41.3959 42.5503 46.4065 41.4982 49.8349C40.4461 53.2632 36.5008 57.2196 36.5008 57.2196C36.5008 57.2196 37.5528 73.5699 32.2923 77.7893C27.0318 82.0086 24.9273 79.1078 24.9273 83.0636C24.9273 87.0194 8.619 99.4132 5.46307 91.7654C5.46307 91.7654 7.04134 77.525 6.51515 72.5143C5.99706 67.576 6.75577 36.7651 24.9083 31.8381Z" fill="#1F90CF"/>
<path d="M33.3443 38.4948C33.3443 38.4948 49.3892 50.3618 46.4958 55.3725C46.4958 55.3725 36.7637 60.1193 34.6596 59.8557C32.5554 59.592 24.4013 50.3621 22.2972 49.5708C20.193 48.7794 19.1407 34.5392 33.3443 38.4948Z" fill="#1F90CF"/>
<path d="M36.5919 6.94523C37.3249 6.71244 38.1387 6.55195 38.8472 6.85119C39.5558 7.15044 40.0343 8.08037 39.6164 8.72677C41.8295 6.89473 44.6157 5.90285 47.4856 5.92524C50.3556 5.94762 53.126 6.98285 55.3105 8.84919C56.8518 10.1665 58.1173 12.1007 57.8184 14.1089C57.7417 14.6243 57.5649 15.1537 57.7129 15.6535C57.8998 16.2834 58.5713 16.6681 59.2244 16.7232L59.244 16.7248C59.3563 16.729 59.4647 16.7669 59.5553 16.8335C59.6459 16.9002 59.7145 16.9926 59.7521 17.0988C59.7897 17.205 59.7947 17.32 59.7664 17.4291C59.7381 17.5381 59.6778 17.6361 59.5933 17.7104L58.7276 18.4596C59.3091 18.8465 59.9753 19.0867 60.6694 19.1598C60.7845 19.1725 60.8928 19.2206 60.9796 19.2975C61.0663 19.3744 61.1272 19.4764 61.1538 19.5894C61.1805 19.7023 61.1716 19.8208 61.1284 19.9285C61.0852 20.0362 61.0099 20.1279 60.9126 20.191C58.3726 21.8405 55.0273 22.2496 52.1979 21.1407C50.1869 20.3525 48.4172 18.8722 46.2776 18.582C45.4499 18.4697 44.6076 18.5447 43.8125 18.8013C43.0174 19.058 42.2897 19.4898 41.6828 20.0653C41.0759 20.6407 40.6052 21.345 40.3052 22.1266C40.0052 22.9082 39.8836 23.7472 39.9492 24.5821C39.5995 23.6892 38.3749 23.3969 37.5101 23.808C36.6453 24.219 36.1157 25.1244 35.8364 26.0419C35.4082 27.4447 35.4498 28.9378 35.5323 30.4072C30.8703 28.4421 27.6773 23.4052 27.8937 18.3379C28.1103 13.2493 31.7491 8.48354 36.5919 6.94523Z" fill="#090814"/>
</g>
<defs>
<clipPath id="clip0_136_2061">
<rect width="120" height="103" fill="white"/>
</clipPath>
</defs>
</svg>
